<?xml version="1.0" encoding="utf-8"?>
<svg xmlns="http://www.w3.org/2000/svg" xmlns:xlink="http://www.w3.org/1999/xlink" width="600" height="400" viewBox="0 0 2400 1600">
<defs>
  <clipPath id="clip900">
    <rect x="0" y="0" width="2400" height="1600"/>
  </clipPath>
</defs>
<path clip-path="url(#clip900)" d="
M0 1600 L2400 1600 L2400 0 L0 0  Z
  " fill="#ffffff" fill-rule="evenodd" fill-opacity="1"/>
<defs>
  <clipPath id="clip901">
    <rect x="480" y="0" width="1681" height="1600"/>
  </clipPath>
</defs>
<path clip-path="url(#clip900)" d="
M146.328 1361.44 L2321.26 1361.44 L2321.26 78.7402 L146.328 78.7402  Z
  " fill="#ffffff" fill-rule="evenodd" fill-opacity="1"/>
<defs>
  <clipPath id="clip902">
    <rect x="146" y="78" width="2176" height="1284"/>
  </clipPath>
</defs>
<polyline clip-path="url(#clip902)" style="stroke:#000000; stroke-linecap:butt; stroke-linejoin:round; stroke-width:2; stroke-opacity:0.1; fill:none" points="
  237.819,1361.44 237.819,78.7402 
  "/>
<polyline clip-path="url(#clip902)" style="stroke:#000000; stroke-linecap:butt; stroke-linejoin:round; stroke-width:2; stroke-opacity:0.1; fill:none" points="
  568.966,1361.44 568.966,78.7402 
  "/>
<polyline clip-path="url(#clip902)" style="stroke:#000000; stroke-linecap:butt; stroke-linejoin:round; stroke-width:2; stroke-opacity:0.1; fill:none" points="
  900.113,1361.44 900.113,78.7402 
  "/>
<polyline clip-path="url(#clip902)" style="stroke:#000000; stroke-linecap:butt; stroke-linejoin:round; stroke-width:2; stroke-opacity:0.1; fill:none" points="
  1231.26,1361.44 1231.26,78.7402 
  "/>
<polyline clip-path="url(#clip902)" style="stroke:#000000; stroke-linecap:butt; stroke-linejoin:round; stroke-width:2; stroke-opacity:0.1; fill:none" points="
  1562.41,1361.44 1562.41,78.7402 
  "/>
<polyline clip-path="url(#clip902)" style="stroke:#000000; stroke-linecap:butt; stroke-linejoin:round; stroke-width:2; stroke-opacity:0.1; fill:none" points="
  1893.56,1361.44 1893.56,78.7402 
  "/>
<polyline clip-path="url(#clip902)" style="stroke:#000000; stroke-linecap:butt; stroke-linejoin:round; stroke-width:2; stroke-opacity:0.1; fill:none" points="
  2224.7,1361.44 2224.7,78.7402 
  "/>
<polyline clip-path="url(#clip900)" style="stroke:#000000; stroke-linecap:butt; stroke-linejoin:round; stroke-width:4; stroke-opacity:1; fill:none" points="
  146.328,1361.44 2321.26,1361.44 
  "/>
<polyline clip-path="url(#clip900)" style="stroke:#000000; stroke-linecap:butt; stroke-linejoin:round; stroke-width:4; stroke-opacity:1; fill:none" points="
  237.819,1361.44 237.819,1342.55 
  "/>
<polyline clip-path="url(#clip900)" style="stroke:#000000; stroke-linecap:butt; stroke-linejoin:round; stroke-width:4; stroke-opacity:1; fill:none" points="
  568.966,1361.44 568.966,1342.55 
  "/>
<polyline clip-path="url(#clip900)" style="stroke:#000000; stroke-linecap:butt; stroke-linejoin:round; stroke-width:4; stroke-opacity:1; fill:none" points="
  900.113,1361.44 900.113,1342.55 
  "/>
<polyline clip-path="url(#clip900)" style="stroke:#000000; stroke-linecap:butt; stroke-linejoin:round; stroke-width:4; stroke-opacity:1; fill:none" points="
  1231.26,1361.44 1231.26,1342.55 
  "/>
<polyline clip-path="url(#clip900)" style="stroke:#000000; stroke-linecap:butt; stroke-linejoin:round; stroke-width:4; stroke-opacity:1; fill:none" points="
  1562.41,1361.44 1562.41,1342.55 
  "/>
<polyline clip-path="url(#clip900)" style="stroke:#000000; stroke-linecap:butt; stroke-linejoin:round; stroke-width:4; stroke-opacity:1; fill:none" points="
  1893.56,1361.44 1893.56,1342.55 
  "/>
<polyline clip-path="url(#clip900)" style="stroke:#000000; stroke-linecap:butt; stroke-linejoin:round; stroke-width:4; stroke-opacity:1; fill:none" points="
  2224.7,1361.44 2224.7,1342.55 
  "/>
<path clip-path="url(#clip900)" d="M197.454 1399.71 L179.746 1427.39 L197.454 1427.39 L197.454 1399.71 M195.614 1393.6 L204.433 1393.6 L204.433 1427.39 L211.829 1427.39 L211.829 1433.22 L204.433 1433.22 L204.433 1445.44 L197.454 1445.44 L197.454 1433.22 L174.052 1433.22 L174.052 1426.45 L195.614 1393.6 Z" fill="#000000" fill-rule="evenodd" fill-opacity="1" /><path clip-path="url(#clip900)" d="M238.426 1398.22 Q233.01 1398.22 230.267 1403.57 Q227.558 1408.88 227.558 1419.58 Q227.558 1430.24 230.267 1435.58 Q233.01 1440.9 238.426 1440.9 Q243.878 1440.9 246.586 1435.58 Q249.329 1430.24 249.329 1419.58 Q249.329 1408.88 246.586 1403.57 Q243.878 1398.22 238.426 1398.22 M238.426 1392.67 Q247.141 1392.67 251.725 1399.58 Q256.343 1406.45 256.343 1419.58 Q256.343 1432.67 251.725 1439.58 Q247.141 1446.45 238.426 1446.45 Q229.711 1446.45 225.093 1439.58 Q220.51 1432.67 220.51 1419.58 Q220.51 1406.45 225.093 1399.58 Q229.711 1392.67 238.426 1392.67 Z" fill="#000000" fill-rule="evenodd" fill-opacity="1" /><path clip-path="url(#clip900)" d="M283.669 1398.22 Q278.252 1398.22 275.509 1403.57 Q272.801 1408.88 272.801 1419.58 Q272.801 1430.24 275.509 1435.58 Q278.252 1440.9 283.669 1440.9 Q289.12 1440.9 291.829 1435.58 Q294.572 1430.24 294.572 1419.58 Q294.572 1408.88 291.829 1403.57 Q289.12 1398.22 283.669 1398.22 M283.669 1392.67 Q292.384 1392.67 296.968 1399.58 Q301.586 1406.45 301.586 1419.58 Q301.586 1432.67 296.968 1439.58 Q292.384 1446.45 283.669 1446.45 Q274.954 1446.45 270.336 1439.58 Q265.752 1432.67 265.752 1419.58 Q265.752 1406.45 270.336 1399.58 Q274.954 1392.67 283.669 1392.67 Z" fill="#000000" fill-rule="evenodd" fill-opacity="1" /><path clip-path="url(#clip900)" d="M508.393 1393.6 L535.928 1393.6 L535.928 1399.51 L514.817 1399.51 L514.817 1412.21 Q516.345 1411.69 517.872 1411.45 Q519.4 1411.17 520.928 1411.17 Q529.609 1411.17 534.678 1415.93 Q539.747 1420.69 539.747 1428.81 Q539.747 1437.18 534.539 1441.83 Q529.331 1446.45 519.852 1446.45 Q516.588 1446.45 513.185 1445.9 Q509.817 1445.34 506.206 1444.23 L506.206 1437.18 Q509.331 1438.88 512.664 1439.71 Q515.998 1440.55 519.713 1440.55 Q525.72 1440.55 529.227 1437.39 Q532.734 1434.23 532.734 1428.81 Q532.734 1423.4 529.227 1420.24 Q525.72 1417.08 519.713 1417.08 Q516.9 1417.08 514.088 1417.7 Q511.31 1418.33 508.393 1419.65 L508.393 1393.6 Z" fill="#000000" fill-rule="evenodd" fill-opacity="1" /><path clip-path="url(#clip900)" d="M568.567 1398.22 Q563.15 1398.22 560.407 1403.57 Q557.699 1408.88 557.699 1419.58 Q557.699 1430.24 560.407 1435.58 Q563.15 1440.9 568.567 1440.9 Q574.018 1440.9 576.726 1435.58 Q579.469 1430.24 579.469 1419.58 Q579.469 1408.88 576.726 1403.57 Q574.018 1398.22 568.567 1398.22 M568.567 1392.67 Q577.282 1392.67 581.865 1399.58 Q586.483 1406.45 586.483 1419.58 Q586.483 1432.67 581.865 1439.58 Q577.282 1446.45 568.567 1446.45 Q559.851 1446.45 555.233 1439.58 Q550.65 1432.67 550.65 1419.58 Q550.65 1406.45 555.233 1399.58 Q559.851 1392.67 568.567 1392.67 Z" fill="#000000" fill-rule="evenodd" fill-opacity="1" /><path clip-path="url(#clip900)" d="M613.809 1398.22 Q608.393 1398.22 605.65 1403.57 Q602.941 1408.88 602.941 1419.58 Q602.941 1430.24 605.65 1435.58 Q608.393 1440.9 613.809 1440.9 Q619.261 1440.9 621.969 1435.58 Q624.712 1430.24 624.712 1419.58 Q624.712 1408.88 621.969 1403.57 Q619.261 1398.22 613.809 1398.22 M613.809 1392.67 Q622.525 1392.67 627.108 1399.58 Q631.726 1406.45 631.726 1419.58 Q631.726 1432.67 627.108 1439.58 Q622.525 1446.45 613.809 1446.45 Q605.094 1446.45 600.476 1439.58 Q595.893 1432.67 595.893 1419.58 Q595.893 1406.45 600.476 1399.58 Q605.094 1392.67 613.809 1392.67 Z" fill="#000000" fill-rule="evenodd" fill-opacity="1" /><path clip-path="url(#clip900)" d="M855.6 1416.73 Q850.878 1416.73 848.1 1419.96 Q845.357 1423.19 845.357 1428.81 Q845.357 1434.4 848.1 1437.67 Q850.878 1440.9 855.6 1440.9 Q860.322 1440.9 863.065 1437.67 Q865.843 1434.4 865.843 1428.81 Q865.843 1423.19 863.065 1419.96 Q860.322 1416.73 855.6 1416.73 M869.523 1394.75 L869.523 1401.14 Q866.884 1399.89 864.176 1399.23 Q861.502 1398.57 858.864 1398.57 Q851.919 1398.57 848.239 1403.26 Q844.593 1407.94 844.072 1417.42 Q846.121 1414.4 849.211 1412.81 Q852.301 1411.17 856.016 1411.17 Q863.829 1411.17 868.343 1415.93 Q872.891 1420.65 872.891 1428.81 Q872.891 1436.8 868.169 1441.62 Q863.447 1446.45 855.6 1446.45 Q846.607 1446.45 841.85 1439.58 Q837.093 1432.67 837.093 1419.58 Q837.093 1407.28 842.926 1399.99 Q848.759 1392.67 858.586 1392.67 Q861.225 1392.67 863.898 1393.19 Q866.607 1393.71 869.523 1394.75 Z" fill="#000000" fill-rule="evenodd" fill-opacity="1" /><path clip-path="url(#clip900)" d="M899.974 1398.22 Q894.558 1398.22 891.815 1403.57 Q889.106 1408.88 889.106 1419.58 Q889.106 1430.24 891.815 1435.58 Q894.558 1440.9 899.974 1440.9 Q905.426 1440.9 908.134 1435.58 Q910.877 1430.24 910.877 1419.58 Q910.877 1408.88 908.134 1403.57 Q905.426 1398.22 899.974 1398.22 M899.974 1392.67 Q908.69 1392.67 913.273 1399.58 Q917.891 1406.45 917.891 1419.58 Q917.891 1432.67 913.273 1439.58 Q908.69 1446.45 899.974 1446.45 Q891.259 1446.45 886.641 1439.58 Q882.058 1432.67 882.058 1419.58 Q882.058 1406.45 886.641 1399.58 Q891.259 1392.67 899.974 1392.67 Z" fill="#000000" fill-rule="evenodd" fill-opacity="1" /><path clip-path="url(#clip900)" d="M945.217 1398.22 Q939.801 1398.22 937.058 1403.57 Q934.349 1408.88 934.349 1419.58 Q934.349 1430.24 937.058 1435.58 Q939.801 1440.9 945.217 1440.9 Q950.669 1440.9 953.377 1435.58 Q956.12 1430.24 956.12 1419.58 Q956.12 1408.88 953.377 1403.57 Q950.669 1398.22 945.217 1398.22 M945.217 1392.67 Q953.933 1392.67 958.516 1399.58 Q963.134 1406.45 963.134 1419.58 Q963.134 1432.67 958.516 1439.58 Q953.933 1446.45 945.217 1446.45 Q936.502 1446.45 931.884 1439.58 Q927.301 1432.67 927.301 1419.58 Q927.301 1406.45 931.884 1399.58 Q936.502 1392.67 945.217 1392.67 Z" fill="#000000" fill-rule="evenodd" fill-opacity="1" /><path clip-path="url(#clip900)" d="M1168.67 1393.6 L1202.01 1393.6 L1202.01 1396.59 L1183.19 1445.44 L1175.86 1445.44 L1193.57 1399.51 L1168.67 1399.51 L1168.67 1393.6 Z" fill="#000000" fill-rule="evenodd" fill-opacity="1" /><path clip-path="url(#clip900)" d="M1230.69 1398.22 Q1225.27 1398.22 1222.53 1403.57 Q1219.82 1408.88 1219.82 1419.58 Q1219.82 1430.24 1222.53 1435.58 Q1225.27 1440.9 1230.69 1440.9 Q1236.14 1440.9 1238.85 1435.58 Q1241.59 1430.24 1241.59 1419.58 Q1241.59 1408.88 1238.85 1403.57 Q1236.14 1398.22 1230.69 1398.22 M1230.69 1392.67 Q1239.4 1392.67 1243.99 1399.58 Q1248.6 1406.45 1248.6 1419.58 Q1248.6 1432.67 1243.99 1439.58 Q1239.4 1446.45 1230.69 1446.45 Q1221.97 1446.45 1217.35 1439.58 Q1212.77 1432.67 1212.77 1419.58 Q1212.77 1406.45 1217.35 1399.58 Q1221.97 1392.67 1230.69 1392.67 Z" fill="#000000" fill-rule="evenodd" fill-opacity="1" /><path clip-path="url(#clip900)" d="M1275.93 1398.22 Q1270.51 1398.22 1267.77 1403.57 Q1265.06 1408.88 1265.06 1419.58 Q1265.06 1430.24 1267.77 1435.58 Q1270.51 1440.9 1275.93 1440.9 Q1281.38 1440.9 1284.09 1435.58 Q1286.83 1430.24 1286.83 1419.58 Q1286.83 1408.88 1284.09 1403.57 Q1281.38 1398.22 1275.93 1398.22 M1275.93 1392.67 Q1284.65 1392.67 1289.23 1399.58 Q1293.85 1406.45 1293.85 1419.58 Q1293.85 1432.67 1289.23 1439.58 Q1284.65 1446.45 1275.93 1446.45 Q1267.22 1446.45 1262.6 1439.58 Q1258.01 1432.67 1258.01 1419.58 Q1258.01 1406.45 1262.6 1399.58 Q1267.22 1392.67 1275.93 1392.67 Z" fill="#000000" fill-rule="evenodd" fill-opacity="1" /><path clip-path="url(#clip900)" d="M1517.1 1420.83 Q1512.1 1420.83 1509.21 1423.5 Q1506.37 1426.17 1506.37 1430.86 Q1506.37 1435.55 1509.21 1438.22 Q1512.1 1440.9 1517.1 1440.9 Q1522.1 1440.9 1524.98 1438.22 Q1527.86 1435.51 1527.86 1430.86 Q1527.86 1426.17 1524.98 1423.5 Q1522.13 1420.83 1517.1 1420.83 M1510.08 1417.84 Q1505.57 1416.73 1503.03 1413.64 Q1500.53 1410.55 1500.53 1406.1 Q1500.53 1399.89 1504.94 1396.28 Q1509.39 1392.67 1517.1 1392.67 Q1524.84 1392.67 1529.25 1396.28 Q1533.66 1399.89 1533.66 1406.1 Q1533.66 1410.55 1531.12 1413.64 Q1528.62 1416.73 1524.14 1417.84 Q1529.21 1419.02 1532.03 1422.46 Q1534.87 1425.9 1534.87 1430.86 Q1534.87 1438.4 1530.26 1442.42 Q1525.67 1446.45 1517.1 1446.45 Q1508.52 1446.45 1503.9 1442.42 Q1499.32 1438.4 1499.32 1430.86 Q1499.32 1425.9 1502.17 1422.46 Q1505.01 1419.02 1510.08 1417.84 M1507.51 1406.76 Q1507.51 1410.79 1510.01 1413.05 Q1512.55 1415.31 1517.1 1415.31 Q1521.61 1415.31 1524.14 1413.05 Q1526.71 1410.79 1526.71 1406.76 Q1526.71 1402.74 1524.14 1400.48 Q1521.61 1398.22 1517.1 1398.22 Q1512.55 1398.22 1510.01 1400.48 Q1507.51 1402.74 1507.51 1406.76 Z" fill="#000000" fill-rule="evenodd" fill-opacity="1" /><path clip-path="url(#clip900)" d="M1562.34 1398.22 Q1556.92 1398.22 1554.18 1403.57 Q1551.47 1408.88 1551.47 1419.58 Q1551.47 1430.24 1554.18 1435.58 Q1556.92 1440.9 1562.34 1440.9 Q1567.79 1440.9 1570.5 1435.58 Q1573.24 1430.24 1573.24 1419.58 Q1573.24 1408.88 1570.5 1403.57 Q1567.79 1398.22 1562.34 1398.22 M1562.34 1392.67 Q1571.05 1392.67 1575.64 1399.58 Q1580.26 1406.45 1580.26 1419.58 Q1580.26 1432.67 1575.64 1439.58 Q1571.05 1446.45 1562.34 1446.45 Q1553.62 1446.45 1549.01 1439.58 Q1544.42 1432.67 1544.42 1419.58 Q1544.42 1406.45 1549.01 1399.58 Q1553.62 1392.67 1562.34 1392.67 Z" fill="#000000" fill-rule="evenodd" fill-opacity="1" /><path clip-path="url(#clip900)" d="M1607.58 1398.22 Q1602.16 1398.22 1599.42 1403.57 Q1596.71 1408.88 1596.71 1419.58 Q1596.71 1430.24 1599.42 1435.58 Q1602.16 1440.9 1607.58 1440.9 Q1613.03 1440.9 1615.74 1435.58 Q1618.48 1430.24 1618.48 1419.58 Q1618.48 1408.88 1615.74 1403.57 Q1613.03 1398.22 1607.58 1398.22 M1607.58 1392.67 Q1616.3 1392.67 1620.88 1399.58 Q1625.5 1406.45 1625.5 1419.58 Q1625.5 1432.67 1620.88 1439.58 Q1616.3 1446.45 1607.58 1446.45 Q1598.87 1446.45 1594.25 1439.58 Q1589.66 1432.67 1589.66 1419.58 Q1589.66 1406.45 1594.25 1399.58 Q1598.87 1392.67 1607.58 1392.67 Z" fill="#000000" fill-rule="evenodd" fill-opacity="1" /><path clip-path="url(#clip900)" d="M1833.63 1444.37 L1833.63 1437.98 Q1836.26 1439.23 1838.97 1439.89 Q1841.68 1440.55 1844.28 1440.55 Q1851.23 1440.55 1854.88 1435.9 Q1858.56 1431.21 1859.08 1421.69 Q1857.06 1424.68 1853.97 1426.28 Q1850.88 1427.87 1847.13 1427.87 Q1839.35 1427.87 1834.81 1423.19 Q1830.29 1418.46 1830.29 1410.31 Q1830.29 1402.32 1835.01 1397.49 Q1839.74 1392.67 1847.58 1392.67 Q1856.58 1392.67 1861.3 1399.58 Q1866.06 1406.45 1866.06 1419.58 Q1866.06 1431.83 1860.22 1439.16 Q1854.42 1446.45 1844.6 1446.45 Q1841.96 1446.45 1839.25 1445.93 Q1836.54 1445.41 1833.63 1444.37 M1847.58 1422.39 Q1852.31 1422.39 1855.05 1419.16 Q1857.83 1415.93 1857.83 1410.31 Q1857.83 1404.71 1855.05 1401.49 Q1852.31 1398.22 1847.58 1398.22 Q1842.86 1398.22 1840.08 1401.49 Q1837.34 1404.71 1837.34 1410.31 Q1837.34 1415.93 1840.08 1419.16 Q1842.86 1422.39 1847.58 1422.39 Z" fill="#000000" fill-rule="evenodd" fill-opacity="1" /><path clip-path="url(#clip900)" d="M1893.66 1398.22 Q1888.24 1398.22 1885.5 1403.57 Q1882.79 1408.88 1882.79 1419.58 Q1882.79 1430.24 1885.5 1435.58 Q1888.24 1440.9 1893.66 1440.9 Q1899.11 1440.9 1901.82 1435.58 Q1904.56 1430.24 1904.56 1419.58 Q1904.56 1408.88 1901.82 1403.57 Q1899.11 1398.22 1893.66 1398.22 M1893.66 1392.67 Q1902.37 1392.67 1906.96 1399.58 Q1911.58 1406.45 1911.58 1419.58 Q1911.58 1432.67 1906.96 1439.58 Q1902.37 1446.45 1893.66 1446.45 Q1884.94 1446.45 1880.33 1439.58 Q1875.74 1432.67 1875.74 1419.58 Q1875.74 1406.45 1880.33 1399.58 Q1884.94 1392.67 1893.66 1392.67 Z" fill="#000000" fill-rule="evenodd" fill-opacity="1" /><path clip-path="url(#clip900)" d="M1938.9 1398.22 Q1933.49 1398.22 1930.74 1403.57 Q1928.03 1408.88 1928.03 1419.58 Q1928.03 1430.24 1930.74 1435.58 Q1933.49 1440.9 1938.9 1440.9 Q1944.35 1440.9 1947.06 1435.58 Q1949.81 1430.24 1949.81 1419.58 Q1949.81 1408.88 1947.06 1403.57 Q1944.35 1398.22 1938.9 1398.22 M1938.9 1392.67 Q1947.62 1392.67 1952.2 1399.58 Q1956.82 1406.45 1956.82 1419.58 Q1956.82 1432.67 1952.2 1439.58 Q1947.62 1446.45 1938.9 1446.45 Q1930.19 1446.45 1925.57 1439.58 Q1920.99 1432.67 1920.99 1419.58 Q1920.99 1406.45 1925.57 1399.58 Q1930.19 1392.67 1938.9 1392.67 Z" fill="#000000" fill-rule="evenodd" fill-opacity="1" /><path clip-path="url(#clip900)" d="M2141.49 1439.54 L2152.95 1439.54 L2152.95 1399.99 L2140.48 1402.49 L2140.48 1396.1 L2152.88 1393.6 L2159.89 1393.6 L2159.89 1439.54 L2171.35 1439.54 L2171.35 1445.44 L2141.49 1445.44 L2141.49 1439.54 Z" fill="#000000" fill-rule="evenodd" fill-opacity="1" /><path clip-path="url(#clip900)" d="M2200.52 1398.22 Q2195.1 1398.22 2192.36 1403.57 Q2189.65 1408.88 2189.65 1419.58 Q2189.65 1430.24 2192.36 1435.58 Q2195.1 1440.9 2200.52 1440.9 Q2205.97 1440.9 2208.68 1435.58 Q2211.42 1430.24 2211.42 1419.58 Q2211.42 1408.88 2208.68 1403.57 Q2205.97 1398.22 2200.52 1398.22 M2200.52 1392.67 Q2209.23 1392.67 2213.82 1399.58 Q2218.44 1406.45 2218.44 1419.58 Q2218.44 1432.67 2213.82 1439.58 Q2209.23 1446.45 2200.52 1446.45 Q2191.8 1446.45 2187.19 1439.58 Q2182.6 1432.67 2182.6 1419.58 Q2182.6 1406.45 2187.19 1399.58 Q2191.8 1392.67 2200.52 1392.67 Z" fill="#000000" fill-rule="evenodd" fill-opacity="1" /><path clip-path="url(#clip900)" d="M2245.76 1398.22 Q2240.35 1398.22 2237.6 1403.57 Q2234.89 1408.88 2234.89 1419.58 Q2234.89 1430.24 2237.6 1435.58 Q2240.35 1440.9 2245.76 1440.9 Q2251.21 1440.9 2253.92 1435.58 Q2256.66 1430.24 2256.66 1419.58 Q2256.66 1408.88 2253.92 1403.57 Q2251.21 1398.22 2245.76 1398.22 M2245.76 1392.67 Q2254.48 1392.67 2259.06 1399.58 Q2263.68 1406.45 2263.68 1419.58 Q2263.68 1432.67 2259.06 1439.58 Q2254.48 1446.45 2245.76 1446.45 Q2237.05 1446.45 2232.43 1439.58 Q2227.85 1432.67 2227.85 1419.58 Q2227.85 1406.45 2232.43 1399.58 Q2237.05 1392.67 2245.76 1392.67 Z" fill="#000000" fill-rule="evenodd" fill-opacity="1" /><path clip-path="url(#clip900)" d="M2291 1398.22 Q2285.59 1398.22 2282.84 1403.57 Q2280.14 1408.88 2280.14 1419.58 Q2280.14 1430.24 2282.84 1435.58 Q2285.59 1440.9 2291 1440.9 Q2296.46 1440.9 2299.16 1435.58 Q2301.91 1430.24 2301.91 1419.58 Q2301.91 1408.88 2299.16 1403.57 Q2296.46 1398.22 2291 1398.22 M2291 1392.67 Q2299.72 1392.67 2304.3 1399.58 Q2308.92 1406.45 2308.92 1419.58 Q2308.92 1432.67 2304.3 1439.58 Q2299.72 1446.45 2291 1446.45 Q2282.29 1446.45 2277.67 1439.58 Q2273.09 1432.67 2273.09 1419.58 Q2273.09 1406.45 2277.67 1399.58 Q2282.29 1392.67 2291 1392.67 Z" fill="#000000" fill-rule="evenodd" fill-opacity="1" /><path clip-path="url(#clip900)" d="M1125.01 1491.84 L1145.95 1547.78 L1138.05 1547.78 L1125.33 1514.24 L1109.69 1547.78 L1101.8 1547.78 L1121.69 1504.27 L1118.69 1496.25 Q1116.78 1491.15 1112.45 1491.15 L1108.56 1491.15 L1108.56 1484.75 L1113.3 1484.83 Q1122.45 1484.95 1125.01 1491.84 Z" fill="#000000" fill-rule="evenodd" fill-opacity="1" /><path clip-path="url(#clip900)" d="M1181.92 1484.75 L1199.1 1484.75 L1199.1 1490.54 L1189.38 1490.54 L1189.38 1552.92 L1199.1 1552.92 L1199.1 1558.72 L1181.92 1558.72 L1181.92 1484.75 Z" fill="#000000" fill-rule="evenodd" fill-opacity="1" /><path clip-path="url(#clip900)" d="M1252.69 1520.4 L1252.69 1547.78 L1245.24 1547.78 L1245.24 1520.64 Q1245.24 1514.2 1242.73 1511 Q1240.21 1507.8 1235.19 1507.8 Q1229.16 1507.8 1225.67 1511.65 Q1222.19 1515.49 1222.19 1522.14 L1222.19 1547.78 L1214.69 1547.78 L1214.69 1502.41 L1222.19 1502.41 L1222.19 1509.46 Q1224.86 1505.37 1228.47 1503.34 Q1232.11 1501.32 1236.85 1501.32 Q1244.67 1501.32 1248.68 1506.18 Q1252.69 1511 1252.69 1520.4 Z" fill="#000000" fill-rule="evenodd" fill-opacity="1" /><path clip-path="url(#clip900)" d="M1302.88 1511.12 Q1305.68 1506.1 1309.57 1503.71 Q1313.46 1501.32 1318.72 1501.32 Q1325.81 1501.32 1329.66 1506.3 Q1333.51 1511.24 1333.51 1520.4 L1333.51 1547.78 L1326.01 1547.78 L1326.01 1520.64 Q1326.01 1514.12 1323.7 1510.96 Q1321.39 1507.8 1316.66 1507.8 Q1310.86 1507.8 1307.5 1511.65 Q1304.14 1515.49 1304.14 1522.14 L1304.14 1547.78 L1296.64 1547.78 L1296.64 1520.64 Q1296.64 1514.08 1294.33 1510.96 Q1292.03 1507.8 1287.21 1507.8 Q1281.49 1507.8 1278.13 1511.69 Q1274.77 1515.53 1274.77 1522.14 L1274.77 1547.78 L1267.27 1547.78 L1267.27 1502.41 L1274.77 1502.41 L1274.77 1509.46 Q1277.32 1505.29 1280.89 1503.3 Q1284.45 1501.32 1289.35 1501.32 Q1294.29 1501.32 1297.74 1503.83 Q1301.22 1506.34 1302.88 1511.12 Z" fill="#000000" fill-rule="evenodd" fill-opacity="1" /><path clip-path="url(#clip900)" d="M1365.79 1484.75 L1365.79 1558.72 L1348.62 1558.72 L1348.62 1552.92 L1358.3 1552.92 L1358.3 1490.54 L1348.62 1490.54 L1348.62 1484.75 L1365.79 1484.75 Z" fill="#000000" fill-rule="evenodd" fill-opacity="1" /><polyline clip-path="url(#clip900)" style="stroke:#000000; stroke-linecap:butt; stroke-linejoin:round; stroke-width:4; stroke-opacity:1; fill:none" points="
  146.328,1361.44 146.328,78.7402 
  "/>
<path clip-path="url(#clip900)" d="M8.63757 1364.05 L15.4778 1364.05 Q13.5681 1368.04 12.6306 1371.58 Q11.6931 1375.12 11.6931 1378.42 Q11.6931 1384.15 13.9153 1387.28 Q16.1375 1390.37 20.2347 1390.37 Q23.6722 1390.37 25.443 1388.32 Q27.1791 1386.23 28.2555 1380.47 L29.1236 1376.23 Q30.6166 1368.39 34.4013 1364.67 Q38.1513 1360.92 44.4707 1360.92 Q52.0054 1360.92 55.8943 1365.99 Q59.7831 1371.03 59.7831 1380.78 Q59.7831 1384.46 58.9498 1388.63 Q58.1165 1392.76 56.4845 1397.21 L49.2624 1397.21 Q51.6582 1392.94 52.8734 1388.84 Q54.0887 1384.74 54.0887 1380.78 Q54.0887 1374.78 51.7276 1371.51 Q49.3665 1368.25 44.9915 1368.25 Q41.1721 1368.25 39.0194 1370.61 Q36.8666 1372.94 35.7902 1378.28 L34.9569 1382.55 Q33.3944 1390.4 30.0611 1393.91 Q26.7277 1397.41 20.7903 1397.41 Q13.9153 1397.41 9.95701 1392.59 Q5.99869 1387.73 5.99869 1379.22 Q5.99869 1375.57 6.65841 1371.79 Q7.31813 1368.01 8.63757 1364.05 Z" fill="#000000" fill-rule="evenodd" fill-opacity="1" /><path clip-path="url(#clip900)" d="M52.9429 1344.08 L73.5678 1344.08 L73.5678 1350.51 L19.8875 1350.51 L19.8875 1344.08 L25.7903 1344.08 Q22.3181 1342.07 20.6514 1339.01 Q18.95 1335.92 18.95 1331.65 Q18.95 1324.57 24.575 1320.16 Q30.2 1315.71 39.3666 1315.71 Q48.5332 1315.71 54.1582 1320.16 Q59.7831 1324.57 59.7831 1331.65 Q59.7831 1335.92 58.1165 1339.01 Q56.4151 1342.07 52.9429 1344.08 M39.3666 1322.35 Q32.318 1322.35 28.325 1325.26 Q24.2972 1328.14 24.2972 1333.21 Q24.2972 1338.28 28.325 1341.2 Q32.318 1344.08 39.3666 1344.08 Q46.4151 1344.08 50.4429 1341.2 Q54.4359 1338.28 54.4359 1333.21 Q54.4359 1328.14 50.4429 1325.26 Q46.4151 1322.35 39.3666 1322.35 Z" fill="#000000" fill-rule="evenodd" fill-opacity="1" /><path clip-path="url(#clip900)" d="M37.7346 1271.86 L40.8596 1271.86 L40.8596 1301.23 Q47.4568 1300.82 50.929 1297.28 Q54.3665 1293.7 54.3665 1287.35 Q54.3665 1283.67 53.4637 1280.23 Q52.5609 1276.76 50.7554 1273.35 L56.797 1273.35 Q58.2554 1276.79 59.0192 1280.4 Q59.7831 1284.01 59.7831 1287.73 Q59.7831 1297.03 54.3665 1302.48 Q48.9499 1307.9 39.7138 1307.9 Q30.1652 1307.9 24.575 1302.76 Q18.95 1297.59 18.95 1288.84 Q18.95 1280.99 24.0194 1276.44 Q29.0541 1271.86 37.7346 1271.86 M35.8596 1278.25 Q30.6166 1278.32 27.4916 1281.2 Q24.3667 1284.05 24.3667 1288.77 Q24.3667 1294.12 27.3875 1297.35 Q30.4083 1300.54 35.8944 1301.03 L35.8596 1278.25 Z" fill="#000000" fill-rule="evenodd" fill-opacity="1" /><path clip-path="url(#clip900)" d="M21.3806 1233.39 L27.3527 1233.39 Q25.8597 1236.1 25.1305 1238.84 Q24.3667 1241.55 24.3667 1244.33 Q24.3667 1250.54 28.325 1253.98 Q32.2486 1257.42 39.3666 1257.42 Q46.4846 1257.42 50.4429 1253.98 Q54.3665 1250.54 54.3665 1244.33 Q54.3665 1241.55 53.6373 1238.84 Q52.8734 1236.1 51.3804 1233.39 L57.2831 1233.39 Q58.5331 1236.06 59.1581 1238.94 Q59.7831 1241.79 59.7831 1245.02 Q59.7831 1253.8 54.2623 1258.98 Q48.7415 1264.15 39.3666 1264.15 Q29.8527 1264.15 24.4014 1258.94 Q18.95 1253.7 18.95 1244.6 Q18.95 1241.65 19.575 1238.84 Q20.1653 1236.03 21.3806 1233.39 Z" fill="#000000" fill-rule="evenodd" fill-opacity="1" /><path clip-path="url(#clip900)" d="M8.8459 1215.96 L19.8875 1215.96 L19.8875 1202.8 L24.8528 1202.8 L24.8528 1215.96 L45.9638 1215.96 Q50.7207 1215.96 52.0748 1214.67 Q53.429 1213.35 53.429 1209.36 L53.429 1202.8 L58.7762 1202.8 L58.7762 1209.36 Q58.7762 1216.76 56.0331 1219.57 Q53.2554 1222.38 45.9638 1222.38 L24.8528 1222.38 L24.8528 1227.07 L19.8875 1227.07 L19.8875 1222.38 L8.8459 1222.38 L8.8459 1215.96 Z" fill="#000000" fill-rule="evenodd" fill-opacity="1" /><path clip-path="url(#clip900)" d="M25.8597 1171.86 Q25.2347 1172.94 24.9569 1174.22 Q24.6444 1175.47 24.6444 1177 Q24.6444 1182.42 28.1861 1185.33 Q31.693 1188.21 38.2902 1188.21 L58.7762 1188.21 L58.7762 1194.64 L19.8875 1194.64 L19.8875 1188.21 L25.9291 1188.21 Q22.3875 1186.2 20.6861 1182.97 Q18.95 1179.74 18.95 1175.12 Q18.95 1174.46 19.0542 1173.67 Q19.1236 1172.87 19.2972 1171.9 L25.8597 1171.86 Z" fill="#000000" fill-rule="evenodd" fill-opacity="1" /><path clip-path="url(#clip900)" d="M39.2277 1147.49 Q39.2277 1155.23 40.9985 1158.21 Q42.7693 1161.2 47.0401 1161.2 Q50.4429 1161.2 52.4568 1158.98 Q54.4359 1156.72 54.4359 1152.87 Q54.4359 1147.55 50.686 1144.36 Q46.9013 1141.13 40.6513 1141.13 L39.2277 1141.13 L39.2277 1147.49 M36.5888 1134.74 L58.7762 1134.74 L58.7762 1141.13 L52.8734 1141.13 Q56.4151 1143.32 58.1165 1146.58 Q59.7831 1149.85 59.7831 1154.57 Q59.7831 1160.54 56.4498 1164.08 Q53.0818 1167.59 47.4568 1167.59 Q40.8943 1167.59 37.561 1163.21 Q34.2277 1158.8 34.2277 1150.09 L34.2277 1141.13 L33.6027 1141.13 Q29.193 1141.13 26.7972 1144.05 Q24.3667 1146.93 24.3667 1152.17 Q24.3667 1155.51 25.1653 1158.67 Q25.9639 1161.83 27.5611 1164.74 L21.6583 1164.74 Q20.3042 1161.24 19.6445 1157.94 Q18.95 1154.64 18.95 1151.51 Q18.95 1143.08 23.325 1138.91 Q27.7 1134.74 36.5888 1134.74 Z" fill="#000000" fill-rule="evenodd" fill-opacity="1" /><path clip-path="url(#clip900)" d="M4.7487 1121.58 L4.7487 1115.19 L58.7762 1115.19 L58.7762 1121.58 L4.7487 1121.58 Z" fill="#000000" fill-rule="evenodd" fill-opacity="1" /><path clip-path="url(#clip900)" d="M34.4708 1054.36 Q35.2346 1052.1 37.7346 1049.99 Q40.2346 1047.83 44.6096 1045.68 L58.7762 1038.56 L58.7762 1046.1 L45.4776 1052.73 Q40.2693 1055.3 38.568 1057.73 Q36.8666 1060.12 36.8666 1064.29 L36.8666 1071.93 L58.7762 1071.93 L58.7762 1078.94 L6.93619 1078.94 L6.93619 1063.11 Q6.93619 1054.22 10.6514 1049.85 Q14.3667 1045.47 21.8667 1045.47 Q26.7625 1045.47 29.9916 1047.76 Q33.2208 1050.02 34.4708 1054.36 M12.7 1071.93 L31.1027 1071.93 L31.1027 1063.11 Q31.1027 1058.04 28.7763 1055.47 Q26.4153 1052.87 21.8667 1052.87 Q17.3181 1052.87 15.0264 1055.47 Q12.7 1058.04 12.7 1063.11 L12.7 1071.93 Z" fill="#000000" fill-rule="evenodd" fill-opacity="1" /><path clip-path="url(#clip900)" d="M39.2277 1013.7 Q39.2277 1021.44 40.9985 1024.43 Q42.7693 1027.42 47.0401 1027.42 Q50.4429 1027.42 52.4568 1025.19 Q54.4359 1022.94 54.4359 1019.08 Q54.4359 1013.77 50.686 1010.58 Q46.9013 1007.35 40.6513 1007.35 L39.2277 1007.35 L39.2277 1013.7 M36.5888 1000.96 L58.7762 1000.96 L58.7762 1007.35 L52.8734 1007.35 Q56.4151 1009.53 58.1165 1012.8 Q59.7831 1016.06 59.7831 1020.78 Q59.7831 1026.76 56.4498 1030.3 Q53.0818 1033.81 47.4568 1033.81 Q40.8943 1033.81 37.561 1029.43 Q34.2277 1025.02 34.2277 1016.31 L34.2277 1007.35 L33.6027 1007.35 Q29.193 1007.35 26.7972 1010.26 Q24.3667 1013.15 24.3667 1018.39 Q24.3667 1021.72 25.1653 1024.88 Q25.9639 1028.04 27.5611 1030.96 L21.6583 1030.96 Q20.3042 1027.45 19.6445 1024.15 Q18.95 1020.85 18.95 1017.73 Q18.95 1009.29 23.325 1005.13 Q27.7 1000.96 36.5888 1000.96 Z" fill="#000000" fill-rule="evenodd" fill-opacity="1" /><path clip-path="url(#clip900)" d="M25.7903 962.209 L4.7487 962.209 L4.7487 955.82 L58.7762 955.82 L58.7762 962.209 L52.9429 962.209 Q56.4151 964.223 58.1165 967.313 Q59.7831 970.368 59.7831 974.674 Q59.7831 981.723 54.1582 986.167 Q48.5332 990.577 39.3666 990.577 Q30.2 990.577 24.575 986.167 Q18.95 981.723 18.95 974.674 Q18.95 970.368 20.6514 967.313 Q22.3181 964.223 25.7903 962.209 M39.3666 983.979 Q46.4151 983.979 50.4429 981.098 Q54.4359 978.181 54.4359 973.111 Q54.4359 968.042 50.4429 965.125 Q46.4151 962.209 39.3666 962.209 Q32.318 962.209 28.325 965.125 Q24.2972 968.042 24.2972 973.111 Q24.2972 978.181 28.325 981.098 Q32.318 983.979 39.3666 983.979 Z" fill="#000000" fill-rule="evenodd" fill-opacity="1" /><path clip-path="url(#clip900)" d="M19.8875 942.66 L19.8875 936.271 L58.7762 936.271 L58.7762 942.66 L19.8875 942.66 M4.7487 942.66 L4.7487 936.271 L12.8389 936.271 L12.8389 942.66 L4.7487 942.66 Z" fill="#000000" fill-rule="evenodd" fill-opacity="1" /><path clip-path="url(#clip900)" d="M39.2277 905.23 Q39.2277 912.973 40.9985 915.959 Q42.7693 918.945 47.0401 918.945 Q50.4429 918.945 52.4568 916.723 Q54.4359 914.466 54.4359 910.612 Q54.4359 905.299 50.686 902.105 Q46.9013 898.876 40.6513 898.876 L39.2277 898.876 L39.2277 905.23 M36.5888 892.487 L58.7762 892.487 L58.7762 898.876 L52.8734 898.876 Q56.4151 901.063 58.1165 904.327 Q59.7831 907.591 59.7831 912.313 Q59.7831 918.285 56.4498 921.827 Q53.0818 925.334 47.4568 925.334 Q40.8943 925.334 37.561 920.959 Q34.2277 916.549 34.2277 907.834 L34.2277 898.876 L33.6027 898.876 Q29.193 898.876 26.7972 901.792 Q24.3667 904.674 24.3667 909.917 Q24.3667 913.251 25.1653 916.41 Q25.9639 919.57 27.5611 922.487 L21.6583 922.487 Q20.3042 918.98 19.6445 915.681 Q18.95 912.383 18.95 909.258 Q18.95 900.82 23.325 896.654 Q27.7 892.487 36.5888 892.487 Z" fill="#000000" fill-rule="evenodd" fill-opacity="1" /><path clip-path="url(#clip900)" d="M35.3041 847.001 L58.7762 847.001 L58.7762 853.39 L35.5124 853.39 Q29.9916 853.39 27.2486 855.543 Q24.5055 857.695 24.5055 862.001 Q24.5055 867.175 27.8041 870.161 Q31.1027 873.147 36.7971 873.147 L58.7762 873.147 L58.7762 879.57 L19.8875 879.57 L19.8875 873.147 L25.9291 873.147 Q22.4222 870.855 20.6861 867.765 Q18.95 864.64 18.95 860.577 Q18.95 853.876 23.1167 850.438 Q27.2486 847.001 35.3041 847.001 Z" fill="#000000" fill-rule="evenodd" fill-opacity="1" /><path clip-path="url(#clip900)" d="M21.3806 806.272 L27.3527 806.272 Q25.8597 808.98 25.1305 811.723 Q24.3667 814.432 24.3667 817.21 Q24.3667 823.425 28.325 826.862 Q32.2486 830.3 39.3666 830.3 Q46.4846 830.3 50.4429 826.862 Q54.3665 823.425 54.3665 817.21 Q54.3665 814.432 53.6373 811.723 Q52.8734 808.98 51.3804 806.272 L57.2831 806.272 Q58.5331 808.946 59.1581 811.828 Q59.7831 814.675 59.7831 817.904 Q59.7831 826.689 54.2623 831.862 Q48.7415 837.036 39.3666 837.036 Q29.8527 837.036 24.4014 831.827 Q18.95 826.584 18.95 817.487 Q18.95 814.536 19.575 811.723 Q20.1653 808.911 21.3806 806.272 Z" fill="#000000" fill-rule="evenodd" fill-opacity="1" /><path clip-path="url(#clip900)" d="M37.7346 761.897 L40.8596 761.897 L40.8596 791.272 Q47.4568 790.855 50.929 787.314 Q54.3665 783.737 54.3665 777.383 Q54.3665 773.703 53.4637 770.265 Q52.5609 766.793 50.7554 763.39 L56.797 763.39 Q58.2554 766.828 59.0192 770.439 Q59.7831 774.05 59.7831 777.765 Q59.7831 787.071 54.3665 792.522 Q48.9499 797.939 39.7138 797.939 Q30.1652 797.939 24.575 792.8 Q18.95 787.626 18.95 778.876 Q18.95 771.029 24.0194 766.481 Q29.0541 761.897 37.7346 761.897 M35.8596 768.286 Q30.6166 768.356 27.4916 771.238 Q24.3667 774.085 24.3667 778.807 Q24.3667 784.154 27.3875 787.383 Q30.4083 790.578 35.8944 791.064 L35.8596 768.286 Z" fill="#000000" fill-rule="evenodd" fill-opacity="1" /><path clip-path="url(#clip900)" d="M4.7487 729.397 L4.7487 714.675 L9.71395 714.675 L9.71395 723.009 L63.1859 723.009 L63.1859 714.675 L68.1511 714.675 L68.1511 729.397 L4.7487 729.397 Z" fill="#000000" fill-rule="evenodd" fill-opacity="1" /><path clip-path="url(#clip900)" d="M73.5678 701.724 L19.8875 701.724 L19.8875 695.335 L44.054 695.335 Q49.0887 695.335 51.6582 692.939 Q54.2276 690.544 54.2276 685.856 Q54.2276 680.717 51.311 678.148 Q48.3943 675.544 42.561 675.544 L19.8875 675.544 L19.8875 669.155 L49.8179 669.155 Q51.9012 669.155 52.9082 668.564 Q53.8804 667.939 53.8804 666.655 Q53.8804 666.342 53.7068 665.787 Q53.4984 665.231 53.0818 664.259 L58.2206 664.259 Q59.0192 665.683 59.4012 666.967 Q59.7831 668.217 59.7831 669.433 Q59.7831 671.828 58.429 673.252 Q57.0748 674.676 54.297 675.196 Q57.0401 676.932 58.429 679.467 Q59.7831 681.967 59.7831 685.37 Q59.7831 688.912 58.429 691.412 Q57.0748 693.877 54.3665 695.335 L73.5678 695.335 L73.5678 701.724 Z" fill="#000000" fill-rule="evenodd" fill-opacity="1" /><path clip-path="url(#clip900)" d="M6.93619 660.162 L6.93619 653.078 L50.7554 642.176 L6.93619 631.308 L6.93619 623.426 L50.7554 612.523 L6.93619 601.655 L6.93619 594.537 L58.7762 607.558 L58.7762 616.377 L13.7764 627.315 L58.7762 638.356 L58.7762 647.176 L6.93619 660.162 Z" fill="#000000" fill-rule="evenodd" fill-opacity="1" /><path clip-path="url(#clip900)" d="M21.0333 538.114 L27.075 538.114 Q25.6861 540.822 24.9916 543.739 Q24.2972 546.655 24.2972 549.78 Q24.2972 554.537 25.7555 556.933 Q27.2139 559.294 30.1305 559.294 Q32.3527 559.294 33.6374 557.593 Q34.8874 555.891 36.0333 550.753 L36.5194 548.565 Q37.9777 541.76 40.6513 538.912 Q43.2902 536.03 48.0471 536.03 Q53.4637 536.03 56.6234 540.336 Q59.7831 544.607 59.7831 552.107 Q59.7831 555.232 59.1581 558.635 Q58.5679 562.003 57.3526 565.753 L50.7554 565.753 Q52.5957 562.211 53.5332 558.773 Q54.4359 555.336 54.4359 551.968 Q54.4359 547.454 52.9082 545.023 Q51.3457 542.593 48.5332 542.593 Q45.929 542.593 44.5402 544.364 Q43.1513 546.1 41.8666 552.037 L41.3457 554.26 Q40.0957 560.197 37.5263 562.836 Q34.9222 565.475 30.4083 565.475 Q24.9222 565.475 21.9361 561.586 Q18.95 557.697 18.95 550.544 Q18.95 547.003 19.4708 543.878 Q19.9917 540.753 21.0333 538.114 Z" fill="#000000" fill-rule="evenodd" fill-opacity="1" /><path clip-path="url(#clip900)" d="M25.8597 503.322 Q25.2347 504.399 24.9569 505.683 Q24.6444 506.933 24.6444 508.461 Q24.6444 513.878 28.1861 516.794 Q31.693 519.676 38.2902 519.676 L58.7762 519.676 L58.7762 526.1 L19.8875 526.1 L19.8875 519.676 L25.9291 519.676 Q22.3875 517.662 20.6861 514.433 Q18.95 511.204 18.95 506.586 Q18.95 505.926 19.0542 505.128 Q19.1236 504.329 19.2972 503.357 L25.8597 503.322 Z" fill="#000000" fill-rule="evenodd" fill-opacity="1" /><path clip-path="url(#clip900)" d="M21.45 498.565 L21.45 470.545 L24.7486 470.545 L24.7486 498.565 L21.45 498.565 Z" fill="#000000" fill-rule="evenodd" fill-opacity="1" /><path clip-path="url(#clip900)" d="M31.7624 460.371 L31.7624 453.288 L10.5473 453.288 L11.9709 461.031 L7.94313 461.031 L6.58897 453.045 L6.58897 448.288 L31.7624 448.288 L31.7624 441.17 L35.5819 441.17 L35.5819 460.371 L31.7624 460.371 Z" fill="#000000" fill-rule="evenodd" fill-opacity="1" /><path clip-path="url(#clip900)" d="M21.3806 379.99 L27.3527 379.99 Q25.8597 382.698 25.1305 385.441 Q24.3667 388.149 24.3667 390.927 Q24.3667 397.142 28.325 400.58 Q32.2486 404.017 39.3666 404.017 Q46.4846 404.017 50.4429 400.58 Q54.3665 397.142 54.3665 390.927 Q54.3665 388.149 53.6373 385.441 Q52.8734 382.698 51.3804 379.99 L57.2831 379.99 Q58.5331 382.663 59.1581 385.545 Q59.7831 388.392 59.7831 391.622 Q59.7831 400.406 54.2623 405.58 Q48.7415 410.753 39.3666 410.753 Q29.8527 410.753 24.4014 405.545 Q18.95 400.302 18.95 391.205 Q18.95 388.253 19.575 385.441 Q20.1653 382.628 21.3806 379.99 Z" fill="#000000" fill-rule="evenodd" fill-opacity="1" /><path clip-path="url(#clip900)" d="M27.3527 338.601 Q23.0472 336.205 20.9986 332.872 Q18.95 329.539 18.95 325.025 Q18.95 318.948 23.2208 315.65 Q27.4569 312.351 35.3041 312.351 L58.7762 312.351 L58.7762 318.775 L35.5124 318.775 Q29.9222 318.775 27.2139 320.754 Q24.5055 322.733 24.5055 326.795 Q24.5055 331.761 27.8041 334.643 Q31.1027 337.525 36.7971 337.525 L58.7762 337.525 L58.7762 343.948 L35.5124 343.948 Q29.8875 343.948 27.2139 345.927 Q24.5055 347.906 24.5055 352.038 Q24.5055 356.934 27.8389 359.816 Q31.1374 362.698 36.7971 362.698 L58.7762 362.698 L58.7762 369.122 L19.8875 369.122 L19.8875 362.698 L25.9291 362.698 Q22.3528 360.511 20.6514 357.455 Q18.95 354.399 18.95 350.198 Q18.95 345.962 21.1028 343.011 Q23.2555 340.025 27.3527 338.601 Z" fill="#000000" fill-rule="evenodd" fill-opacity="1" /><path clip-path="url(#clip900)" d="M21.45 301.553 L21.45 273.532 L24.7486 273.532 L24.7486 301.553 L21.45 301.553 Z" fill="#000000" fill-rule="evenodd" fill-opacity="1" /><path clip-path="url(#clip900)" d="M31.6236 259.469 L31.6236 244.747 L35.5819 244.747 L35.5819 265.511 L31.7624 265.511 Q30.6861 264.331 28.7416 262.143 Q18.1514 250.199 14.8875 250.199 Q12.5959 250.199 11.207 252.004 Q9.7834 253.81 9.7834 256.761 Q9.7834 258.567 10.4084 260.685 Q10.9987 262.803 12.2139 265.303 L7.94313 265.303 Q6.97091 262.629 6.4848 260.337 Q5.99869 258.011 5.99869 256.032 Q5.99869 250.997 8.29035 247.976 Q10.582 244.956 14.332 244.956 Q19.1583 244.956 29.0194 256.449 Q30.6861 258.393 31.6236 259.469 Z" fill="#000000" fill-rule="evenodd" fill-opacity="1" /><path clip-path="url(#clip900)" d="M73.5678 211.622 L19.8875 211.622 L19.8875 205.234 L44.054 205.234 Q49.0887 205.234 51.6582 202.838 Q54.2276 200.442 54.2276 195.755 Q54.2276 190.616 51.311 188.046 Q48.3943 185.442 42.561 185.442 L19.8875 185.442 L19.8875 179.053 L49.8179 179.053 Q51.9012 179.053 52.9082 178.463 Q53.8804 177.838 53.8804 176.553 Q53.8804 176.241 53.7068 175.685 Q53.4984 175.13 53.0818 174.157 L58.2206 174.157 Q59.0192 175.581 59.4012 176.866 Q59.7831 178.116 59.7831 179.331 Q59.7831 181.727 58.429 183.15 Q57.0748 184.574 54.297 185.095 Q57.0401 186.831 58.429 189.366 Q59.7831 191.866 59.7831 195.268 Q59.7831 198.81 58.429 201.31 Q57.0748 203.775 54.3665 205.234 L73.5678 205.234 L73.5678 211.622 Z" fill="#000000" fill-rule="evenodd" fill-opacity="1" /><path clip-path="url(#clip900)" d="M27.3527 135.442 Q23.0472 133.047 20.9986 129.713 Q18.95 126.38 18.95 121.866 Q18.95 115.79 23.2208 112.491 Q27.4569 109.192 35.3041 109.192 L58.7762 109.192 L58.7762 115.616 L35.5124 115.616 Q29.9222 115.616 27.2139 117.595 Q24.5055 119.574 24.5055 123.637 Q24.5055 128.602 27.8041 131.484 Q31.1027 134.366 36.7971 134.366 L58.7762 134.366 L58.7762 140.79 L35.5124 140.79 Q29.8875 140.79 27.2139 142.769 Q24.5055 144.748 24.5055 148.88 Q24.5055 153.776 27.8389 156.657 Q31.1374 159.539 36.7971 159.539 L58.7762 159.539 L58.7762 165.963 L19.8875 165.963 L19.8875 159.539 L25.9291 159.539 Q22.3528 157.352 20.6514 154.296 Q18.95 151.241 18.95 147.039 Q18.95 142.803 21.1028 139.852 Q23.2555 136.866 27.3527 135.442 Z" fill="#000000" fill-rule="evenodd" fill-opacity="1" /><path clip-path="url(#clip900)" d="M21.45 98.3939 L21.45 70.3732 L24.7486 70.3732 L24.7486 98.3939 L21.45 98.3939 Z" fill="#000000" fill-rule="evenodd" fill-opacity="1" /><path clip-path="url(#clip900)" d="M31.7624 60.1997 L31.7624 53.1164 L10.5473 53.1164 L11.9709 60.8594 L7.94313 60.8594 L6.58897 52.8733 L6.58897 48.1164 L31.7624 48.1164 L31.7624 40.9984 L35.5819 40.9984 L35.5819 60.1997 L31.7624 60.1997 Z" fill="#000000" fill-rule="evenodd" fill-opacity="1" /><path clip-path="url(#clip900)" d="M4.7487 15.4777 L68.1511 15.4777 L68.1511 30.1998 L63.1859 30.1998 L63.1859 21.9013 L9.71395 21.9013 L9.71395 30.1998 L4.7487 30.1998 L4.7487 15.4777 Z" fill="#000000" fill-rule="evenodd" fill-opacity="1" /><polyline clip-path="url(#clip902)" style="stroke:#808080; stroke-linecap:butt; stroke-linejoin:round; stroke-width:12; stroke-opacity:1; fill:none" points="
  207.883,1217.62 212.221,1162.91 216.592,1171.7 220.963,1167.14 225.334,1137.23 229.705,1145.68 234.077,1096.64 238.415,1025.48 242.786,999.906 247.157,1006.8 
  251.528,990.899 255.899,957.208 260.27,991.233 264.642,958.209 269.013,952.872 273.384,950.092 277.755,915.956 282.126,878.596 286.497,892.05 290.868,864.919 
  295.24,881.153 299.611,884.489 303.982,869.811 308.353,856.468 312.724,872.925 317.095,856.802 321.466,839.123 325.838,874.259 330.242,870.59 334.613,885.156 
  338.984,902.946 343.355,903.502 347.726,837.788 352.098,833.229 356.502,772.296 360.873,742.942 365.244,766.626 369.615,773.297 373.986,724.039 378.391,668.999 
  382.762,667.776 387.133,698.91 391.504,694.907 395.908,639.089 400.279,612.292 404.651,629.971 409.055,573.041 413.426,603.396 417.797,609.623 422.201,617.295 
  426.573,532.679 430.944,548.134 435.348,585.828 439.719,543.353 444.123,550.247 448.495,530.232 452.866,551.47 457.27,532.901 461.641,539.795 466.045,512.664 
  470.417,517.779 474.821,491.093 479.192,508.216 483.596,490.982 487.967,488.869 492.372,493.317 496.743,466.631 501.147,429.604 505.518,406.476 509.922,438.944 
  514.327,462.628 518.698,471.19 523.102,530.232 527.506,526.452 531.877,446.616 536.282,425.379 540.653,444.281 545.057,477.75 549.461,445.949 553.833,402.029 
  558.237,416.039 562.641,397.803 567.045,430.605 571.416,433.829 575.821,446.505 580.225,441.502 584.629,423.822 589,393.356 593.405,369.227 597.809,392.688 
  602.213,390.576 606.617,358.886 611.022,339.761 615.393,371.896 619.797,382.904 624.201,404.364 628.606,451.731 633.01,398.359 637.414,354.772 641.818,325.64 
  646.223,326.752 650.627,283.276 655.031,288.28 659.402,367.003 663.807,295.729 668.211,268.487 672.615,289.391 677.019,256.256 681.424,291.171 685.861,216.561 
  690.265,232.795 694.67,235.575 699.074,241.246 703.478,269.266 707.882,278.05 712.287,220.897 716.691,259.259 721.095,234.463 725.499,244.47 729.904,256.034 
  734.341,251.475 738.745,231.016 743.149,211.557 747.554,211.001 751.958,157.518 756.395,171.195 760.8,214.004 765.204,186.206 769.608,162.3 774.012,166.858 
  778.45,158.297 782.854,140.728 787.258,143.397 791.696,148.289 796.1,194.99 800.504,153.96 804.942,204.886 809.346,143.175 813.75,144.175 818.187,161.076 
  822.592,139.06 826.996,172.307 831.433,145.732 835.838,124.828 840.275,140.284 844.679,122.826 849.117,117.712 853.521,140.84 857.925,186.539 862.363,208.333 
  866.767,299.065 871.204,280.83 875.608,244.581 880.046,227.347 884.483,239.911 888.887,249.474 893.325,223.788 897.729,262.928 902.166,239.244 906.571,242.469 
  911.008,222.565 915.445,185.65 919.85,183.759 924.287,188.985 928.724,166.302 933.129,187.651 937.566,181.424 942.003,184.649 946.408,197.992 950.845,222.788 
  955.283,203.996 959.687,201.328 964.124,201.55 968.562,176.643 972.999,195.212 977.403,213.225 981.841,216.227 986.278,233.684 990.715,259.37 995.153,269.043 
  999.59,227.569 1003.99,276.604 1008.43,261.371 1012.87,207.554 1017.31,241.801 1021.74,205.553 1026.18,230.682 1030.62,179.645 1035.06,250.03 1039.49,243.358 
  1043.9,242.58 1048.33,261.705 1052.77,307.293 1057.21,283.609 1061.65,315.855 1066.08,320.303 1070.52,292.95 1074.96,345.321 1079.4,280.385 1083.83,345.21 
  1088.3,417.484 1092.74,385.795 1097.18,363 1101.62,352.437 1106.05,282.831 1110.49,320.192 1114.93,359.22 1119.37,334.424 1123.8,373.119 1128.27,389.797 
  1132.71,364.779 1137.15,362.444 1141.59,366.336 1146.02,335.202 1150.46,328.753 1154.93,340.651 1159.37,325.751 1163.81,350.213 1168.24,302.512 1172.71,284.721 
  1177.15,289.28 1181.59,319.413 1186.06,360.554 1190.5,430.382 1194.93,521.115 1199.4,416.039 1203.84,388.018 1208.28,308.961 1212.75,320.525 1217.19,323.75 
  1221.62,260.926 1226.09,214.782 1230.53,246.027 1235,277.494 1239.44,254.477 1243.91,257.479 1248.35,187.095 1252.82,204.552 1257.26,167.192 1261.73,140.728 
  1266.16,121.381 1270.63,115.043 1275.07,164.857 1279.54,151.18 1283.98,273.046 1288.45,338.316 1292.89,509.551 1297.36,543.909 1301.83,504.214 1306.27,413.926 
  1310.74,426.713 1315.17,492.65 1319.64,562.144 1324.11,532.79 1328.55,502.212 1333.02,526.674 1337.49,459.07 1341.93,442.391 1346.4,426.713 1350.87,418.596 
  1355.34,471.746 1359.78,415.483 1364.25,445.504 1368.72,391.91 1373.19,377.678 1377.63,398.359 1382.1,355.55 1386.57,372.118 1391.04,330.199 1395.51,378.122 
  1399.98,397.803 1404.42,399.249 1408.89,396.469 1413.36,366.225 1417.83,384.46 1422.3,417.818 1426.77,520.336 1431.24,721.037 1435.71,1064.29 1440.18,937.082 
  1444.65,938.194 1449.12,814.438 1453.59,627.303 1458.06,523.561 1462.53,515.222 1467,407.366 1471.48,459.737 1475.95,384.683 1480.42,393.467 1484.89,443.281 
  1489.36,387.574 1493.83,382.125 1498.3,396.803 1502.77,413.815 1507.24,404.364 1511.71,420.931 1516.21,337.76 1520.68,349.324 1525.15,356.44 1529.62,379.457 
  1534.1,346.433 1538.57,333.646 1543.07,346.433 1547.54,436.164 1552.01,319.08 1556.48,382.014 1560.98,308.516 1565.45,302.178 1569.93,331.533 1574.4,319.747 
  1578.9,339.872 1583.37,326.085 1587.84,287.056 1592.34,302.734 1596.81,398.47 1601.28,418.485 1605.79,389.241 1610.26,534.569 1614.73,560.476 1619.23,652.21 
  1623.7,660.438 1628.21,560.699 1632.68,616.517 1637.18,591.61 1641.65,604.508 1646.12,565.035 1650.63,580.269 1655.1,485.645 1659.6,646.65 1664.07,593.167 
  1668.57,690.348 1673.08,664.107 1677.55,702.579 1682.05,623.189 1686.52,577.378 1691.03,576.154 1695.5,677.672 1700,566.37 1704.5,514.888 1708.97,592.055 
  1713.48,637.643 1717.98,612.292 1722.45,599.505 1726.96,609.401 1731.46,669.555 1735.93,678.562 1740.43,730.044 1744.94,692.016 1749.41,675.56 1753.91,709.918 
  1758.41,669.444 1762.92,697.02 1767.39,656.435 1771.89,719.925 1776.4,714.032 1780.9,720.036 1785.4,724.595 1789.87,816.662 1794.38,736.937 1798.88,771.296 
  1803.38,728.821 1807.89,692.794 1812.39,688.792 1816.89,716.701 1821.4,713.365 1825.87,713.698 1830.37,775.521 1834.88,794.201 1839.38,819.664 1843.88,717.145 
  1848.39,820.665 1852.89,828.893 1857.39,833.452 1861.9,832.673 1866.4,894.941 1870.91,879.596 1875.41,911.397 1879.91,948.98 1884.42,1033.6 1888.92,956.763 
  1893.46,1033.71 1897.96,977.222 1902.46,999.794 1906.97,998.015 1911.47,878.707 1915.97,903.169 1920.48,997.459 1924.98,1049.83 1929.52,977.445 1934.02,988.898 
  1938.53,1023.92 1943.03,1053.94 1947.53,1093.97 1952.07,1037.71 1956.57,1015.58 1961.08,915.066 1965.58,897.276 1970.12,1177.81 1974.62,1032.15 1979.12,994.235 
  1983.66,1036.93 1988.16,1114.43 1992.67,1160.35 1997.2,1166.8 2001.71,1196.49 2006.21,1289.56 2010.75,1203.5 2015.25,1148.46 2019.79,1257.54 2024.29,1248.75 
  2028.8,1277.33 2033.33,1182.59 2037.84,1177.03 2042.37,1201.83 2046.88,1206.83 2051.41,1162.8 2055.92,1114.32 2060.45,1325.14 2064.96,1233.19 2069.49,1283.11 
  2074,1164.58 2078.53,1264.76 2083.04,1041.49 2087.57,1225.29 2092.11,1245.42 2096.62,1126.89 2101.15,1108.21 2105.66,1221.07 2110.19,939.751 2114.73,1170.58 
  2119.23,1126.11 2123.77,1242.64 2128.31,1239.63 2132.81,1171.25 2137.35,1203.61 2141.88,1165.36 2146.39,1145.79 2150.92,956.096 2155.46,1141.01 2160,1270.66 
  2164.5,1083.08 2169.04,1110.21 2173.57,1061.62 2178.11,1238.63 2182.65,1075.07 2187.15,1016.58 2191.69,1165.8 2196.22,886.268 2200.76,1162.36 2205.3,1183.26 
  2209.83,952.316 2214.37,1152.79 2218.91,830.783 2223.41,1017.58 2227.95,885.267 2232.48,886.379 2237.02,773.631 2241.56,767.738 2246.1,865.03 2250.63,806.321 
  2255.17,768.627 2259.71,1050.5 
  "/>
</svg>
