<?xml version="1.0" encoding="UTF-8" standalone="no"?>
<svg
   width="600"
   height="400"
   viewBox="0 0 2400 1600"
   version="1.1"
   id="svg143"
   sodipodi:docname="reflectance_rainbow.svg"
   inkscape:version="1.1.1 (3bf5ae0d25, 2021-09-20)"
   xmlns:inkscape="http://www.inkscape.org/namespaces/inkscape"
   xmlns:sodipodi="http://sodipodi.sourceforge.net/DTD/sodipodi-0.dtd"
   xmlns:xlink="http://www.w3.org/1999/xlink"
   xmlns="http://www.w3.org/2000/svg"
   xmlns:svg="http://www.w3.org/2000/svg">
  <sodipodi:namedview
     id="namedview145"
     pagecolor="#ffffff"
     bordercolor="#666666"
     borderopacity="1.0"
     inkscape:pageshadow="2"
     inkscape:pageopacity="0.0"
     inkscape:pagecheckerboard="0"
     showgrid="false"
     inkscape:zoom="1.4919953"
     inkscape:cx="328.08414"
     inkscape:cy="211.79691"
     inkscape:window-width="1864"
     inkscape:window-height="1043"
     inkscape:window-x="56"
     inkscape:window-y="0"
     inkscape:window-maximized="1"
     inkscape:current-layer="svg143" />
  <defs
     id="defs5">
    <linearGradient
       inkscape:collect="always"
       id="linearGradient4142">
      <stop
         style="stop-color:#0000ff;stop-opacity:1"
         offset="0"
         id="stop4138" />
      <stop
         style="stop-color:#00ff00;stop-opacity:1"
         offset="0.22352399"
         id="stop4722" />
      <stop
         style="stop-color:#ff0000;stop-opacity:1"
         offset="0.43258679"
         id="stop4852" />
      <stop
         style="stop-color:#2b0000;stop-opacity:1"
         offset="1"
         id="stop4140" />
    </linearGradient>
    <clipPath
       id="clip940">
      <rect
         x="0"
         y="0"
         width="2400"
         height="1600"
         id="rect2" />
    </clipPath>
    <linearGradient
       inkscape:collect="always"
       xlink:href="#linearGradient4142"
       id="linearGradient4144"
       x1="210.28939"
       y1="720.09217"
       x2="2265.9494"
       y2="720.09217"
       gradientUnits="userSpaceOnUse" />
  </defs>
  <path
     clip-path="url(#clip940)"
     d=" M0 1600 L2400 1600 L2400 0 L0 0  Z   "
     fill="#ffffff"
     fill-rule="evenodd"
     fill-opacity="1"
     id="path7" />
  <defs
     id="defs12">
    <clipPath
       id="clip941">
      <rect
         x="480"
         y="0"
         width="1681"
         height="1600"
         id="rect9" />
    </clipPath>
  </defs>
  <defs
     id="defs19">
    <clipPath
       id="clip942">
      <rect
         x="154"
         y="78"
         width="2167"
         height="1284"
         id="rect16" />
    </clipPath>
  </defs>
  <polyline
     clip-path="url(#clip942)"
     style="stroke:#000000; stroke-linecap:butt; stroke-linejoin:round; stroke-width:2; stroke-opacity:0.1; fill:none"
     points="   246.095,1361.44 246.095,78.7402    "
     id="polyline21" />
  <polyline
     clip-path="url(#clip942)"
     style="stroke:#000000; stroke-linecap:butt; stroke-linejoin:round; stroke-width:2; stroke-opacity:0.1; fill:none"
     points="   575.927,1361.44 575.927,78.7402    "
     id="polyline23" />
  <polyline
     clip-path="url(#clip942)"
     style="stroke:#000000; stroke-linecap:butt; stroke-linejoin:round; stroke-width:2; stroke-opacity:0.1; fill:none"
     points="   905.759,1361.44 905.759,78.7402    "
     id="polyline25" />
  <polyline
     clip-path="url(#clip942)"
     style="stroke:#000000; stroke-linecap:butt; stroke-linejoin:round; stroke-width:2; stroke-opacity:0.1; fill:none"
     points="   1235.59,1361.44 1235.59,78.7402    "
     id="polyline27" />
  <polyline
     clip-path="url(#clip942)"
     style="stroke:#000000; stroke-linecap:butt; stroke-linejoin:round; stroke-width:2; stroke-opacity:0.1; fill:none"
     points="   1565.42,1361.44 1565.42,78.7402    "
     id="polyline29" />
  <polyline
     clip-path="url(#clip942)"
     style="stroke:#000000; stroke-linecap:butt; stroke-linejoin:round; stroke-width:2; stroke-opacity:0.1; fill:none"
     points="   1895.25,1361.44 1895.25,78.7402    "
     id="polyline31" />
  <polyline
     clip-path="url(#clip942)"
     style="stroke:#000000; stroke-linecap:butt; stroke-linejoin:round; stroke-width:2; stroke-opacity:0.1; fill:none"
     points="   2225.09,1361.44 2225.09,78.7402    "
     id="polyline33" />
  <polyline
     clip-path="url(#clip940)"
     style="stroke:#000000; stroke-linecap:butt; stroke-linejoin:round; stroke-width:4; stroke-opacity:1; fill:none"
     points="   154.968,1361.44 2321.26,1361.44    "
     id="polyline35" />
  <polyline
     clip-path="url(#clip940)"
     style="stroke:#000000; stroke-linecap:butt; stroke-linejoin:round; stroke-width:4; stroke-opacity:1; fill:none"
     points="   246.095,1361.44 246.095,1342.55    "
     id="polyline37" />
  <polyline
     clip-path="url(#clip940)"
     style="stroke:#000000; stroke-linecap:butt; stroke-linejoin:round; stroke-width:4; stroke-opacity:1; fill:none"
     points="   575.927,1361.44 575.927,1342.55    "
     id="polyline39" />
  <polyline
     clip-path="url(#clip940)"
     style="stroke:#000000; stroke-linecap:butt; stroke-linejoin:round; stroke-width:4; stroke-opacity:1; fill:none"
     points="   905.759,1361.44 905.759,1342.55    "
     id="polyline41" />
  <polyline
     clip-path="url(#clip940)"
     style="stroke:#000000; stroke-linecap:butt; stroke-linejoin:round; stroke-width:4; stroke-opacity:1; fill:none"
     points="   1235.59,1361.44 1235.59,1342.55    "
     id="polyline43" />
  <polyline
     clip-path="url(#clip940)"
     style="stroke:#000000; stroke-linecap:butt; stroke-linejoin:round; stroke-width:4; stroke-opacity:1; fill:none"
     points="   1565.42,1361.44 1565.42,1342.55    "
     id="polyline45" />
  <polyline
     clip-path="url(#clip940)"
     style="stroke:#000000; stroke-linecap:butt; stroke-linejoin:round; stroke-width:4; stroke-opacity:1; fill:none"
     points="   1895.25,1361.44 1895.25,1342.55    "
     id="polyline47" />
  <polyline
     clip-path="url(#clip940)"
     style="stroke:#000000; stroke-linecap:butt; stroke-linejoin:round; stroke-width:4; stroke-opacity:1; fill:none"
     points="   2225.09,1361.44 2225.09,1342.55    "
     id="polyline49" />
  <path
     clip-path="url(#clip940)"
     d="M205.731 1399.71 L188.023 1427.39 L205.731 1427.39 L205.731 1399.71 M203.89 1393.6 L212.71 1393.6 L212.71 1427.39 L220.106 1427.39 L220.106 1433.22 L212.71 1433.22 L212.71 1445.44 L205.731 1445.44 L205.731 1433.22 L182.328 1433.22 L182.328 1426.45 L203.89 1393.6 Z"
     fill="#000000"
     fill-rule="evenodd"
     fill-opacity="1"
     id="path51" />
  <path
     clip-path="url(#clip940)"
     d="M246.703 1398.22 Q241.286 1398.22 238.543 1403.57 Q235.835 1408.88 235.835 1419.58 Q235.835 1430.24 238.543 1435.58 Q241.286 1440.9 246.703 1440.9 Q252.154 1440.9 254.862 1435.58 Q257.605 1430.24 257.605 1419.58 Q257.605 1408.88 254.862 1403.57 Q252.154 1398.22 246.703 1398.22 M246.703 1392.67 Q255.418 1392.67 260.001 1399.58 Q264.619 1406.45 264.619 1419.58 Q264.619 1432.67 260.001 1439.58 Q255.418 1446.45 246.703 1446.45 Q237.988 1446.45 233.37 1439.58 Q228.786 1432.67 228.786 1419.58 Q228.786 1406.45 233.37 1399.58 Q237.988 1392.67 246.703 1392.67 Z"
     fill="#000000"
     fill-rule="evenodd"
     fill-opacity="1"
     id="path53" />
  <path
     clip-path="url(#clip940)"
     d="M291.946 1398.22 Q286.529 1398.22 283.786 1403.57 Q281.078 1408.88 281.078 1419.58 Q281.078 1430.24 283.786 1435.58 Q286.529 1440.9 291.946 1440.9 Q297.397 1440.9 300.105 1435.58 Q302.848 1430.24 302.848 1419.58 Q302.848 1408.88 300.105 1403.57 Q297.397 1398.22 291.946 1398.22 M291.946 1392.67 Q300.661 1392.67 305.244 1399.58 Q309.862 1406.45 309.862 1419.58 Q309.862 1432.67 305.244 1439.58 Q300.661 1446.45 291.946 1446.45 Q283.23 1446.45 278.612 1439.58 Q274.029 1432.67 274.029 1419.58 Q274.029 1406.45 278.612 1399.58 Q283.23 1392.67 291.946 1392.67 Z"
     fill="#000000"
     fill-rule="evenodd"
     fill-opacity="1"
     id="path55" />
  <path
     clip-path="url(#clip940)"
     d="M515.354 1393.6 L542.889 1393.6 L542.889 1399.51 L521.778 1399.51 L521.778 1412.21 Q523.306 1411.69 524.834 1411.45 Q526.361 1411.17 527.889 1411.17 Q536.57 1411.17 541.639 1415.93 Q546.708 1420.69 546.708 1428.81 Q546.708 1437.18 541.5 1441.83 Q536.292 1446.45 526.813 1446.45 Q523.549 1446.45 520.146 1445.9 Q516.778 1445.34 513.167 1444.23 L513.167 1437.18 Q516.292 1438.88 519.625 1439.71 Q522.959 1440.55 526.674 1440.55 Q532.681 1440.55 536.188 1437.39 Q539.695 1434.23 539.695 1428.81 Q539.695 1423.4 536.188 1420.24 Q532.681 1417.08 526.674 1417.08 Q523.861 1417.08 521.049 1417.7 Q518.271 1418.33 515.354 1419.65 L515.354 1393.6 Z"
     fill="#000000"
     fill-rule="evenodd"
     fill-opacity="1"
     id="path57" />
  <path
     clip-path="url(#clip940)"
     d="M575.528 1398.22 Q570.111 1398.22 567.368 1403.57 Q564.66 1408.88 564.66 1419.58 Q564.66 1430.24 567.368 1435.58 Q570.111 1440.9 575.528 1440.9 Q580.979 1440.9 583.687 1435.58 Q586.43 1430.24 586.43 1419.58 Q586.43 1408.88 583.687 1403.57 Q580.979 1398.22 575.528 1398.22 M575.528 1392.67 Q584.243 1392.67 588.826 1399.58 Q593.444 1406.45 593.444 1419.58 Q593.444 1432.67 588.826 1439.58 Q584.243 1446.45 575.528 1446.45 Q566.812 1446.45 562.194 1439.58 Q557.611 1432.67 557.611 1419.58 Q557.611 1406.45 562.194 1399.58 Q566.812 1392.67 575.528 1392.67 Z"
     fill="#000000"
     fill-rule="evenodd"
     fill-opacity="1"
     id="path59" />
  <path
     clip-path="url(#clip940)"
     d="M620.771 1398.22 Q615.354 1398.22 612.611 1403.57 Q609.903 1408.88 609.903 1419.58 Q609.903 1430.24 612.611 1435.58 Q615.354 1440.9 620.771 1440.9 Q626.222 1440.9 628.93 1435.58 Q631.673 1430.24 631.673 1419.58 Q631.673 1408.88 628.93 1403.57 Q626.222 1398.22 620.771 1398.22 M620.771 1392.67 Q629.486 1392.67 634.069 1399.58 Q638.687 1406.45 638.687 1419.58 Q638.687 1432.67 634.069 1439.58 Q629.486 1446.45 620.771 1446.45 Q612.055 1446.45 607.437 1439.58 Q602.854 1432.67 602.854 1419.58 Q602.854 1406.45 607.437 1399.58 Q612.055 1392.67 620.771 1392.67 Z"
     fill="#000000"
     fill-rule="evenodd"
     fill-opacity="1"
     id="path61" />
  <path
     clip-path="url(#clip940)"
     d="M861.245 1416.73 Q856.523 1416.73 853.745 1419.96 Q851.002 1423.19 851.002 1428.81 Q851.002 1434.4 853.745 1437.67 Q856.523 1440.9 861.245 1440.9 Q865.967 1440.9 868.71 1437.67 Q871.488 1434.4 871.488 1428.81 Q871.488 1423.19 868.71 1419.96 Q865.967 1416.73 861.245 1416.73 M875.169 1394.75 L875.169 1401.14 Q872.53 1399.89 869.822 1399.23 Q867.148 1398.57 864.509 1398.57 Q857.565 1398.57 853.884 1403.26 Q850.238 1407.94 849.718 1417.42 Q851.766 1414.4 854.856 1412.81 Q857.947 1411.17 861.662 1411.17 Q869.474 1411.17 873.988 1415.93 Q878.537 1420.65 878.537 1428.81 Q878.537 1436.8 873.815 1441.62 Q869.092 1446.45 861.245 1446.45 Q852.252 1446.45 847.495 1439.58 Q842.738 1432.67 842.738 1419.58 Q842.738 1407.28 848.572 1399.99 Q854.405 1392.67 864.231 1392.67 Q866.87 1392.67 869.544 1393.19 Q872.252 1393.71 875.169 1394.75 Z"
     fill="#000000"
     fill-rule="evenodd"
     fill-opacity="1"
     id="path63" />
  <path
     clip-path="url(#clip940)"
     d="M905.62 1398.22 Q900.203 1398.22 897.46 1403.57 Q894.752 1408.88 894.752 1419.58 Q894.752 1430.24 897.46 1435.58 Q900.203 1440.9 905.62 1440.9 Q911.071 1440.9 913.78 1435.58 Q916.523 1430.24 916.523 1419.58 Q916.523 1408.88 913.78 1403.57 Q911.071 1398.22 905.62 1398.22 M905.62 1392.67 Q914.335 1392.67 918.919 1399.58 Q923.537 1406.45 923.537 1419.58 Q923.537 1432.67 918.919 1439.58 Q914.335 1446.45 905.62 1446.45 Q896.905 1446.45 892.287 1439.58 Q887.703 1432.67 887.703 1419.58 Q887.703 1406.45 892.287 1399.58 Q896.905 1392.67 905.62 1392.67 Z"
     fill="#000000"
     fill-rule="evenodd"
     fill-opacity="1"
     id="path65" />
  <path
     clip-path="url(#clip940)"
     d="M950.863 1398.22 Q945.446 1398.22 942.703 1403.57 Q939.995 1408.88 939.995 1419.58 Q939.995 1430.24 942.703 1435.58 Q945.446 1440.9 950.863 1440.9 Q956.314 1440.9 959.023 1435.58 Q961.766 1430.24 961.766 1419.58 Q961.766 1408.88 959.023 1403.57 Q956.314 1398.22 950.863 1398.22 M950.863 1392.67 Q959.578 1392.67 964.161 1399.58 Q968.779 1406.45 968.779 1419.58 Q968.779 1432.67 964.161 1439.58 Q959.578 1446.45 950.863 1446.45 Q942.148 1446.45 937.53 1439.58 Q932.946 1432.67 932.946 1419.58 Q932.946 1406.45 937.53 1399.58 Q942.148 1392.67 950.863 1392.67 Z"
     fill="#000000"
     fill-rule="evenodd"
     fill-opacity="1"
     id="path67" />
  <path
     clip-path="url(#clip940)"
     d="M1173 1393.6 L1206.34 1393.6 L1206.34 1396.59 L1187.52 1445.44 L1180.19 1445.44 L1197.9 1399.51 L1173 1399.51 L1173 1393.6 Z"
     fill="#000000"
     fill-rule="evenodd"
     fill-opacity="1"
     id="path69" />
  <path
     clip-path="url(#clip940)"
     d="M1235.02 1398.22 Q1229.6 1398.22 1226.86 1403.57 Q1224.15 1408.88 1224.15 1419.58 Q1224.15 1430.24 1226.86 1435.58 Q1229.6 1440.9 1235.02 1440.9 Q1240.47 1440.9 1243.18 1435.58 Q1245.92 1430.24 1245.92 1419.58 Q1245.92 1408.88 1243.18 1403.57 Q1240.47 1398.22 1235.02 1398.22 M1235.02 1392.67 Q1243.73 1392.67 1248.32 1399.58 Q1252.93 1406.45 1252.93 1419.58 Q1252.93 1432.67 1248.32 1439.58 Q1243.73 1446.45 1235.02 1446.45 Q1226.3 1446.45 1221.68 1439.58 Q1217.1 1432.67 1217.1 1419.58 Q1217.1 1406.45 1221.68 1399.58 Q1226.3 1392.67 1235.02 1392.67 Z"
     fill="#000000"
     fill-rule="evenodd"
     fill-opacity="1"
     id="path71" />
  <path
     clip-path="url(#clip940)"
     d="M1280.26 1398.22 Q1274.84 1398.22 1272.1 1403.57 Q1269.39 1408.88 1269.39 1419.58 Q1269.39 1430.24 1272.1 1435.58 Q1274.84 1440.9 1280.26 1440.9 Q1285.71 1440.9 1288.42 1435.58 Q1291.16 1430.24 1291.16 1419.58 Q1291.16 1408.88 1288.42 1403.57 Q1285.71 1398.22 1280.26 1398.22 M1280.26 1392.67 Q1288.98 1392.67 1293.56 1399.58 Q1298.18 1406.45 1298.18 1419.58 Q1298.18 1432.67 1293.56 1439.58 Q1288.98 1446.45 1280.26 1446.45 Q1271.55 1446.45 1266.93 1439.58 Q1262.34 1432.67 1262.34 1419.58 Q1262.34 1406.45 1266.93 1399.58 Q1271.55 1392.67 1280.26 1392.67 Z"
     fill="#000000"
     fill-rule="evenodd"
     fill-opacity="1"
     id="path73" />
  <path
     clip-path="url(#clip940)"
     d="M1520.11 1420.83 Q1515.11 1420.83 1512.23 1423.5 Q1509.38 1426.17 1509.38 1430.86 Q1509.38 1435.55 1512.23 1438.22 Q1515.11 1440.9 1520.11 1440.9 Q1525.11 1440.9 1527.99 1438.22 Q1530.87 1435.51 1530.87 1430.86 Q1530.87 1426.17 1527.99 1423.5 Q1525.15 1420.83 1520.11 1420.83 M1513.1 1417.84 Q1508.58 1416.73 1506.05 1413.64 Q1503.55 1410.55 1503.55 1406.1 Q1503.55 1399.89 1507.96 1396.28 Q1512.4 1392.67 1520.11 1392.67 Q1527.85 1392.67 1532.26 1396.28 Q1536.67 1399.89 1536.67 1406.1 Q1536.67 1410.55 1534.14 1413.64 Q1531.64 1416.73 1527.16 1417.84 Q1532.23 1419.02 1535.04 1422.46 Q1537.89 1425.9 1537.89 1430.86 Q1537.89 1438.4 1533.27 1442.42 Q1528.69 1446.45 1520.11 1446.45 Q1511.53 1446.45 1506.92 1442.42 Q1502.33 1438.4 1502.33 1430.86 Q1502.33 1425.9 1505.18 1422.46 Q1508.03 1419.02 1513.1 1417.84 M1510.53 1406.76 Q1510.53 1410.79 1513.03 1413.05 Q1515.56 1415.31 1520.11 1415.31 Q1524.62 1415.31 1527.16 1413.05 Q1529.73 1410.79 1529.73 1406.76 Q1529.73 1402.74 1527.16 1400.48 Q1524.62 1398.22 1520.11 1398.22 Q1515.56 1398.22 1513.03 1400.48 Q1510.53 1402.74 1510.53 1406.76 Z"
     fill="#000000"
     fill-rule="evenodd"
     fill-opacity="1"
     id="path75" />
  <path
     clip-path="url(#clip940)"
     d="M1565.35 1398.22 Q1559.94 1398.22 1557.19 1403.57 Q1554.49 1408.88 1554.49 1419.58 Q1554.49 1430.24 1557.19 1435.58 Q1559.94 1440.9 1565.35 1440.9 Q1570.8 1440.9 1573.51 1435.58 Q1576.26 1430.24 1576.26 1419.58 Q1576.26 1408.88 1573.51 1403.57 Q1570.8 1398.22 1565.35 1398.22 M1565.35 1392.67 Q1574.07 1392.67 1578.65 1399.58 Q1583.27 1406.45 1583.27 1419.58 Q1583.27 1432.67 1578.65 1439.58 Q1574.07 1446.45 1565.35 1446.45 Q1556.64 1446.45 1552.02 1439.58 Q1547.44 1432.67 1547.44 1419.58 Q1547.44 1406.45 1552.02 1399.58 Q1556.64 1392.67 1565.35 1392.67 Z"
     fill="#000000"
     fill-rule="evenodd"
     fill-opacity="1"
     id="path77" />
  <path
     clip-path="url(#clip940)"
     d="M1610.6 1398.22 Q1605.18 1398.22 1602.44 1403.57 Q1599.73 1408.88 1599.73 1419.58 Q1599.73 1430.24 1602.44 1435.58 Q1605.18 1440.9 1610.6 1440.9 Q1616.05 1440.9 1618.76 1435.58 Q1621.5 1430.24 1621.5 1419.58 Q1621.5 1408.88 1618.76 1403.57 Q1616.05 1398.22 1610.6 1398.22 M1610.6 1392.67 Q1619.31 1392.67 1623.89 1399.58 Q1628.51 1406.45 1628.51 1419.58 Q1628.51 1432.67 1623.89 1439.58 Q1619.31 1446.45 1610.6 1446.45 Q1601.88 1446.45 1597.26 1439.58 Q1592.68 1432.67 1592.68 1419.58 Q1592.68 1406.45 1597.26 1399.58 Q1601.88 1392.67 1610.6 1392.67 Z"
     fill="#000000"
     fill-rule="evenodd"
     fill-opacity="1"
     id="path79" />
  <path
     clip-path="url(#clip940)"
     d="M1835.32 1444.37 L1835.32 1437.98 Q1837.96 1439.23 1840.67 1439.89 Q1843.38 1440.55 1845.98 1440.55 Q1852.93 1440.55 1856.57 1435.9 Q1860.25 1431.21 1860.78 1421.69 Q1858.76 1424.68 1855.67 1426.28 Q1852.58 1427.87 1848.83 1427.87 Q1841.05 1427.87 1836.5 1423.19 Q1831.99 1418.46 1831.99 1410.31 Q1831.99 1402.32 1836.71 1397.49 Q1841.44 1392.67 1849.28 1392.67 Q1858.28 1392.67 1863 1399.58 Q1867.75 1406.45 1867.75 1419.58 Q1867.75 1431.83 1861.92 1439.16 Q1856.12 1446.45 1846.3 1446.45 Q1843.66 1446.45 1840.95 1445.93 Q1838.24 1445.41 1835.32 1444.37 M1849.28 1422.39 Q1854 1422.39 1856.75 1419.16 Q1859.53 1415.93 1859.53 1410.31 Q1859.53 1404.71 1856.75 1401.49 Q1854 1398.22 1849.28 1398.22 Q1844.56 1398.22 1841.78 1401.49 Q1839.04 1404.71 1839.04 1410.31 Q1839.04 1415.93 1841.78 1419.16 Q1844.56 1422.39 1849.28 1422.39 Z"
     fill="#000000"
     fill-rule="evenodd"
     fill-opacity="1"
     id="path81" />
  <path
     clip-path="url(#clip940)"
     d="M1895.36 1398.22 Q1889.94 1398.22 1887.2 1403.57 Q1884.49 1408.88 1884.49 1419.58 Q1884.49 1430.24 1887.2 1435.58 Q1889.94 1440.9 1895.36 1440.9 Q1900.81 1440.9 1903.52 1435.58 Q1906.26 1430.24 1906.26 1419.58 Q1906.26 1408.88 1903.52 1403.57 Q1900.81 1398.22 1895.36 1398.22 M1895.36 1392.67 Q1904.07 1392.67 1908.66 1399.58 Q1913.28 1406.45 1913.28 1419.58 Q1913.28 1432.67 1908.66 1439.58 Q1904.07 1446.45 1895.36 1446.45 Q1886.64 1446.45 1882.03 1439.58 Q1877.44 1432.67 1877.44 1419.58 Q1877.44 1406.45 1882.03 1399.58 Q1886.64 1392.67 1895.36 1392.67 Z"
     fill="#000000"
     fill-rule="evenodd"
     fill-opacity="1"
     id="path83" />
  <path
     clip-path="url(#clip940)"
     d="M1940.6 1398.22 Q1935.18 1398.22 1932.44 1403.57 Q1929.73 1408.88 1929.73 1419.58 Q1929.73 1430.24 1932.44 1435.58 Q1935.18 1440.9 1940.6 1440.9 Q1946.05 1440.9 1948.76 1435.58 Q1951.5 1430.24 1951.5 1419.58 Q1951.5 1408.88 1948.76 1403.57 Q1946.05 1398.22 1940.6 1398.22 M1940.6 1392.67 Q1949.32 1392.67 1953.9 1399.58 Q1958.52 1406.45 1958.52 1419.58 Q1958.52 1432.67 1953.9 1439.58 Q1949.32 1446.45 1940.6 1446.45 Q1931.89 1446.45 1927.27 1439.58 Q1922.68 1432.67 1922.68 1419.58 Q1922.68 1406.45 1927.27 1399.58 Q1931.89 1392.67 1940.6 1392.67 Z"
     fill="#000000"
     fill-rule="evenodd"
     fill-opacity="1"
     id="path85" />
  <path
     clip-path="url(#clip940)"
     d="M2141.88 1439.54 L2153.33 1439.54 L2153.33 1399.99 L2140.87 1402.49 L2140.87 1396.1 L2153.26 1393.6 L2160.28 1393.6 L2160.28 1439.54 L2171.74 1439.54 L2171.74 1445.44 L2141.88 1445.44 L2141.88 1439.54 Z"
     fill="#000000"
     fill-rule="evenodd"
     fill-opacity="1"
     id="path87" />
  <path
     clip-path="url(#clip940)"
     d="M2200.9 1398.22 Q2195.49 1398.22 2192.74 1403.57 Q2190.03 1408.88 2190.03 1419.58 Q2190.03 1430.24 2192.74 1435.58 Q2195.49 1440.9 2200.9 1440.9 Q2206.35 1440.9 2209.06 1435.58 Q2211.81 1430.24 2211.81 1419.58 Q2211.81 1408.88 2209.06 1403.57 Q2206.35 1398.22 2200.9 1398.22 M2200.9 1392.67 Q2209.62 1392.67 2214.2 1399.58 Q2218.82 1406.45 2218.82 1419.58 Q2218.82 1432.67 2214.2 1439.58 Q2209.62 1446.45 2200.9 1446.45 Q2192.19 1446.45 2187.57 1439.58 Q2182.99 1432.67 2182.99 1419.58 Q2182.99 1406.45 2187.57 1399.58 Q2192.19 1392.67 2200.9 1392.67 Z"
     fill="#000000"
     fill-rule="evenodd"
     fill-opacity="1"
     id="path89" />
  <path
     clip-path="url(#clip940)"
     d="M2246.15 1398.22 Q2240.73 1398.22 2237.99 1403.57 Q2235.28 1408.88 2235.28 1419.58 Q2235.28 1430.24 2237.99 1435.58 Q2240.73 1440.9 2246.15 1440.9 Q2251.6 1440.9 2254.31 1435.58 Q2257.05 1430.24 2257.05 1419.58 Q2257.05 1408.88 2254.31 1403.57 Q2251.6 1398.22 2246.15 1398.22 M2246.15 1392.67 Q2254.86 1392.67 2259.44 1399.58 Q2264.06 1406.45 2264.06 1419.58 Q2264.06 1432.67 2259.44 1439.58 Q2254.86 1446.45 2246.15 1446.45 Q2237.43 1446.45 2232.81 1439.58 Q2228.23 1432.67 2228.23 1419.58 Q2228.23 1406.45 2232.81 1399.58 Q2237.43 1392.67 2246.15 1392.67 Z"
     fill="#000000"
     fill-rule="evenodd"
     fill-opacity="1"
     id="path91" />
  <path
     clip-path="url(#clip940)"
     d="M2291.39 1398.22 Q2285.97 1398.22 2283.23 1403.57 Q2280.52 1408.88 2280.52 1419.58 Q2280.52 1430.24 2283.23 1435.58 Q2285.97 1440.9 2291.39 1440.9 Q2296.84 1440.9 2299.55 1435.58 Q2302.29 1430.24 2302.29 1419.58 Q2302.29 1408.88 2299.55 1403.57 Q2296.84 1398.22 2291.39 1398.22 M2291.39 1392.67 Q2300.1 1392.67 2304.69 1399.58 Q2309.3 1406.45 2309.3 1419.58 Q2309.3 1432.67 2304.69 1439.58 Q2300.1 1446.45 2291.39 1446.45 Q2282.67 1446.45 2278.05 1439.58 Q2273.47 1432.67 2273.47 1419.58 Q2273.47 1406.45 2278.05 1399.58 Q2282.67 1392.67 2291.39 1392.67 Z"
     fill="#000000"
     fill-rule="evenodd"
     fill-opacity="1"
     id="path93" />
  <path
     clip-path="url(#clip940)"
     d="M1129.33 1491.84 L1150.27 1547.78 L1142.37 1547.78 L1129.65 1514.24 L1114.01 1547.78 L1106.12 1547.78 L1126.01 1504.27 L1123.01 1496.25 Q1121.1 1491.15 1116.77 1491.15 L1112.88 1491.15 L1112.88 1484.75 L1117.62 1484.83 Q1126.77 1484.95 1129.33 1491.84 Z"
     fill="#000000"
     fill-rule="evenodd"
     fill-opacity="1"
     id="path95" />
  <path
     clip-path="url(#clip940)"
     d="M1186.24 1484.75 L1203.42 1484.75 L1203.42 1490.54 L1193.7 1490.54 L1193.7 1552.92 L1203.42 1552.92 L1203.42 1558.72 L1186.24 1558.72 L1186.24 1484.75 Z"
     fill="#000000"
     fill-rule="evenodd"
     fill-opacity="1"
     id="path97" />
  <path
     clip-path="url(#clip940)"
     d="M1257.01 1520.4 L1257.01 1547.78 L1249.56 1547.78 L1249.56 1520.64 Q1249.56 1514.2 1247.05 1511 Q1244.53 1507.8 1239.51 1507.8 Q1233.48 1507.8 1229.99 1511.65 Q1226.51 1515.49 1226.51 1522.14 L1226.51 1547.78 L1219.01 1547.78 L1219.01 1502.41 L1226.51 1502.41 L1226.51 1509.46 Q1229.18 1505.37 1232.79 1503.34 Q1236.43 1501.32 1241.17 1501.32 Q1248.99 1501.32 1253 1506.18 Q1257.01 1511 1257.01 1520.4 Z"
     fill="#000000"
     fill-rule="evenodd"
     fill-opacity="1"
     id="path99" />
  <path
     clip-path="url(#clip940)"
     d="M1307.2 1511.12 Q1310 1506.1 1313.89 1503.71 Q1317.78 1501.32 1323.04 1501.32 Q1330.13 1501.32 1333.98 1506.3 Q1337.83 1511.24 1337.83 1520.4 L1337.83 1547.78 L1330.33 1547.78 L1330.33 1520.64 Q1330.33 1514.12 1328.02 1510.96 Q1325.71 1507.8 1320.98 1507.8 Q1315.18 1507.8 1311.82 1511.65 Q1308.46 1515.49 1308.46 1522.14 L1308.46 1547.78 L1300.96 1547.78 L1300.96 1520.64 Q1300.96 1514.08 1298.65 1510.96 Q1296.35 1507.8 1291.53 1507.8 Q1285.81 1507.8 1282.45 1511.69 Q1279.09 1515.53 1279.09 1522.14 L1279.09 1547.78 L1271.59 1547.78 L1271.59 1502.41 L1279.09 1502.41 L1279.09 1509.46 Q1281.64 1505.29 1285.21 1503.3 Q1288.77 1501.32 1293.67 1501.32 Q1298.61 1501.32 1302.06 1503.83 Q1305.54 1506.34 1307.2 1511.12 Z"
     fill="#000000"
     fill-rule="evenodd"
     fill-opacity="1"
     id="path101" />
  <path
     clip-path="url(#clip940)"
     d="M1370.11 1484.75 L1370.11 1558.72 L1352.94 1558.72 L1352.94 1552.92 L1362.62 1552.92 L1362.62 1490.54 L1352.94 1490.54 L1352.94 1484.75 L1370.11 1484.75 Z"
     fill="#000000"
     fill-rule="evenodd"
     fill-opacity="1"
     id="path103" />
  <polyline
     clip-path="url(#clip940)"
     style="stroke:#000000; stroke-linecap:butt; stroke-linejoin:round; stroke-width:4; stroke-opacity:1; fill:none"
     points="   154.968,1361.44 154.968,78.7402    "
     id="polyline105" />
  <path
     clip-path="url(#clip940)"
     d="M36.4679 1101.04 Q37.3591 1098.41 40.2757 1095.93 Q43.1924 1093.42 48.2965 1090.91 L64.8242 1082.61 L64.8242 1091.4 L49.3092 1099.14 Q43.2329 1102.13 41.2479 1104.97 Q39.263 1107.76 39.263 1112.62 L39.263 1121.54 L64.8242 1121.54 L64.8242 1129.72 L4.34419 1129.72 L4.34419 1111.25 Q4.34419 1100.88 8.67866 1095.77 Q13.0131 1090.67 21.7631 1090.67 Q27.4749 1090.67 31.2422 1093.34 Q35.0095 1095.98 36.4679 1101.04 M11.0687 1121.54 L32.5385 1121.54 L32.5385 1111.25 Q32.5385 1105.33 29.8244 1102.34 Q27.0698 1099.3 21.7631 1099.3 Q16.4564 1099.3 13.7828 1102.34 Q11.0687 1105.33 11.0687 1111.25 L11.0687 1121.54 Z"
     fill="#000000"
     fill-rule="evenodd"
     fill-opacity="1"
     id="path107" />
  <path
     clip-path="url(#clip940)"
     d="M40.2757 1037.32 L43.9215 1037.32 L43.9215 1071.59 Q51.6182 1071.1 55.6691 1066.97 Q59.6795 1062.8 59.6795 1055.39 Q59.6795 1051.09 58.6263 1047.08 Q57.5731 1043.03 55.4666 1039.06 L62.5152 1039.06 Q64.2166 1043.07 65.1078 1047.28 Q65.999 1051.5 65.999 1055.83 Q65.999 1066.69 59.6795 1073.05 Q53.3601 1079.37 42.5847 1079.37 Q31.4447 1079.37 24.9228 1073.37 Q18.3603 1067.34 18.3603 1057.13 Q18.3603 1047.97 24.2746 1042.67 Q30.1484 1037.32 40.2757 1037.32 M38.0882 1044.77 Q31.9714 1044.85 28.3255 1048.22 Q24.6797 1051.54 24.6797 1057.05 Q24.6797 1063.28 28.204 1067.05 Q31.7283 1070.78 38.1287 1071.35 L38.0882 1044.77 Z"
     fill="#000000"
     fill-rule="evenodd"
     fill-opacity="1"
     id="path109" />
  <path
     clip-path="url(#clip940)"
     d="M1.79212 1002.12 L7.99 1002.12 L7.99 1009.25 Q7.99 1013.26 9.61036 1014.84 Q11.2307 1016.38 15.4437 1016.38 L19.4541 1016.38 L19.4541 1004.1 L25.2469 1004.1 L25.2469 1016.38 L64.8242 1016.38 L64.8242 1023.87 L25.2469 1023.87 L25.2469 1031 L19.4541 1031 L19.4541 1023.87 L16.2944 1023.87 Q8.71917 1023.87 5.2759 1020.34 Q1.79212 1016.82 1.79212 1009.16 L1.79212 1002.12 Z"
     fill="#000000"
     fill-rule="evenodd"
     fill-opacity="1"
     id="path111" />
  <path
     clip-path="url(#clip940)"
     d="M1.79212 995.878 L1.79212 988.424 L64.8242 988.424 L64.8242 995.878 L1.79212 995.878 Z"
     fill="#000000"
     fill-rule="evenodd"
     fill-opacity="1"
     id="path113" />
  <path
     clip-path="url(#clip940)"
     d="M40.2757 934.02 L43.9215 934.02 L43.9215 968.291 Q51.6182 967.805 55.6691 963.673 Q59.6795 959.5 59.6795 952.087 Q59.6795 947.793 58.6263 943.783 Q57.5731 939.732 55.4666 935.762 L62.5152 935.762 Q64.2166 939.773 65.1078 943.985 Q65.999 948.198 65.999 952.533 Q65.999 963.389 59.6795 969.749 Q53.3601 976.069 42.5847 976.069 Q31.4447 976.069 24.9228 970.073 Q18.3603 964.037 18.3603 953.829 Q18.3603 944.674 24.2746 939.367 Q30.1484 934.02 40.2757 934.02 M38.0882 941.474 Q31.9714 941.555 28.3255 944.917 Q24.6797 948.239 24.6797 953.748 Q24.6797 959.987 28.204 963.754 Q31.7283 967.481 38.1287 968.048 L38.0882 941.474 Z"
     fill="#000000"
     fill-rule="evenodd"
     fill-opacity="1"
     id="path115" />
  <path
     clip-path="url(#clip940)"
     d="M21.196 889.136 L28.1635 889.136 Q26.4216 892.296 25.5709 895.496 Q24.6797 898.656 24.6797 901.897 Q24.6797 909.148 29.2978 913.158 Q33.8753 917.168 42.1796 917.168 Q50.484 917.168 55.102 913.158 Q59.6795 909.148 59.6795 901.897 Q59.6795 898.656 58.8289 895.496 Q57.9377 892.296 56.1958 889.136 L63.0823 889.136 Q64.5406 892.255 65.2698 895.618 Q65.999 898.939 65.999 902.707 Q65.999 912.956 59.558 918.991 Q53.1171 925.027 42.1796 925.027 Q31.0802 925.027 24.7202 918.951 Q18.3603 912.834 18.3603 902.221 Q18.3603 898.777 19.0895 895.496 Q19.7781 892.215 21.196 889.136 Z"
     fill="#000000"
     fill-rule="evenodd"
     fill-opacity="1"
     id="path117" />
  <path
     clip-path="url(#clip940)"
     d="M6.57219 868.801 L19.4541 868.801 L19.4541 853.448 L25.2469 853.448 L25.2469 868.801 L49.8764 868.801 Q55.4261 868.801 57.0059 867.302 Q58.5858 865.762 58.5858 861.104 L58.5858 853.448 L64.8242 853.448 L64.8242 861.104 Q64.8242 869.732 61.624 873.014 Q58.3833 876.295 49.8764 876.295 L25.2469 876.295 L25.2469 881.764 L19.4541 881.764 L19.4541 876.295 L6.57219 876.295 L6.57219 868.801 Z"
     fill="#000000"
     fill-rule="evenodd"
     fill-opacity="1"
     id="path119" />
  <path
     clip-path="url(#clip940)"
     d="M42.0176 823.025 Q42.0176 832.059 44.0836 835.543 Q46.1495 839.027 51.1321 839.027 Q55.102 839.027 57.4515 836.434 Q59.7606 833.801 59.7606 829.304 Q59.7606 823.106 55.3856 819.38 Q50.9701 815.612 43.6785 815.612 L42.0176 815.612 L42.0176 823.025 M38.9389 808.159 L64.8242 808.159 L64.8242 815.612 L57.9377 815.612 Q62.0696 818.164 64.0545 821.972 Q65.999 825.78 65.999 831.289 Q65.999 838.257 62.1101 842.389 Q58.1807 846.48 51.6182 846.48 Q43.962 846.48 40.0732 841.376 Q36.1843 836.231 36.1843 826.064 L36.1843 815.612 L35.4551 815.612 Q30.3105 815.612 27.5154 819.015 Q24.6797 822.377 24.6797 828.494 Q24.6797 832.383 25.6114 836.069 Q26.5431 839.756 28.4066 843.158 L21.52 843.158 Q19.9402 839.067 19.1705 835.219 Q18.3603 831.37 18.3603 827.724 Q18.3603 817.881 23.4645 813.02 Q28.5686 808.159 38.9389 808.159 Z"
     fill="#000000"
     fill-rule="evenodd"
     fill-opacity="1"
     id="path121" />
  <path
     clip-path="url(#clip940)"
     d="M37.4401 755.092 L64.8242 755.092 L64.8242 762.545 L37.6831 762.545 Q31.2422 762.545 28.042 765.057 Q24.8418 767.569 24.8418 772.592 Q24.8418 778.628 28.6901 782.111 Q32.5385 785.595 39.182 785.595 L64.8242 785.595 L64.8242 793.089 L19.4541 793.089 L19.4541 785.595 L26.5026 785.595 Q22.4112 782.921 20.3858 779.316 Q18.3603 775.67 18.3603 770.931 Q18.3603 763.113 23.2214 759.102 Q28.042 755.092 37.4401 755.092 Z"
     fill="#000000"
     fill-rule="evenodd"
     fill-opacity="1"
     id="path123" />
  <path
     clip-path="url(#clip940)"
     d="M21.196 707.575 L28.1635 707.575 Q26.4216 710.734 25.5709 713.935 Q24.6797 717.094 24.6797 720.335 Q24.6797 727.586 29.2978 731.597 Q33.8753 735.607 42.1796 735.607 Q50.484 735.607 55.102 731.597 Q59.6795 727.586 59.6795 720.335 Q59.6795 717.094 58.8289 713.935 Q57.9377 710.734 56.1958 707.575 L63.0823 707.575 Q64.5406 710.694 65.2698 714.056 Q65.999 717.378 65.999 721.145 Q65.999 731.394 59.558 737.43 Q53.1171 743.466 42.1796 743.466 Q31.0802 743.466 24.7202 737.389 Q18.3603 731.272 18.3603 720.659 Q18.3603 717.216 19.0895 713.935 Q19.7781 710.653 21.196 707.575 Z"
     fill="#000000"
     fill-rule="evenodd"
     fill-opacity="1"
     id="path125" />
  <path
     clip-path="url(#clip940)"
     d="M40.2757 655.804 L43.9215 655.804 L43.9215 690.075 Q51.6182 689.589 55.6691 685.457 Q59.6795 681.284 59.6795 673.871 Q59.6795 669.577 58.6263 665.567 Q57.5731 661.516 55.4666 657.546 L62.5152 657.546 Q64.2166 661.556 65.1078 665.769 Q65.999 669.982 65.999 674.317 Q65.999 685.173 59.6795 691.533 Q53.3601 697.853 42.5847 697.853 Q31.4447 697.853 24.9228 691.857 Q18.3603 685.821 18.3603 675.613 Q18.3603 666.458 24.2746 661.151 Q30.1484 655.804 40.2757 655.804 M38.0882 663.258 Q31.9714 663.339 28.3255 666.701 Q24.6797 670.023 24.6797 675.532 Q24.6797 681.77 28.204 685.538 Q31.7283 689.265 38.1287 689.832 L38.0882 663.258 Z"
     fill="#000000"
     fill-rule="evenodd"
     fill-opacity="1"
     id="path127" />
  <path
     clip-path="url(#clip940)"
     d="M39.425 611.123 Q42.4227 610.839 47.2838 608.287 Q52.9145 605.289 56.0742 599.618 Q59.1529 594.068 59.1934 588.073 L59.1934 559.838 L65.6344 559.838 L65.6344 588.073 Q65.6344 595.851 61.624 603.061 Q57.6136 610.231 50.484 614.08 Q43.3544 617.928 35.7792 617.928 Q28.285 617.928 21.1554 614.08 Q14.0259 610.231 9.97495 603.061 Q5.92404 595.851 5.92404 588.073 L5.92404 559.838 L12.365 559.838 L12.365 588.073 Q12.4055 594.068 15.5247 599.618 Q18.7249 605.249 24.3151 608.287 Q29.1762 610.88 32.9436 611.244 L32.9436 559.838 L39.425 559.838 L39.425 611.123 Z"
     fill="#000000"
     fill-rule="evenodd"
     fill-opacity="1"
     id="path129" />
  <path
     clip-path="url(#clip940)"
     d="M1.79212 519.248 L1.79212 502.072 L7.58491 502.072 L7.58491 511.794 L69.9688 511.794 L69.9688 502.072 L75.7616 502.072 L75.7616 519.248 L1.79212 519.248 Z"
     fill="#000000"
     fill-rule="evenodd"
     fill-opacity="1"
     id="path131" />
  <path
     clip-path="url(#clip940)"
     d="M9.73189 467.64 Q9.73189 473.959 15.9703 477.159 Q22.1682 480.319 34.645 480.319 Q47.0812 480.319 53.3196 477.159 Q59.5175 473.959 59.5175 467.64 Q59.5175 461.28 53.3196 458.12 Q47.0812 454.92 34.645 454.92 Q22.1682 454.92 15.9703 458.12 Q9.73189 461.28 9.73189 467.64 M3.25044 467.64 Q3.25044 457.472 11.3117 452.125 Q19.3325 446.737 34.645 446.737 Q49.9169 446.737 57.9782 452.125 Q65.999 457.472 65.999 467.64 Q65.999 477.807 57.9782 483.195 Q49.9169 488.542 34.645 488.542 Q19.3325 488.542 11.3117 483.195 Q3.25044 477.807 3.25044 467.64 Z"
     fill="#000000"
     fill-rule="evenodd"
     fill-opacity="1"
     id="path133" />
  <path
     clip-path="url(#clip940)"
     d="M54.5349 431.506 L54.5349 422.958 L61.5024 422.958 L74.4653 429.602 L74.4653 434.827 L61.5024 431.506 L54.5349 431.506 Z"
     fill="#000000"
     fill-rule="evenodd"
     fill-opacity="1"
     id="path135" />
  <path
     clip-path="url(#clip940)"
     d="M57.9377 378.196 L57.9377 364.828 L11.7979 364.828 L14.7145 379.37 L7.26084 379.37 L4.34419 364.909 L4.34419 356.726 L57.9377 356.726 L57.9377 343.358 L64.8242 343.358 L64.8242 378.196 L57.9377 378.196 Z"
     fill="#000000"
     fill-rule="evenodd"
     fill-opacity="1"
     id="path137" />
  <path
     clip-path="url(#clip940)"
     d="M1.79212 310.465 L75.7616 310.465 L75.7616 327.64 L69.9688 327.64 L69.9688 317.959 L7.58491 317.959 L7.58491 327.64 L1.79212 327.64 L1.79212 310.465 Z"
     fill="#000000"
     fill-rule="evenodd"
     fill-opacity="1"
     id="path139" />
  <polyline
     clip-path="url(#clip942)"
     style="stroke:url(#linearGradient4144);stroke-linecap:butt;stroke-linejoin:round;stroke-width:12;stroke-opacity:1;fill:#ffffff;fill-opacity:0"
     points="   216.278,1319.81 220.599,1249.78 224.953,1230.63 229.307,1267.37 233.66,1231.55 238.014,1258.35 242.368,1271.1 246.689,1245.55 251.043,1238.05 255.396,1241.8    259.75,1228.96 264.104,1205.27 268.458,1222.97 272.812,1216.14 277.165,1213.78 281.519,1214.6 285.873,1208.95 290.227,1190.41 294.58,1198.85 298.934,1187.53    303.288,1190.08 307.642,1191.13 311.996,1185.33 316.349,1183.7 320.703,1183.8 325.057,1177.68 329.411,1170.34 333.764,1181.97 338.151,1173.04 342.505,1163.2    346.859,1154.97 351.213,1190.61 355.566,1173.1 359.92,1171.93 364.307,1159.02 368.661,1146.64 373.014,1144.93 377.368,1157.16 381.722,1148.23 386.109,1134.97    390.463,1136.68 394.816,1146.88 399.17,1146.2 403.557,1135.66 407.911,1131.2 412.264,1146.51 416.651,1122.82 421.005,1122.5 425.359,1126.25 429.746,1135.56    434.099,1108.86 438.453,1108.73 442.84,1123.54 447.194,1113.05 451.58,1118.99 455.934,1108.78 460.288,1110.46 464.675,1101.52 469.029,1103.93 473.415,1094.04    477.769,1094.25 482.156,1089.96 486.51,1100.47 490.896,1093.38 495.25,1093.8 499.637,1095.54 503.991,1089.91 508.377,1076.57 512.731,1069.65 517.118,1084.04    521.505,1085.9 525.859,1071.57 530.245,1068.61 534.632,1079.73 538.986,1065.22 543.373,1063.7 547.726,1064.59 552.113,1077.02 556.5,1072.64 560.854,1058.09    565.24,1063.09 569.627,1049.97 574.014,1057.43 578.368,1050.4 582.755,1052.54 587.141,1052.07 591.528,1050.65 595.882,1045.9 600.269,1032.47 604.655,1040.27    609.042,1045.26 613.429,1032.22 617.816,1018.32 622.169,1024.9 626.556,1023.43 630.943,1010.9 635.33,1022.36 639.717,1016.45 644.103,1012.3 648.49,1005.2    652.877,1007.29 657.264,994.273 661.65,984.066 666.004,1005.53 670.391,994.071 674.778,994.536 679.164,1002.48 683.551,978.527 687.938,994.267 692.358,972.536    696.744,978.129 701.131,974.399 705.518,968.155 709.905,971.953 714.292,980.84 718.678,961.222 723.065,980.743 727.452,970.528 731.839,970.844 736.225,976.466    740.645,977.457 745.032,969.271 749.419,961.532 753.805,964.091 758.192,942.335 762.612,941.529 766.999,950.964 771.385,932.841 775.772,929.704 780.159,932.873    784.579,932.37 788.965,921.24 793.352,916.284 797.772,919.283 802.159,932.665 806.545,909.157 810.965,929.521 815.352,912.229 819.739,914.875 824.159,916.077    828.545,905.679 832.932,917.095 837.352,905.255 841.739,906.926 846.158,918.789 850.545,917.109 854.965,908.393 859.352,908.894 863.738,921.102 868.158,892.101    872.545,917.65 876.965,923.801 881.351,917.642 885.771,908.459 890.191,916.477 894.578,926.81 898.997,919.458 903.384,939.606 907.804,928.983 912.191,932.519    916.61,931.47 921.03,917.98 925.417,916.305 929.837,917.339 934.256,903.163 938.643,908.749 943.063,904.033 947.483,901.036 951.869,905.661 956.289,911.864    960.709,898.294 965.096,903.076 969.515,908.283 973.935,898.403 978.355,901.574 982.742,903.067 987.161,898.981 991.581,903.042 996.001,907.335 1000.42,904.429    1004.84,887.599 1009.23,912.706 1013.65,908.534 1018.07,887.048 1022.49,904.432 1026.91,891.235 1031.33,905.584 1035.75,878.133 1040.17,906.21 1044.59,902.439    1048.97,902.561 1053.39,907.772 1057.81,916.571 1062.23,893.859 1066.65,902.852 1071.07,908.28 1075.49,899.948 1079.91,930.174 1084.33,893.641 1088.75,890.599    1093.2,916.836 1097.62,932.432 1102.04,940.581 1106.46,943.588 1110.88,913.926 1115.3,930.747 1119.72,949.384 1124.14,936.618 1128.56,955.441 1133.01,964.356    1137.43,948.017 1141.85,944.72 1146.27,945.237 1150.69,931.482 1155.11,926.505 1159.56,931.8 1163.98,925.744 1168.4,934.089 1172.82,908.18 1177.28,899.317    1181.7,895.799 1186.12,903.85 1190.57,866.882 1194.99,846.239 1199.41,914.705 1203.86,875.717 1208.28,872.937 1212.7,821.772 1217.15,821.551 1221.57,840.114    1225.99,828.189 1230.45,796.45 1234.87,795.986 1239.32,803.097 1243.74,794.749 1248.19,810.676 1252.61,781.192 1257.06,793.689 1261.48,779.362 1265.94,765.439    1270.36,758.014 1274.81,752.262 1279.23,775.94 1283.68,754.771 1288.1,776.174 1292.55,704.022 1296.97,738.057 1301.43,755.653 1305.88,819.097 1310.3,781.892    1314.75,743.955 1319.17,769.472 1323.62,825.015 1328.08,802.859 1332.5,786.836 1336.95,815.411 1341.4,812.97 1345.82,848.755 1350.27,857.627 1354.73,851.694    1359.18,889.774 1363.6,861.045 1368.05,885.06 1372.5,860.591 1376.96,859.376 1381.38,879.437 1385.83,857.216 1390.28,867.379 1394.73,841.958 1399.19,865.265    1403.64,873.375 1408.06,874.194 1412.51,875.006 1416.97,852.368 1421.42,860.226 1425.87,873.256 1430.32,806.23 1434.78,568.309 1439.23,958.62 1443.68,802.162    1448.13,917.271 1452.59,917.449 1457.04,881.685 1461.49,875.967 1465.95,898.325 1470.4,840.096 1474.85,879.925 1479.3,832.949 1483.76,837.124 1488.21,867.543    1492.66,834.383 1497.11,825.87 1501.57,833.767 1506.02,845.599 1510.47,836.365 1514.93,841.515 1519.41,784.428 1523.86,778.104 1528.32,765.455 1532.77,772.081    1537.22,738.114 1541.67,728.547 1546.16,746.396 1550.61,796.527 1555.07,715.688 1559.52,759.619 1564,705.171 1568.46,687.136 1572.91,701.521 1577.36,688.676    1581.85,710.788 1586.3,715.56 1590.75,686.373 1595.24,681.287 1599.69,729.356 1604.14,713.235 1608.63,631.672 1613.08,680.41 1617.54,633.643 1622.02,702.774    1626.47,721.537 1630.96,684.578 1635.41,776.87 1639.9,671.473 1644.35,719.076 1648.8,743.972 1653.29,768.307 1657.74,649.85 1662.23,795.443 1666.68,763.127    1671.17,851.268 1675.65,838.028 1680.11,893.499 1684.59,847.404 1689.04,821.011 1693.53,831.663 1697.98,914.593 1702.47,834.137 1706.95,799.235 1711.41,855.436    1715.89,896.761 1720.38,879.992 1724.83,862.718 1729.32,856.344 1733.8,895.692 1738.25,906.188 1742.74,911.691 1747.23,881.454 1751.68,898.734 1756.16,937.505    1760.65,906.366 1765.14,923.784 1769.59,895.315 1774.07,946.769 1778.56,930.304 1783.05,900.683 1787.53,913.244 1791.98,996.039 1796.47,940.745 1800.96,971.805    1805.44,937.367 1809.93,904.395 1814.41,895.162 1818.9,918.927 1823.38,914.479 1827.84,907.712 1832.32,951.151 1836.81,972.237 1841.29,992.541 1845.78,901.428    1850.27,979.387 1854.75,989.724 1859.24,988.993 1863.72,987.571 1868.21,1026.74 1872.69,993.925 1877.18,986.248 1881.67,971.204 1886.15,1037.32 1890.64,899.587    1895.16,983.847 1899.64,902.804 1904.13,983.207 1908.61,1027.82 1913.1,898.337 1917.58,861.973 1922.07,941.709 1926.56,999.706 1931.07,909.138 1935.56,908.149    1940.05,941.334 1944.53,983.977 1949.02,1037.93 1953.54,964.529 1958.02,995.194 1962.51,894.456 1966.99,878.852 1971.51,1207.03 1976,1022.19 1980.48,979.628    1985,987.797 1989.49,1020.37 1993.97,1015.11 1998.49,890.691 2002.98,768.118 2007.46,1073.39 2011.98,485.933 2016.47,115.043 2020.99,984.577 2025.47,1059.46    2029.96,1169.37 2034.48,833.904 2038.96,801.379 2043.48,846.321 2047.97,830.858 2052.49,657.752 2056.97,555.514 2061.49,1325.14 2065.98,962.448 2070.49,1201.16    2074.98,815.866 2079.5,1163.32 2083.98,557.625 2088.5,1063.5 2093.02,1132.62 2097.51,872.606 2102.03,863.302 2106.51,1139.8 2111.03,632.58 2115.55,1086.32    2120.04,1068.72 2124.55,1265.43 2129.07,1273.37 2133.56,1168.48 2138.08,1210.63 2142.6,1135.12 2147.08,1135.18 2151.6,880.191 2156.12,1135.05 2160.64,1309.95    2165.12,1070.44 2169.64,1128.72 2174.16,1073.85 2178.68,1291.31 2183.2,1129.57 2187.68,1047.66 2192.2,1239.26 2196.72,934.179 2201.24,1220.98 2205.76,1247.86    2210.28,977.714 2214.8,1223.29 2219.31,877.811 2223.8,1089.46 2228.32,982.856 2232.84,949.768 2237.36,733.389 2241.87,761.798 2246.39,945.46 2250.91,849.731    2255.43,761.293 2259.95,1093.42    "
     id="polyline141" />
</svg>
