<?xml version="1.0" encoding="utf-8"?>
<svg xmlns="http://www.w3.org/2000/svg" xmlns:xlink="http://www.w3.org/1999/xlink" width="600" height="400" viewBox="0 0 2400 1600">
<defs>
  <clipPath id="clip990">
    <rect x="0" y="0" width="2400" height="1600"/>
  </clipPath>
</defs>
<path clip-path="url(#clip990)" d="
M0 1600 L2400 1600 L2400 0 L0 0  Z
  " fill="#ffffff" fill-rule="evenodd" fill-opacity="1"/>
<defs>
  <clipPath id="clip991">
    <rect x="480" y="0" width="1681" height="1600"/>
  </clipPath>
</defs>
<path clip-path="url(#clip990)" d="
M146.328 1361.44 L2321.26 1361.44 L2321.26 78.7402 L146.328 78.7402  Z
  " fill="#ffffff" fill-rule="evenodd" fill-opacity="1"/>
<defs>
  <clipPath id="clip992">
    <rect x="146" y="78" width="2176" height="1284"/>
  </clipPath>
</defs>
<polyline clip-path="url(#clip992)" style="stroke:#000000; stroke-linecap:butt; stroke-linejoin:round; stroke-width:2; stroke-opacity:0.1; fill:none" points="
  388.536,1361.44 388.536,78.7402 
  "/>
<polyline clip-path="url(#clip992)" style="stroke:#000000; stroke-linecap:butt; stroke-linejoin:round; stroke-width:2; stroke-opacity:0.1; fill:none" points="
  688.167,1361.44 688.167,78.7402 
  "/>
<polyline clip-path="url(#clip992)" style="stroke:#000000; stroke-linecap:butt; stroke-linejoin:round; stroke-width:2; stroke-opacity:0.1; fill:none" points="
  987.798,1361.44 987.798,78.7402 
  "/>
<polyline clip-path="url(#clip992)" style="stroke:#000000; stroke-linecap:butt; stroke-linejoin:round; stroke-width:2; stroke-opacity:0.1; fill:none" points="
  1287.43,1361.44 1287.43,78.7402 
  "/>
<polyline clip-path="url(#clip992)" style="stroke:#000000; stroke-linecap:butt; stroke-linejoin:round; stroke-width:2; stroke-opacity:0.1; fill:none" points="
  1587.06,1361.44 1587.06,78.7402 
  "/>
<polyline clip-path="url(#clip992)" style="stroke:#000000; stroke-linecap:butt; stroke-linejoin:round; stroke-width:2; stroke-opacity:0.1; fill:none" points="
  1886.69,1361.44 1886.69,78.7402 
  "/>
<polyline clip-path="url(#clip992)" style="stroke:#000000; stroke-linecap:butt; stroke-linejoin:round; stroke-width:2; stroke-opacity:0.1; fill:none" points="
  2186.32,1361.44 2186.32,78.7402 
  "/>
<polyline clip-path="url(#clip990)" style="stroke:#000000; stroke-linecap:butt; stroke-linejoin:round; stroke-width:4; stroke-opacity:1; fill:none" points="
  146.328,1361.44 2321.26,1361.44 
  "/>
<polyline clip-path="url(#clip990)" style="stroke:#000000; stroke-linecap:butt; stroke-linejoin:round; stroke-width:4; stroke-opacity:1; fill:none" points="
  388.536,1361.44 388.536,1342.55 
  "/>
<polyline clip-path="url(#clip990)" style="stroke:#000000; stroke-linecap:butt; stroke-linejoin:round; stroke-width:4; stroke-opacity:1; fill:none" points="
  688.167,1361.44 688.167,1342.55 
  "/>
<polyline clip-path="url(#clip990)" style="stroke:#000000; stroke-linecap:butt; stroke-linejoin:round; stroke-width:4; stroke-opacity:1; fill:none" points="
  987.798,1361.44 987.798,1342.55 
  "/>
<polyline clip-path="url(#clip990)" style="stroke:#000000; stroke-linecap:butt; stroke-linejoin:round; stroke-width:4; stroke-opacity:1; fill:none" points="
  1287.43,1361.44 1287.43,1342.55 
  "/>
<polyline clip-path="url(#clip990)" style="stroke:#000000; stroke-linecap:butt; stroke-linejoin:round; stroke-width:4; stroke-opacity:1; fill:none" points="
  1587.06,1361.44 1587.06,1342.55 
  "/>
<polyline clip-path="url(#clip990)" style="stroke:#000000; stroke-linecap:butt; stroke-linejoin:round; stroke-width:4; stroke-opacity:1; fill:none" points="
  1886.69,1361.44 1886.69,1342.55 
  "/>
<polyline clip-path="url(#clip990)" style="stroke:#000000; stroke-linecap:butt; stroke-linejoin:round; stroke-width:4; stroke-opacity:1; fill:none" points="
  2186.32,1361.44 2186.32,1342.55 
  "/>
<path clip-path="url(#clip990)" d="M348.172 1399.71 L330.464 1427.39 L348.172 1427.39 L348.172 1399.71 M346.332 1393.6 L355.151 1393.6 L355.151 1427.39 L362.547 1427.39 L362.547 1433.22 L355.151 1433.22 L355.151 1445.44 L348.172 1445.44 L348.172 1433.22 L324.769 1433.22 L324.769 1426.45 L346.332 1393.6 Z" fill="#000000" fill-rule="evenodd" fill-opacity="1" /><path clip-path="url(#clip990)" d="M389.144 1398.22 Q383.727 1398.22 380.984 1403.57 Q378.276 1408.88 378.276 1419.58 Q378.276 1430.24 380.984 1435.58 Q383.727 1440.9 389.144 1440.9 Q394.595 1440.9 397.304 1435.58 Q400.047 1430.24 400.047 1419.58 Q400.047 1408.88 397.304 1403.57 Q394.595 1398.22 389.144 1398.22 M389.144 1392.67 Q397.859 1392.67 402.443 1399.58 Q407.061 1406.45 407.061 1419.58 Q407.061 1432.67 402.443 1439.58 Q397.859 1446.45 389.144 1446.45 Q380.429 1446.45 375.811 1439.58 Q371.227 1432.67 371.227 1419.58 Q371.227 1406.45 375.811 1399.58 Q380.429 1392.67 389.144 1392.67 Z" fill="#000000" fill-rule="evenodd" fill-opacity="1" /><path clip-path="url(#clip990)" d="M434.387 1398.22 Q428.97 1398.22 426.227 1403.57 Q423.519 1408.88 423.519 1419.58 Q423.519 1430.24 426.227 1435.58 Q428.97 1440.9 434.387 1440.9 Q439.838 1440.9 442.547 1435.58 Q445.29 1430.24 445.29 1419.58 Q445.29 1408.88 442.547 1403.57 Q439.838 1398.22 434.387 1398.22 M434.387 1392.67 Q443.102 1392.67 447.685 1399.58 Q452.303 1406.45 452.303 1419.58 Q452.303 1432.67 447.685 1439.58 Q443.102 1446.45 434.387 1446.45 Q425.672 1446.45 421.054 1439.58 Q416.47 1432.67 416.47 1419.58 Q416.47 1406.45 421.054 1399.58 Q425.672 1392.67 434.387 1392.67 Z" fill="#000000" fill-rule="evenodd" fill-opacity="1" /><path clip-path="url(#clip990)" d="M627.595 1393.6 L655.129 1393.6 L655.129 1399.51 L634.018 1399.51 L634.018 1412.21 Q635.546 1411.69 637.074 1411.45 Q638.602 1411.17 640.129 1411.17 Q648.81 1411.17 653.879 1415.93 Q658.949 1420.69 658.949 1428.81 Q658.949 1437.18 653.741 1441.83 Q648.532 1446.45 639.053 1446.45 Q635.789 1446.45 632.386 1445.9 Q629.018 1445.34 625.407 1444.23 L625.407 1437.18 Q628.532 1438.88 631.866 1439.71 Q635.199 1440.55 638.914 1440.55 Q644.921 1440.55 648.428 1437.39 Q651.935 1434.23 651.935 1428.81 Q651.935 1423.4 648.428 1420.24 Q644.921 1417.08 638.914 1417.08 Q636.102 1417.08 633.289 1417.7 Q630.511 1418.33 627.595 1419.65 L627.595 1393.6 Z" fill="#000000" fill-rule="evenodd" fill-opacity="1" /><path clip-path="url(#clip990)" d="M687.768 1398.22 Q682.351 1398.22 679.608 1403.57 Q676.9 1408.88 676.9 1419.58 Q676.9 1430.24 679.608 1435.58 Q682.351 1440.9 687.768 1440.9 Q693.219 1440.9 695.928 1435.58 Q698.671 1430.24 698.671 1419.58 Q698.671 1408.88 695.928 1403.57 Q693.219 1398.22 687.768 1398.22 M687.768 1392.67 Q696.483 1392.67 701.067 1399.58 Q705.685 1406.45 705.685 1419.58 Q705.685 1432.67 701.067 1439.58 Q696.483 1446.45 687.768 1446.45 Q679.053 1446.45 674.435 1439.58 Q669.852 1432.67 669.852 1419.58 Q669.852 1406.45 674.435 1399.58 Q679.053 1392.67 687.768 1392.67 Z" fill="#000000" fill-rule="evenodd" fill-opacity="1" /><path clip-path="url(#clip990)" d="M733.011 1398.22 Q727.594 1398.22 724.851 1403.57 Q722.143 1408.88 722.143 1419.58 Q722.143 1430.24 724.851 1435.58 Q727.594 1440.9 733.011 1440.9 Q738.462 1440.9 741.171 1435.58 Q743.914 1430.24 743.914 1419.58 Q743.914 1408.88 741.171 1403.57 Q738.462 1398.22 733.011 1398.22 M733.011 1392.67 Q741.726 1392.67 746.309 1399.58 Q750.927 1406.45 750.927 1419.58 Q750.927 1432.67 746.309 1439.58 Q741.726 1446.45 733.011 1446.45 Q724.296 1446.45 719.678 1439.58 Q715.094 1432.67 715.094 1419.58 Q715.094 1406.45 719.678 1399.58 Q724.296 1392.67 733.011 1392.67 Z" fill="#000000" fill-rule="evenodd" fill-opacity="1" /><path clip-path="url(#clip990)" d="M943.285 1416.73 Q938.563 1416.73 935.785 1419.96 Q933.042 1423.19 933.042 1428.81 Q933.042 1434.4 935.785 1437.67 Q938.563 1440.9 943.285 1440.9 Q948.007 1440.9 950.75 1437.67 Q953.528 1434.4 953.528 1428.81 Q953.528 1423.19 950.75 1419.96 Q948.007 1416.73 943.285 1416.73 M957.208 1394.75 L957.208 1401.14 Q954.569 1399.89 951.861 1399.23 Q949.188 1398.57 946.549 1398.57 Q939.604 1398.57 935.924 1403.26 Q932.278 1407.94 931.757 1417.42 Q933.806 1414.4 936.896 1412.81 Q939.986 1411.17 943.701 1411.17 Q951.514 1411.17 956.028 1415.93 Q960.576 1420.65 960.576 1428.81 Q960.576 1436.8 955.854 1441.62 Q951.132 1446.45 943.285 1446.45 Q934.292 1446.45 929.535 1439.58 Q924.778 1432.67 924.778 1419.58 Q924.778 1407.28 930.611 1399.99 Q936.445 1392.67 946.271 1392.67 Q948.91 1392.67 951.583 1393.19 Q954.292 1393.71 957.208 1394.75 Z" fill="#000000" fill-rule="evenodd" fill-opacity="1" /><path clip-path="url(#clip990)" d="M987.66 1398.22 Q982.243 1398.22 979.5 1403.57 Q976.792 1408.88 976.792 1419.58 Q976.792 1430.24 979.5 1435.58 Q982.243 1440.9 987.66 1440.9 Q993.111 1440.9 995.819 1435.58 Q998.562 1430.24 998.562 1419.58 Q998.562 1408.88 995.819 1403.57 Q993.111 1398.22 987.66 1398.22 M987.66 1392.67 Q996.375 1392.67 1000.96 1399.58 Q1005.58 1406.45 1005.58 1419.58 Q1005.58 1432.67 1000.96 1439.58 Q996.375 1446.45 987.66 1446.45 Q978.944 1446.45 974.326 1439.58 Q969.743 1432.67 969.743 1419.58 Q969.743 1406.45 974.326 1399.58 Q978.944 1392.67 987.66 1392.67 Z" fill="#000000" fill-rule="evenodd" fill-opacity="1" /><path clip-path="url(#clip990)" d="M1032.9 1398.22 Q1027.49 1398.22 1024.74 1403.57 Q1022.03 1408.88 1022.03 1419.58 Q1022.03 1430.24 1024.74 1435.58 Q1027.49 1440.9 1032.9 1440.9 Q1038.35 1440.9 1041.06 1435.58 Q1043.81 1430.24 1043.81 1419.58 Q1043.81 1408.88 1041.06 1403.57 Q1038.35 1398.22 1032.9 1398.22 M1032.9 1392.67 Q1041.62 1392.67 1046.2 1399.58 Q1050.82 1406.45 1050.82 1419.58 Q1050.82 1432.67 1046.2 1439.58 Q1041.62 1446.45 1032.9 1446.45 Q1024.19 1446.45 1019.57 1439.58 Q1014.99 1432.67 1014.99 1419.58 Q1014.99 1406.45 1019.57 1399.58 Q1024.19 1392.67 1032.9 1392.67 Z" fill="#000000" fill-rule="evenodd" fill-opacity="1" /><path clip-path="url(#clip990)" d="M1224.84 1393.6 L1258.18 1393.6 L1258.18 1396.59 L1239.36 1445.44 L1232.03 1445.44 L1249.74 1399.51 L1224.84 1399.51 L1224.84 1393.6 Z" fill="#000000" fill-rule="evenodd" fill-opacity="1" /><path clip-path="url(#clip990)" d="M1286.86 1398.22 Q1281.44 1398.22 1278.7 1403.57 Q1275.99 1408.88 1275.99 1419.58 Q1275.99 1430.24 1278.7 1435.58 Q1281.44 1440.9 1286.86 1440.9 Q1292.31 1440.9 1295.02 1435.58 Q1297.76 1430.24 1297.76 1419.58 Q1297.76 1408.88 1295.02 1403.57 Q1292.31 1398.22 1286.86 1398.22 M1286.86 1392.67 Q1295.57 1392.67 1300.16 1399.58 Q1304.77 1406.45 1304.77 1419.58 Q1304.77 1432.67 1300.16 1439.58 Q1295.57 1446.45 1286.86 1446.45 Q1278.14 1446.45 1273.52 1439.58 Q1268.94 1432.67 1268.94 1419.58 Q1268.94 1406.45 1273.52 1399.58 Q1278.14 1392.67 1286.86 1392.67 Z" fill="#000000" fill-rule="evenodd" fill-opacity="1" /><path clip-path="url(#clip990)" d="M1332.1 1398.22 Q1326.68 1398.22 1323.94 1403.57 Q1321.23 1408.88 1321.23 1419.58 Q1321.23 1430.24 1323.94 1435.58 Q1326.68 1440.9 1332.1 1440.9 Q1337.55 1440.9 1340.26 1435.58 Q1343 1430.24 1343 1419.58 Q1343 1408.88 1340.26 1403.57 Q1337.55 1398.22 1332.1 1398.22 M1332.1 1392.67 Q1340.81 1392.67 1345.4 1399.58 Q1350.02 1406.45 1350.02 1419.58 Q1350.02 1432.67 1345.4 1439.58 Q1340.81 1446.45 1332.1 1446.45 Q1323.38 1446.45 1318.77 1439.58 Q1314.18 1432.67 1314.18 1419.58 Q1314.18 1406.45 1318.77 1399.58 Q1323.38 1392.67 1332.1 1392.67 Z" fill="#000000" fill-rule="evenodd" fill-opacity="1" /><path clip-path="url(#clip990)" d="M1541.75 1420.83 Q1536.75 1420.83 1533.87 1423.5 Q1531.02 1426.17 1531.02 1430.86 Q1531.02 1435.55 1533.87 1438.22 Q1536.75 1440.9 1541.75 1440.9 Q1546.75 1440.9 1549.63 1438.22 Q1552.51 1435.51 1552.51 1430.86 Q1552.51 1426.17 1549.63 1423.5 Q1546.78 1420.83 1541.75 1420.83 M1534.73 1417.84 Q1530.22 1416.73 1527.69 1413.64 Q1525.19 1410.55 1525.19 1406.1 Q1525.19 1399.89 1529.6 1396.28 Q1534.04 1392.67 1541.75 1392.67 Q1549.49 1392.67 1553.9 1396.28 Q1558.31 1399.89 1558.31 1406.1 Q1558.31 1410.55 1555.78 1413.64 Q1553.28 1416.73 1548.8 1417.84 Q1553.87 1419.02 1556.68 1422.46 Q1559.53 1425.9 1559.53 1430.86 Q1559.53 1438.4 1554.91 1442.42 Q1550.32 1446.45 1541.75 1446.45 Q1533.17 1446.45 1528.55 1442.42 Q1523.97 1438.4 1523.97 1430.86 Q1523.97 1425.9 1526.82 1422.46 Q1529.66 1419.02 1534.73 1417.84 M1532.16 1406.76 Q1532.16 1410.79 1534.66 1413.05 Q1537.2 1415.31 1541.75 1415.31 Q1546.26 1415.31 1548.8 1413.05 Q1551.37 1410.79 1551.37 1406.76 Q1551.37 1402.74 1548.8 1400.48 Q1546.26 1398.22 1541.75 1398.22 Q1537.2 1398.22 1534.66 1400.48 Q1532.16 1402.74 1532.16 1406.76 Z" fill="#000000" fill-rule="evenodd" fill-opacity="1" /><path clip-path="url(#clip990)" d="M1586.99 1398.22 Q1581.57 1398.22 1578.83 1403.57 Q1576.12 1408.88 1576.12 1419.58 Q1576.12 1430.24 1578.83 1435.58 Q1581.57 1440.9 1586.99 1440.9 Q1592.44 1440.9 1595.15 1435.58 Q1597.89 1430.24 1597.89 1419.58 Q1597.89 1408.88 1595.15 1403.57 Q1592.44 1398.22 1586.99 1398.22 M1586.99 1392.67 Q1595.71 1392.67 1600.29 1399.58 Q1604.91 1406.45 1604.91 1419.58 Q1604.91 1432.67 1600.29 1439.58 Q1595.71 1446.45 1586.99 1446.45 Q1578.28 1446.45 1573.66 1439.58 Q1569.07 1432.67 1569.07 1419.58 Q1569.07 1406.45 1573.66 1399.58 Q1578.28 1392.67 1586.99 1392.67 Z" fill="#000000" fill-rule="evenodd" fill-opacity="1" /><path clip-path="url(#clip990)" d="M1632.23 1398.22 Q1626.82 1398.22 1624.07 1403.57 Q1621.37 1408.88 1621.37 1419.58 Q1621.37 1430.24 1624.07 1435.58 Q1626.82 1440.9 1632.23 1440.9 Q1637.69 1440.9 1640.39 1435.58 Q1643.14 1430.24 1643.14 1419.58 Q1643.14 1408.88 1640.39 1403.57 Q1637.69 1398.22 1632.23 1398.22 M1632.23 1392.67 Q1640.95 1392.67 1645.53 1399.58 Q1650.15 1406.45 1650.15 1419.58 Q1650.15 1432.67 1645.53 1439.58 Q1640.95 1446.45 1632.23 1446.45 Q1623.52 1446.45 1618.9 1439.58 Q1614.32 1432.67 1614.32 1419.58 Q1614.32 1406.45 1618.9 1399.58 Q1623.52 1392.67 1632.23 1392.67 Z" fill="#000000" fill-rule="evenodd" fill-opacity="1" /><path clip-path="url(#clip990)" d="M1826.76 1444.37 L1826.76 1437.98 Q1829.4 1439.23 1832.11 1439.89 Q1834.82 1440.55 1837.42 1440.55 Q1844.37 1440.55 1848.01 1435.9 Q1851.69 1431.21 1852.21 1421.69 Q1850.2 1424.68 1847.11 1426.28 Q1844.02 1427.87 1840.27 1427.87 Q1832.49 1427.87 1827.94 1423.19 Q1823.43 1418.46 1823.43 1410.31 Q1823.43 1402.32 1828.15 1397.49 Q1832.87 1392.67 1840.72 1392.67 Q1849.71 1392.67 1854.43 1399.58 Q1859.19 1406.45 1859.19 1419.58 Q1859.19 1431.83 1853.36 1439.16 Q1847.56 1446.45 1837.73 1446.45 Q1835.09 1446.45 1832.39 1445.93 Q1829.68 1445.41 1826.76 1444.37 M1840.72 1422.39 Q1845.44 1422.39 1848.18 1419.16 Q1850.96 1415.93 1850.96 1410.31 Q1850.96 1404.71 1848.18 1401.49 Q1845.44 1398.22 1840.72 1398.22 Q1836 1398.22 1833.22 1401.49 Q1830.48 1404.71 1830.48 1410.31 Q1830.48 1415.93 1833.22 1419.16 Q1836 1422.39 1840.72 1422.39 Z" fill="#000000" fill-rule="evenodd" fill-opacity="1" /><path clip-path="url(#clip990)" d="M1886.8 1398.22 Q1881.38 1398.22 1878.64 1403.57 Q1875.93 1408.88 1875.93 1419.58 Q1875.93 1430.24 1878.64 1435.58 Q1881.38 1440.9 1886.8 1440.9 Q1892.25 1440.9 1894.96 1435.58 Q1897.7 1430.24 1897.7 1419.58 Q1897.7 1408.88 1894.96 1403.57 Q1892.25 1398.22 1886.8 1398.22 M1886.8 1392.67 Q1895.51 1392.67 1900.09 1399.58 Q1904.71 1406.45 1904.71 1419.58 Q1904.71 1432.67 1900.09 1439.58 Q1895.51 1446.45 1886.8 1446.45 Q1878.08 1446.45 1873.46 1439.58 Q1868.88 1432.67 1868.88 1419.58 Q1868.88 1406.45 1873.46 1399.58 Q1878.08 1392.67 1886.8 1392.67 Z" fill="#000000" fill-rule="evenodd" fill-opacity="1" /><path clip-path="url(#clip990)" d="M1932.04 1398.22 Q1926.62 1398.22 1923.88 1403.57 Q1921.17 1408.88 1921.17 1419.58 Q1921.17 1430.24 1923.88 1435.58 Q1926.62 1440.9 1932.04 1440.9 Q1937.49 1440.9 1940.2 1435.58 Q1942.94 1430.24 1942.94 1419.58 Q1942.94 1408.88 1940.2 1403.57 Q1937.49 1398.22 1932.04 1398.22 M1932.04 1392.67 Q1940.75 1392.67 1945.34 1399.58 Q1949.96 1406.45 1949.96 1419.58 Q1949.96 1432.67 1945.34 1439.58 Q1940.75 1446.45 1932.04 1446.45 Q1923.32 1446.45 1918.71 1439.58 Q1914.12 1432.67 1914.12 1419.58 Q1914.12 1406.45 1918.71 1399.58 Q1923.32 1392.67 1932.04 1392.67 Z" fill="#000000" fill-rule="evenodd" fill-opacity="1" /><path clip-path="url(#clip990)" d="M2103.11 1439.54 L2114.57 1439.54 L2114.57 1399.99 L2102.1 1402.49 L2102.1 1396.1 L2114.5 1393.6 L2121.51 1393.6 L2121.51 1439.54 L2132.97 1439.54 L2132.97 1445.44 L2103.11 1445.44 L2103.11 1439.54 Z" fill="#000000" fill-rule="evenodd" fill-opacity="1" /><path clip-path="url(#clip990)" d="M2162.14 1398.22 Q2156.72 1398.22 2153.98 1403.57 Q2151.27 1408.88 2151.27 1419.58 Q2151.27 1430.24 2153.98 1435.58 Q2156.72 1440.9 2162.14 1440.9 Q2167.59 1440.9 2170.3 1435.58 Q2173.04 1430.24 2173.04 1419.58 Q2173.04 1408.88 2170.3 1403.57 Q2167.59 1398.22 2162.14 1398.22 M2162.14 1392.67 Q2170.85 1392.67 2175.44 1399.58 Q2180.06 1406.45 2180.06 1419.58 Q2180.06 1432.67 2175.44 1439.58 Q2170.85 1446.45 2162.14 1446.45 Q2153.42 1446.45 2148.81 1439.58 Q2144.22 1432.67 2144.22 1419.58 Q2144.22 1406.45 2148.81 1399.58 Q2153.42 1392.67 2162.14 1392.67 Z" fill="#000000" fill-rule="evenodd" fill-opacity="1" /><path clip-path="url(#clip990)" d="M2207.38 1398.22 Q2201.96 1398.22 2199.22 1403.57 Q2196.51 1408.88 2196.51 1419.58 Q2196.51 1430.24 2199.22 1435.58 Q2201.96 1440.9 2207.38 1440.9 Q2212.83 1440.9 2215.54 1435.58 Q2218.28 1430.24 2218.28 1419.58 Q2218.28 1408.88 2215.54 1403.57 Q2212.83 1398.22 2207.38 1398.22 M2207.38 1392.67 Q2216.1 1392.67 2220.68 1399.58 Q2225.3 1406.45 2225.3 1419.58 Q2225.3 1432.67 2220.68 1439.58 Q2216.1 1446.45 2207.38 1446.45 Q2198.67 1446.45 2194.05 1439.58 Q2189.46 1432.67 2189.46 1419.58 Q2189.46 1406.45 2194.05 1399.58 Q2198.67 1392.67 2207.38 1392.67 Z" fill="#000000" fill-rule="evenodd" fill-opacity="1" /><path clip-path="url(#clip990)" d="M2252.62 1398.22 Q2247.21 1398.22 2244.46 1403.57 Q2241.76 1408.88 2241.76 1419.58 Q2241.76 1430.24 2244.46 1435.58 Q2247.21 1440.9 2252.62 1440.9 Q2258.08 1440.9 2260.78 1435.58 Q2263.53 1430.24 2263.53 1419.58 Q2263.53 1408.88 2260.78 1403.57 Q2258.08 1398.22 2252.62 1398.22 M2252.62 1392.67 Q2261.34 1392.67 2265.92 1399.58 Q2270.54 1406.45 2270.54 1419.58 Q2270.54 1432.67 2265.92 1439.58 Q2261.34 1446.45 2252.62 1446.45 Q2243.91 1446.45 2239.29 1439.58 Q2234.71 1432.67 2234.71 1419.58 Q2234.71 1406.45 2239.29 1399.58 Q2243.91 1392.67 2252.62 1392.67 Z" fill="#000000" fill-rule="evenodd" fill-opacity="1" /><path clip-path="url(#clip990)" d="M1125.01 1491.84 L1145.95 1547.78 L1138.05 1547.78 L1125.33 1514.24 L1109.69 1547.78 L1101.8 1547.78 L1121.69 1504.27 L1118.69 1496.25 Q1116.78 1491.15 1112.45 1491.15 L1108.56 1491.15 L1108.56 1484.75 L1113.3 1484.83 Q1122.45 1484.95 1125.01 1491.84 Z" fill="#000000" fill-rule="evenodd" fill-opacity="1" /><path clip-path="url(#clip990)" d="M1181.92 1484.75 L1199.1 1484.75 L1199.1 1490.54 L1189.38 1490.54 L1189.38 1552.92 L1199.1 1552.92 L1199.1 1558.72 L1181.92 1558.72 L1181.92 1484.75 Z" fill="#000000" fill-rule="evenodd" fill-opacity="1" /><path clip-path="url(#clip990)" d="M1252.69 1520.4 L1252.69 1547.78 L1245.24 1547.78 L1245.24 1520.64 Q1245.24 1514.2 1242.73 1511 Q1240.21 1507.8 1235.19 1507.8 Q1229.16 1507.8 1225.67 1511.65 Q1222.19 1515.49 1222.19 1522.14 L1222.19 1547.78 L1214.69 1547.78 L1214.69 1502.41 L1222.19 1502.41 L1222.19 1509.46 Q1224.86 1505.37 1228.47 1503.34 Q1232.11 1501.32 1236.85 1501.32 Q1244.67 1501.32 1248.68 1506.18 Q1252.69 1511 1252.69 1520.4 Z" fill="#000000" fill-rule="evenodd" fill-opacity="1" /><path clip-path="url(#clip990)" d="M1302.88 1511.12 Q1305.68 1506.1 1309.57 1503.71 Q1313.46 1501.32 1318.72 1501.32 Q1325.81 1501.32 1329.66 1506.3 Q1333.51 1511.24 1333.51 1520.4 L1333.51 1547.78 L1326.01 1547.78 L1326.01 1520.64 Q1326.01 1514.12 1323.7 1510.96 Q1321.39 1507.8 1316.66 1507.8 Q1310.86 1507.8 1307.5 1511.65 Q1304.14 1515.49 1304.14 1522.14 L1304.14 1547.78 L1296.64 1547.78 L1296.64 1520.64 Q1296.64 1514.08 1294.33 1510.96 Q1292.03 1507.8 1287.21 1507.8 Q1281.49 1507.8 1278.13 1511.69 Q1274.77 1515.53 1274.77 1522.14 L1274.77 1547.78 L1267.27 1547.78 L1267.27 1502.41 L1274.77 1502.41 L1274.77 1509.46 Q1277.32 1505.29 1280.89 1503.3 Q1284.45 1501.32 1289.35 1501.32 Q1294.29 1501.32 1297.74 1503.83 Q1301.22 1506.34 1302.88 1511.12 Z" fill="#000000" fill-rule="evenodd" fill-opacity="1" /><path clip-path="url(#clip990)" d="M1365.79 1484.75 L1365.79 1558.72 L1348.62 1558.72 L1348.62 1552.92 L1358.3 1552.92 L1358.3 1490.54 L1348.62 1490.54 L1348.62 1484.75 L1365.79 1484.75 Z" fill="#000000" fill-rule="evenodd" fill-opacity="1" /><polyline clip-path="url(#clip990)" style="stroke:#000000; stroke-linecap:butt; stroke-linejoin:round; stroke-width:4; stroke-opacity:1; fill:none" points="
  146.328,1361.44 146.328,78.7402 
  "/>
<path clip-path="url(#clip990)" d="M12.7 1405.47 L53.0123 1405.47 L53.0123 1397 Q53.0123 1386.27 48.1512 1381.3 Q43.2902 1376.3 32.8041 1376.3 Q22.3875 1376.3 17.5611 1381.3 Q12.7 1386.27 12.7 1397 L12.7 1405.47 M6.93619 1412.48 L6.93619 1398.07 Q6.93619 1383.01 13.2209 1375.96 Q19.4708 1368.91 32.8041 1368.91 Q46.2068 1368.91 52.4915 1375.99 Q58.7762 1383.07 58.7762 1398.07 L58.7762 1412.48 L6.93619 1412.48 Z" fill="#000000" fill-rule="evenodd" fill-opacity="1" /><path clip-path="url(#clip990)" d="M24.3667 1342.94 Q24.3667 1348.07 28.3944 1351.06 Q32.3874 1354.05 39.3666 1354.05 Q46.3457 1354.05 50.3735 1351.1 Q54.3665 1348.11 54.3665 1342.94 Q54.3665 1337.83 50.3387 1334.85 Q46.311 1331.86 39.3666 1331.86 Q32.4569 1331.86 28.4291 1334.85 Q24.3667 1337.83 24.3667 1342.94 M18.95 1342.94 Q18.95 1334.6 24.3667 1329.85 Q29.7833 1325.09 39.3666 1325.09 Q48.9151 1325.09 54.3665 1329.85 Q59.7831 1334.6 59.7831 1342.94 Q59.7831 1351.3 54.3665 1356.06 Q48.9151 1360.78 39.3666 1360.78 Q29.7833 1360.78 24.3667 1356.06 Q18.95 1351.3 18.95 1342.94 Z" fill="#000000" fill-rule="evenodd" fill-opacity="1" /><path clip-path="url(#clip990)" d="M19.8875 1318.21 L19.8875 1311.82 L50.2346 1303.84 L19.8875 1295.89 L19.8875 1288.35 L50.2346 1280.37 L19.8875 1272.42 L19.8875 1266.03 L58.7762 1276.2 L58.7762 1283.73 L26.9014 1292.1 L58.7762 1300.51 L58.7762 1308.04 L19.8875 1318.21 Z" fill="#000000" fill-rule="evenodd" fill-opacity="1" /><path clip-path="url(#clip990)" d="M35.3041 1224.01 L58.7762 1224.01 L58.7762 1230.4 L35.5124 1230.4 Q29.9916 1230.4 27.2486 1232.55 Q24.5055 1234.71 24.5055 1239.01 Q24.5055 1244.19 27.8041 1247.17 Q31.1027 1250.16 36.7971 1250.16 L58.7762 1250.16 L58.7762 1256.58 L19.8875 1256.58 L19.8875 1250.16 L25.9291 1250.16 Q22.4222 1247.87 20.6861 1244.78 Q18.95 1241.65 18.95 1237.59 Q18.95 1230.89 23.1167 1227.45 Q27.2486 1224.01 35.3041 1224.01 Z" fill="#000000" fill-rule="evenodd" fill-opacity="1" /><path clip-path="url(#clip990)" d="M19.8875 1214.99 L19.8875 1208.6 L50.2346 1200.61 L19.8875 1192.66 L19.8875 1185.12 L50.2346 1177.14 L19.8875 1169.19 L19.8875 1162.8 L58.7762 1172.97 L58.7762 1180.51 L26.9014 1188.87 L58.7762 1197.28 L58.7762 1204.81 L19.8875 1214.99 Z" fill="#000000" fill-rule="evenodd" fill-opacity="1" /><path clip-path="url(#clip990)" d="M37.7346 1119.85 L40.8596 1119.85 L40.8596 1149.22 Q47.4568 1148.8 50.929 1145.26 Q54.3665 1141.69 54.3665 1135.33 Q54.3665 1131.65 53.4637 1128.21 Q52.5609 1124.74 50.7554 1121.34 L56.797 1121.34 Q58.2554 1124.78 59.0192 1128.39 Q59.7831 1132 59.7831 1135.71 Q59.7831 1145.02 54.3665 1150.47 Q48.9499 1155.89 39.7138 1155.89 Q30.1652 1155.89 24.575 1150.75 Q18.95 1145.58 18.95 1136.83 Q18.95 1128.98 24.0194 1124.43 Q29.0541 1119.85 37.7346 1119.85 M35.8596 1126.24 Q30.6166 1126.31 27.4916 1129.19 Q24.3667 1132.03 24.3667 1136.76 Q24.3667 1142.1 27.3875 1145.33 Q30.4083 1148.53 35.8944 1149.01 L35.8596 1126.24 Z" fill="#000000" fill-rule="evenodd" fill-opacity="1" /><path clip-path="url(#clip990)" d="M4.7487 1109.36 L4.7487 1102.97 L58.7762 1102.97 L58.7762 1109.36 L4.7487 1109.36 Z" fill="#000000" fill-rule="evenodd" fill-opacity="1" /><path clip-path="url(#clip990)" d="M4.7487 1089.6 L4.7487 1083.22 L58.7762 1083.22 L58.7762 1089.6 L4.7487 1089.6 Z" fill="#000000" fill-rule="evenodd" fill-opacity="1" /><path clip-path="url(#clip990)" d="M19.8875 1069.85 L19.8875 1063.46 L58.7762 1063.46 L58.7762 1069.85 L19.8875 1069.85 M4.7487 1069.85 L4.7487 1063.46 L12.8389 1063.46 L12.8389 1069.85 L4.7487 1069.85 Z" fill="#000000" fill-rule="evenodd" fill-opacity="1" /><path clip-path="url(#clip990)" d="M35.3041 1017.76 L58.7762 1017.76 L58.7762 1024.15 L35.5124 1024.15 Q29.9916 1024.15 27.2486 1026.31 Q24.5055 1028.46 24.5055 1032.76 Q24.5055 1037.94 27.8041 1040.92 Q31.1027 1043.91 36.7971 1043.91 L58.7762 1043.91 L58.7762 1050.33 L19.8875 1050.33 L19.8875 1043.91 L25.9291 1043.91 Q22.4222 1041.62 20.6861 1038.53 Q18.95 1035.4 18.95 1031.34 Q18.95 1024.64 23.1167 1021.2 Q27.2486 1017.76 35.3041 1017.76 Z" fill="#000000" fill-rule="evenodd" fill-opacity="1" /><path clip-path="url(#clip990)" d="M38.8805 979.431 Q31.9361 979.431 28.1166 982.313 Q24.2972 985.16 24.2972 990.334 Q24.2972 995.472 28.1166 998.354 Q31.9361 1001.2 38.8805 1001.2 Q45.7901 1001.2 49.6096 998.354 Q53.429 995.472 53.429 990.334 Q53.429 985.16 49.6096 982.313 Q45.7901 979.431 38.8805 979.431 M53.9498 973.042 Q63.8803 973.042 68.7067 977.452 Q73.5678 981.861 73.5678 990.959 Q73.5678 994.327 73.0469 997.313 Q72.5608 1000.3 71.5192 1003.11 L65.3039 1003.11 Q66.8317 1000.3 67.5609 997.556 Q68.29 994.813 68.29 991.966 Q68.29 985.681 64.9914 982.556 Q61.7276 979.431 55.0957 979.431 L51.9359 979.431 Q55.3734 981.41 57.0748 984.5 Q58.7762 987.591 58.7762 991.896 Q58.7762 999.049 53.3248 1003.42 Q47.8735 1007.8 38.8805 1007.8 Q29.8527 1007.8 24.4014 1003.42 Q18.95 999.049 18.95 991.896 Q18.95 987.591 20.6514 984.5 Q22.3528 981.41 25.7903 979.431 L19.8875 979.431 L19.8875 973.042 L53.9498 973.042 Z" fill="#000000" fill-rule="evenodd" fill-opacity="1" /><path clip-path="url(#clip990)" d="M6.93619 937.001 L6.93619 929.987 L58.7762 929.987 L58.7762 937.001 L6.93619 937.001 Z" fill="#000000" fill-rule="evenodd" fill-opacity="1" /><path clip-path="url(#clip990)" d="M25.8597 893.772 Q25.2347 894.848 24.9569 896.133 Q24.6444 897.383 24.6444 898.91 Q24.6444 904.327 28.1861 907.244 Q31.693 910.126 38.2902 910.126 L58.7762 910.126 L58.7762 916.549 L19.8875 916.549 L19.8875 910.126 L25.9291 910.126 Q22.3875 908.112 20.6861 904.883 Q18.95 901.653 18.95 897.035 Q18.95 896.376 19.0542 895.577 Q19.1236 894.779 19.2972 893.806 L25.8597 893.772 Z" fill="#000000" fill-rule="evenodd" fill-opacity="1" /><path clip-path="url(#clip990)" d="M25.8597 865.786 Q25.2347 866.862 24.9569 868.147 Q24.6444 869.397 24.6444 870.924 Q24.6444 876.341 28.1861 879.258 Q31.693 882.14 38.2902 882.14 L58.7762 882.14 L58.7762 888.563 L19.8875 888.563 L19.8875 882.14 L25.9291 882.14 Q22.3875 880.126 20.6861 876.897 Q18.95 873.668 18.95 869.05 Q18.95 868.39 19.0542 867.591 Q19.1236 866.793 19.2972 865.82 L25.8597 865.786 Z" fill="#000000" fill-rule="evenodd" fill-opacity="1" /><path clip-path="url(#clip990)" d="M39.2277 841.411 Q39.2277 849.154 40.9985 852.14 Q42.7693 855.126 47.0401 855.126 Q50.4429 855.126 52.4568 852.904 Q54.4359 850.647 54.4359 846.793 Q54.4359 841.48 50.686 838.286 Q46.9013 835.057 40.6513 835.057 L39.2277 835.057 L39.2277 841.411 M36.5888 828.668 L58.7762 828.668 L58.7762 835.057 L52.8734 835.057 Q56.4151 837.244 58.1165 840.508 Q59.7831 843.772 59.7831 848.494 Q59.7831 854.466 56.4498 858.008 Q53.0818 861.515 47.4568 861.515 Q40.8943 861.515 37.561 857.14 Q34.2277 852.73 34.2277 844.015 L34.2277 835.057 L33.6027 835.057 Q29.193 835.057 26.7972 837.973 Q24.3667 840.855 24.3667 846.098 Q24.3667 849.432 25.1653 852.591 Q25.9639 855.751 27.5611 858.668 L21.6583 858.668 Q20.3042 855.161 19.6445 851.862 Q18.95 848.564 18.95 845.439 Q18.95 837.001 23.325 832.834 Q27.7 828.668 36.5888 828.668 Z" fill="#000000" fill-rule="evenodd" fill-opacity="1" /><path clip-path="url(#clip990)" d="M25.7903 789.918 L4.7487 789.918 L4.7487 783.529 L58.7762 783.529 L58.7762 789.918 L52.9429 789.918 Q56.4151 791.932 58.1165 795.022 Q59.7831 798.078 59.7831 802.383 Q59.7831 809.432 54.1582 813.876 Q48.5332 818.286 39.3666 818.286 Q30.2 818.286 24.575 813.876 Q18.95 809.432 18.95 802.383 Q18.95 798.078 20.6514 795.022 Q22.3181 791.932 25.7903 789.918 M39.3666 811.689 Q46.4151 811.689 50.4429 808.807 Q54.4359 805.89 54.4359 800.821 Q54.4359 795.751 50.4429 792.835 Q46.4151 789.918 39.3666 789.918 Q32.318 789.918 28.325 792.835 Q24.2972 795.751 24.2972 800.821 Q24.2972 805.89 28.325 808.807 Q32.318 811.689 39.3666 811.689 Z" fill="#000000" fill-rule="evenodd" fill-opacity="1" /><path clip-path="url(#clip990)" d="M19.8875 770.369 L19.8875 763.981 L58.7762 763.981 L58.7762 770.369 L19.8875 770.369 M4.7487 770.369 L4.7487 763.981 L12.8389 763.981 L12.8389 770.369 L4.7487 770.369 Z" fill="#000000" fill-rule="evenodd" fill-opacity="1" /><path clip-path="url(#clip990)" d="M39.2277 732.939 Q39.2277 740.682 40.9985 743.668 Q42.7693 746.654 47.0401 746.654 Q50.4429 746.654 52.4568 744.432 Q54.4359 742.175 54.4359 738.321 Q54.4359 733.009 50.686 729.814 Q46.9013 726.585 40.6513 726.585 L39.2277 726.585 L39.2277 732.939 M36.5888 720.196 L58.7762 720.196 L58.7762 726.585 L52.8734 726.585 Q56.4151 728.772 58.1165 732.036 Q59.7831 735.3 59.7831 740.022 Q59.7831 745.995 56.4498 749.536 Q53.0818 753.043 47.4568 753.043 Q40.8943 753.043 37.561 748.668 Q34.2277 744.259 34.2277 735.543 L34.2277 726.585 L33.6027 726.585 Q29.193 726.585 26.7972 729.502 Q24.3667 732.384 24.3667 737.627 Q24.3667 740.96 25.1653 744.12 Q25.9639 747.279 27.5611 750.196 L21.6583 750.196 Q20.3042 746.689 19.6445 743.39 Q18.95 740.092 18.95 736.967 Q18.95 728.529 23.325 724.363 Q27.7 720.196 36.5888 720.196 Z" fill="#000000" fill-rule="evenodd" fill-opacity="1" /><path clip-path="url(#clip990)" d="M35.3041 674.71 L58.7762 674.71 L58.7762 681.099 L35.5124 681.099 Q29.9916 681.099 27.2486 683.252 Q24.5055 685.405 24.5055 689.71 Q24.5055 694.884 27.8041 697.87 Q31.1027 700.856 36.7971 700.856 L58.7762 700.856 L58.7762 707.28 L19.8875 707.28 L19.8875 700.856 L25.9291 700.856 Q22.4222 698.564 20.6861 695.474 Q18.95 692.349 18.95 688.287 Q18.95 681.585 23.1167 678.148 Q27.2486 674.71 35.3041 674.71 Z" fill="#000000" fill-rule="evenodd" fill-opacity="1" /><path clip-path="url(#clip990)" d="M21.3806 633.981 L27.3527 633.981 Q25.8597 636.69 25.1305 639.433 Q24.3667 642.141 24.3667 644.919 Q24.3667 651.134 28.325 654.571 Q32.2486 658.009 39.3666 658.009 Q46.4846 658.009 50.4429 654.571 Q54.3665 651.134 54.3665 644.919 Q54.3665 642.141 53.6373 639.433 Q52.8734 636.69 51.3804 633.981 L57.2831 633.981 Q58.5331 636.655 59.1581 639.537 Q59.7831 642.384 59.7831 645.613 Q59.7831 654.398 54.2623 659.571 Q48.7415 664.745 39.3666 664.745 Q29.8527 664.745 24.4014 659.537 Q18.95 654.294 18.95 645.197 Q18.95 642.245 19.575 639.433 Q20.1653 636.62 21.3806 633.981 Z" fill="#000000" fill-rule="evenodd" fill-opacity="1" /><path clip-path="url(#clip990)" d="M37.7346 589.607 L40.8596 589.607 L40.8596 618.981 Q47.4568 618.565 50.929 615.023 Q54.3665 611.447 54.3665 605.093 Q54.3665 601.412 53.4637 597.975 Q52.5609 594.502 50.7554 591.1 L56.797 591.1 Q58.2554 594.537 59.0192 598.148 Q59.7831 601.759 59.7831 605.475 Q59.7831 614.78 54.3665 620.231 Q48.9499 625.648 39.7138 625.648 Q30.1652 625.648 24.575 620.509 Q18.95 615.336 18.95 606.586 Q18.95 598.738 24.0194 594.19 Q29.0541 589.607 37.7346 589.607 M35.8596 595.995 Q30.6166 596.065 27.4916 598.947 Q24.3667 601.794 24.3667 606.516 Q24.3667 611.863 27.3875 615.093 Q30.4083 618.287 35.8944 618.773 L35.8596 595.995 Z" fill="#000000" fill-rule="evenodd" fill-opacity="1" /><path clip-path="url(#clip990)" d="M4.7487 557.107 L4.7487 542.385 L9.71395 542.385 L9.71395 550.718 L63.1859 550.718 L63.1859 542.385 L68.1511 542.385 L68.1511 557.107 L4.7487 557.107 Z" fill="#000000" fill-rule="evenodd" fill-opacity="1" /><path clip-path="url(#clip990)" d="M73.5678 529.433 L19.8875 529.433 L19.8875 523.044 L44.054 523.044 Q49.0887 523.044 51.6582 520.649 Q54.2276 518.253 54.2276 513.565 Q54.2276 508.426 51.311 505.857 Q48.3943 503.253 42.561 503.253 L19.8875 503.253 L19.8875 496.864 L49.8179 496.864 Q51.9012 496.864 52.9082 496.274 Q53.8804 495.649 53.8804 494.364 Q53.8804 494.052 53.7068 493.496 Q53.4984 492.94 53.0818 491.968 L58.2206 491.968 Q59.0192 493.392 59.4012 494.677 Q59.7831 495.927 59.7831 497.142 Q59.7831 499.538 58.429 500.961 Q57.0748 502.385 54.297 502.906 Q57.0401 504.642 58.429 507.176 Q59.7831 509.676 59.7831 513.079 Q59.7831 516.621 58.429 519.121 Q57.0748 521.586 54.3665 523.044 L73.5678 523.044 L73.5678 529.433 Z" fill="#000000" fill-rule="evenodd" fill-opacity="1" /><path clip-path="url(#clip990)" d="M6.93619 487.871 L6.93619 480.788 L50.7554 469.885 L6.93619 459.017 L6.93619 451.135 L50.7554 440.232 L6.93619 429.364 L6.93619 422.246 L58.7762 435.267 L58.7762 444.087 L13.7764 455.024 L58.7762 466.066 L58.7762 474.885 L6.93619 487.871 Z" fill="#000000" fill-rule="evenodd" fill-opacity="1" /><path clip-path="url(#clip990)" d="M21.3806 362.629 L27.3527 362.629 Q25.8597 365.337 25.1305 368.08 Q24.3667 370.788 24.3667 373.566 Q24.3667 379.781 28.325 383.219 Q32.2486 386.656 39.3666 386.656 Q46.4846 386.656 50.4429 383.219 Q54.3665 379.781 54.3665 373.566 Q54.3665 370.788 53.6373 368.08 Q52.8734 365.337 51.3804 362.629 L57.2831 362.629 Q58.5331 365.302 59.1581 368.184 Q59.7831 371.031 59.7831 374.26 Q59.7831 383.045 54.2623 388.219 Q48.7415 393.392 39.3666 393.392 Q29.8527 393.392 24.4014 388.184 Q18.95 382.941 18.95 373.844 Q18.95 370.892 19.575 368.08 Q20.1653 365.267 21.3806 362.629 Z" fill="#000000" fill-rule="evenodd" fill-opacity="1" /><path clip-path="url(#clip990)" d="M27.3527 321.24 Q23.0472 318.844 20.9986 315.511 Q18.95 312.177 18.95 307.664 Q18.95 301.587 23.2208 298.289 Q27.4569 294.99 35.3041 294.99 L58.7762 294.99 L58.7762 301.414 L35.5124 301.414 Q29.9222 301.414 27.2139 303.393 Q24.5055 305.372 24.5055 309.434 Q24.5055 314.4 27.8041 317.282 Q31.1027 320.164 36.7971 320.164 L58.7762 320.164 L58.7762 326.587 L35.5124 326.587 Q29.8875 326.587 27.2139 328.566 Q24.5055 330.545 24.5055 334.677 Q24.5055 339.573 27.8389 342.455 Q31.1374 345.337 36.7971 345.337 L58.7762 345.337 L58.7762 351.761 L19.8875 351.761 L19.8875 345.337 L25.9291 345.337 Q22.3528 343.15 20.6514 340.094 Q18.95 337.038 18.95 332.837 Q18.95 328.601 21.1028 325.65 Q23.2555 322.664 27.3527 321.24 Z" fill="#000000" fill-rule="evenodd" fill-opacity="1" /><path clip-path="url(#clip990)" d="M21.45 284.192 L21.45 256.171 L24.7486 256.171 L24.7486 284.192 L21.45 284.192 Z" fill="#000000" fill-rule="evenodd" fill-opacity="1" /><path clip-path="url(#clip990)" d="M31.6236 242.108 L31.6236 227.386 L35.5819 227.386 L35.5819 248.15 L31.7624 248.15 Q30.6861 246.97 28.7416 244.782 Q18.1514 232.838 14.8875 232.838 Q12.5959 232.838 11.207 234.643 Q9.7834 236.449 9.7834 239.4 Q9.7834 241.206 10.4084 243.324 Q10.9987 245.442 12.2139 247.942 L7.94313 247.942 Q6.97091 245.268 6.4848 242.976 Q5.99869 240.65 5.99869 238.671 Q5.99869 233.636 8.29035 230.615 Q10.582 227.595 14.332 227.595 Q19.1583 227.595 29.0194 239.088 Q30.6861 241.032 31.6236 242.108 Z" fill="#000000" fill-rule="evenodd" fill-opacity="1" /><path clip-path="url(#clip990)" d="M73.5678 194.261 L19.8875 194.261 L19.8875 187.873 L44.054 187.873 Q49.0887 187.873 51.6582 185.477 Q54.2276 183.081 54.2276 178.393 Q54.2276 173.255 51.311 170.685 Q48.3943 168.081 42.561 168.081 L19.8875 168.081 L19.8875 161.692 L49.8179 161.692 Q51.9012 161.692 52.9082 161.102 Q53.8804 160.477 53.8804 159.192 Q53.8804 158.88 53.7068 158.324 Q53.4984 157.769 53.0818 156.796 L58.2206 156.796 Q59.0192 158.22 59.4012 159.505 Q59.7831 160.755 59.7831 161.97 Q59.7831 164.366 58.429 165.789 Q57.0748 167.213 54.297 167.734 Q57.0401 169.47 58.429 172.005 Q59.7831 174.505 59.7831 177.907 Q59.7831 181.449 58.429 183.949 Q57.0748 186.414 54.3665 187.873 L73.5678 187.873 L73.5678 194.261 Z" fill="#000000" fill-rule="evenodd" fill-opacity="1" /><path clip-path="url(#clip990)" d="M27.3527 118.081 Q23.0472 115.685 20.9986 112.352 Q18.95 109.019 18.95 104.505 Q18.95 98.4286 23.2208 95.13 Q27.4569 91.8314 35.3041 91.8314 L58.7762 91.8314 L58.7762 98.255 L35.5124 98.255 Q29.9222 98.255 27.2139 100.234 Q24.5055 102.213 24.5055 106.276 Q24.5055 111.241 27.8041 114.123 Q31.1027 117.005 36.7971 117.005 L58.7762 117.005 L58.7762 123.428 L35.5124 123.428 Q29.8875 123.428 27.2139 125.408 Q24.5055 127.387 24.5055 131.519 Q24.5055 136.415 27.8389 139.296 Q31.1374 142.178 36.7971 142.178 L58.7762 142.178 L58.7762 148.602 L19.8875 148.602 L19.8875 142.178 L25.9291 142.178 Q22.3528 139.991 20.6514 136.935 Q18.95 133.88 18.95 129.678 Q18.95 125.442 21.1028 122.491 Q23.2555 119.505 27.3527 118.081 Z" fill="#000000" fill-rule="evenodd" fill-opacity="1" /><path clip-path="url(#clip990)" d="M21.45 81.0329 L21.45 53.0122 L24.7486 53.0122 L24.7486 81.0329 L21.45 81.0329 Z" fill="#000000" fill-rule="evenodd" fill-opacity="1" /><path clip-path="url(#clip990)" d="M31.7624 42.8387 L31.7624 35.7554 L10.5473 35.7554 L11.9709 43.4984 L7.94313 43.4984 L6.58897 35.5123 L6.58897 30.7554 L31.7624 30.7554 L31.7624 23.6374 L35.5819 23.6374 L35.5819 42.8387 L31.7624 42.8387 Z" fill="#000000" fill-rule="evenodd" fill-opacity="1" /><path clip-path="url(#clip990)" d="M4.7487 -1.88333 L68.1511 -1.88333 L68.1511 12.8388 L63.1859 12.8388 L63.1859 4.54025 L9.71395 4.54025 L9.71395 12.8388 L4.7487 12.8388 L4.7487 -1.88333 Z" fill="#000000" fill-rule="evenodd" fill-opacity="1" /><polyline clip-path="url(#clip992)" style="stroke:#ffa500; stroke-linecap:butt; stroke-linejoin:round; stroke-width:12; stroke-opacity:1; fill:none" points="
  207.883,1233.94 209.03,1323.02 210.178,1323.02 211.323,1324.64 212.47,1324.82 213.618,1325.14 214.765,1324.95 215.91,1325.14 217.058,1324.79 218.205,1324.65 
  219.35,1324.09 220.497,1323.77 221.642,1323.45 222.79,1323.11 223.934,1322.56 225.082,1322.11 226.226,1321.51 227.371,1320.96 228.515,1320.42 229.663,1319.91 
  230.808,1319.41 231.952,1318.75 233.097,1318.36 234.241,1304.77 235.386,1271.72 236.531,1269.38 237.675,1266.88 238.82,1265.68 239.961,1263.88 241.106,1262.97 
  242.251,1262.37 243.395,1261.57 244.537,1261.77 245.681,1261.23 246.823,1260.12 247.967,1258.13 249.109,1256.63 250.254,1255.22 251.395,1253.81 252.537,1253.48 
  253.681,1253.46 254.823,1254.72 255.965,1255.97 257.106,1258.22 258.248,1260.03 259.389,1261.46 260.531,1262.56 261.673,1263.25 262.814,1263.37 263.956,1261.73 
  265.097,1259.91 266.239,1257.02 267.381,1255.01 268.519,1252.6 269.661,1252.58 270.802,1252.07 271.941,1252.59 273.083,1252.43 274.221,1251.35 275.363,1249.69 
  276.501,1248.65 277.643,1247.35 278.782,1245.79 279.92,1245.35 281.059,1245.07 282.2,1245.58 283.339,1244.81 284.478,1244.93 285.616,1243.13 286.755,1241.51 
  287.893,1239.97 289.032,1239.52 290.171,1238.81 291.309,1237.36 292.448,1236.37 293.583,1235.72 294.722,1237.26 295.861,1238.44 296.996,1238.17 298.135,1237.68 
  299.27,1237.26 300.409,1237.43 301.545,1237.29 302.683,1238.14 303.819,1239.16 304.957,1239.61 306.093,1241.14 307.229,1242.97 308.364,1244.43 309.5,1244.05 
  310.638,1244.1 311.774,1243.7 312.91,1241.23 314.045,1238.05 315.181,1234.51 316.313,1231.38 317.449,1227.66 318.585,1223.71 319.72,1220.37 320.856,1216.75 
  321.988,1214.38 323.124,1213.69 324.257,1214.39 325.392,1214.98 326.528,1217.42 327.66,1218.06 328.793,1218.78 329.929,1218.82 331.061,1220.38 332.194,1222.29 
  333.329,1225.64 334.462,1230.64 335.595,1235.4 336.727,1238.39 337.86,1240.23 338.992,1238.87 340.125,1235.03 341.258,1229.73 342.39,1225.76 343.523,1221.86 
  344.655,1218.1 345.785,1216.19 346.918,1215.58 348.05,1214.91 349.18,1213.74 350.312,1212.01 351.445,1210.88 352.575,1209.33 353.704,1207.31 354.837,1201.43 
  355.967,1196.79 357.099,1191.38 358.229,1186.59 359.358,1182.12 360.488,1179.74 361.618,1178.86 362.75,1181 363.88,1185.77 365.009,1193.28 366.139,1201.83 
  367.266,1210.88 368.395,1214.01 369.525,1212.85 370.654,1207.52 371.784,1198.11 372.911,1187.35 374.04,1180.74 375.17,1178.92 376.296,1182.84 377.426,1186.38 
  378.553,1188.38 379.682,1184.63 380.809,1175.81 381.939,1162.39 383.065,1145.22 384.192,1128.89 385.318,1116.27 386.445,1107.4 387.575,1101.31 388.701,1096.26 
  389.828,1093.02 390.954,1087.89 392.081,1084.47 393.208,1082.59 394.331,1079.15 395.458,1079.47 396.584,1078.83 397.711,1077.47 398.838,1077.61 399.961,1078.57 
  401.088,1080.56 402.212,1078.27 403.338,1079.29 404.462,1079.51 405.588,1080.82 406.712,1077.36 407.839,1075.6 408.962,1074.77 410.086,1072.96 411.209,1069.7 
  412.333,1065.04 413.46,1060.38 414.583,1059.03 415.707,1057.39 416.831,1057.14 417.954,1058.32 419.075,1060.02 420.198,1054.85 421.322,1050.14 422.446,1043.57 
  423.569,1036.21 424.69,1032.83 425.813,1030.82 426.937,1030.08 428.058,1028.78 429.181,1029.09 430.302,1028.79 431.423,1025.36 432.546,1024.59 433.667,1023.85 
  434.787,1021.44 435.911,1020.14 437.032,1017.44 438.152,1018.52 439.273,1018.86 440.394,1017.65 441.514,1022.48 442.635,1021.82 443.755,1022.44 444.876,1019.51 
  445.997,1018.21 447.117,1016.91 448.235,1014.75 449.356,1009.94 450.476,1005.69 451.594,1003.85 452.714,1002.69 453.832,1003.5 454.953,1006.67 456.07,1008.29 
  457.191,1008.3 458.308,1009.3 459.426,1008.14 460.547,1002.56 461.664,1001.02 462.782,999.658 463.9,1000.72 465.017,1000.38 466.135,1000.82 467.252,1000.92 
  468.37,1001.67 469.488,1006.01 470.605,1002.52 471.723,1004.78 472.841,1010.36 473.955,1012.65 475.073,1016.81 476.19,1024.33 477.305,1032.23 478.423,1040.4 
  479.537,1042.04 480.655,1038.48 481.77,1026.53 482.887,1009.72 484.002,996.329 485.116,982.81 486.231,972.302 487.349,965.027 488.463,968.939 489.578,964.668 
  490.693,962.786 491.807,960.333 492.922,955.057 494.036,945.286 495.151,936.993 496.263,930.024 497.377,923.876 498.492,923.613 499.607,923.214 500.718,925.335 
  501.833,932.824 502.948,938.879 504.059,936.279 505.174,932.373 506.285,928.612 507.397,925.302 508.512,915.665 509.623,907.204 510.735,899.378 511.847,892.687 
  512.961,888.825 514.073,879.264 515.184,873.598 516.296,873.178 517.408,867.816 518.519,865.565 519.631,864.207 520.743,859.998 521.851,857.939 522.963,861.536 
  524.074,860.411 525.186,861.877 526.295,858.326 527.406,861.098 528.515,855.498 529.627,848.681 530.735,836.311 531.847,832.22 532.956,825.757 534.064,824.241 
  535.176,820.615 536.284,815.748 537.393,809.546 538.502,804.674 539.61,802.744 540.719,798.022 541.828,797.077 542.936,796.531 544.045,801.847 545.154,806.822 
  546.262,819.524 547.371,820.25 548.476,816.884 549.585,816.207 550.694,814.009 551.799,810.275 552.908,804.005 554.014,798.929 555.122,796.611 556.228,794.078 
  557.337,789.58 558.442,782.748 559.548,783.114 560.653,778.694 561.762,782.695 562.868,784.193 563.973,781.013 565.079,785.488 566.185,784.09 567.29,783.308 
  568.396,777.495 569.502,773.07 570.604,768.919 571.71,759.042 572.815,758.026 573.921,754.369 575.024,748.969 576.129,746.029 577.232,748.685 578.338,746.443 
  579.44,746.895 580.546,746.333 581.649,751.528 582.754,752.26 583.857,744.894 584.96,744.556 586.062,745.423 587.165,743.931 588.27,742.346 589.373,735.143 
  590.476,735.695 591.578,732.293 592.681,729.271 593.781,717.484 594.883,714.632 595.986,714.046 597.089,717.024 598.191,710.612 599.291,706.139 600.394,702.45 
  601.493,694.454 602.596,682.816 603.695,671.879 604.798,667.614 605.898,659.812 607,653.869 608.1,648.136 609.2,636.733 610.299,640.534 611.399,629.432 
  612.502,623.958 613.601,622.68 614.701,605.504 615.801,601.568 616.9,601.896 617.997,587.677 619.096,585.538 620.196,567.59 621.296,562.137 622.395,549.485 
  623.492,535.917 624.592,526.672 625.688,517.517 626.788,513.687 627.885,498.857 628.984,491.896 630.081,475.452 631.181,471.666 632.277,462.924 633.374,452.105 
  634.471,443.098 635.57,433.764 636.667,431.287 637.763,429.41 638.86,425.4 639.957,425.546 641.053,421.385 642.15,430.802 643.244,443.787 644.34,457.982 
  645.437,463.287 646.534,471.164 647.627,469.362 648.724,461.012 649.818,440.759 650.914,414.126 652.008,394.667 653.105,373.609 654.198,353.649 655.295,333.437 
  656.389,319.164 657.482,307.615 658.576,293.744 659.673,281.986 660.766,280.983 661.86,282.43 662.953,285.4 664.047,278.609 665.141,276.518 666.234,267.145 
  667.325,262.402 668.419,246.632 669.512,234.758 670.606,224.93 671.697,209.233 672.79,204.585 673.881,198.237 674.975,192.107 676.065,188.536 677.159,186.176 
  678.25,185.711 679.343,180.289 680.434,177.13 681.525,185.681 682.615,180.799 683.709,188.79 684.8,188.874 685.89,190.928 686.981,186.151 688.072,189.42 
  689.162,193.864 690.253,199.123 691.341,200.963 692.431,206.762 693.522,200.379 694.612,202.353 695.7,190.146 696.791,189.544 697.878,185.928 698.969,183.043 
  700.057,176.542 701.147,173.614 702.235,166.196 703.326,155.122 704.413,144.195 705.501,136.046 706.589,131.938 707.676,130.979 708.767,130.062 709.855,142.871 
  710.942,142.981 712.03,145.894 713.115,143.148 714.202,140.104 715.29,135.335 716.378,130.013 717.465,128.021 718.55,125.85 719.638,123.983 720.725,121.881 
  721.81,122.267 722.898,120.545 723.982,121.955 725.07,122.592 726.155,133.147 727.239,138.135 728.327,145.499 729.412,150.699 730.496,154.49 731.581,156.367 
  732.666,160.714 733.75,161.385 734.835,175.454 735.92,187.824 737.004,207.813 738.089,227.432 739.174,237.487 740.258,252.233 741.34,256.23 742.425,247.391 
  743.509,239.626 744.591,221.008 745.676,210.122 746.757,192.691 747.842,182.403 748.924,168.376 750.005,160.23 751.09,155.416 752.172,150.483 753.253,152.425 
  754.335,147.71 755.42,150.268 756.501,153.331 757.583,145.82 758.665,141.452 759.746,137.244 760.825,133.85 761.907,127.549 762.988,128.865 764.07,139.713 
  765.152,154.429 766.23,166.797 767.312,182.991 768.391,192.105 769.472,199.42 770.551,193.089 771.633,180.167 772.711,166.227 773.793,150.842 774.872,141.705 
  775.95,131.256 777.029,123.467 778.108,120.382 779.189,117.551 780.268,118.585 781.347,115.043 782.425,120.941 783.504,127.207 784.58,131.788 785.658,139.047 
  786.737,151.259 787.816,151.249 788.894,152.325 789.97,146.41 791.049,142.114 792.124,130.541 793.203,124.936 794.279,121.478 795.357,117.675 796.433,122.507 
  797.509,122.527 798.587,125.962 799.663,131.494 800.739,137.074 801.814,133.553 802.89,134.438 803.966,139.754 805.041,144.043 806.117,152.585 807.193,157.89 
  808.269,167.651 809.344,170.113 810.42,175.775 811.493,170.052 812.568,167.987 813.644,161.008 814.717,158.022 815.792,151.939 816.865,149.324 817.941,148.354 
  819.013,141.744 820.086,151.645 821.162,144.264 822.234,144.473 823.307,142.781 824.38,146.67 825.452,141.893 826.528,148.684 827.601,146.808 828.673,146.742 
  829.743,149.969 830.816,152.979 831.888,153.257 832.961,152.497 834.034,147.754 835.103,148.938 836.176,144.738 837.249,145.862 838.319,142.309 839.391,139.644 
  840.461,141.497 841.534,142.976 842.603,142.24 843.673,145.165 844.746,145.954 845.815,145.034 846.885,143.108 847.955,146.407 849.024,145.183 850.094,140.197 
  851.164,137.582 852.233,139.645 853.303,142.191 854.373,139.891 855.442,144.131 856.512,153.32 857.579,154.988 858.648,162.603 859.718,166.066 860.785,168.627 
  861.855,172.166 862.921,181.074 863.991,186.183 865.058,190.558 866.124,192.063 867.194,188.233 868.261,192.757 869.327,189.996 870.394,190.034 871.461,188.721 
  872.527,185.682 873.594,186.21 874.661,190.369 875.727,188.415 876.794,189.702 877.861,195.246 878.928,193.192 879.991,194.672 881.058,200.02 882.125,203.485 
  883.188,208.34 884.255,215.298 885.319,214.948 886.385,220.591 887.449,224.543 888.516,221.422 889.579,225.729 890.643,228.518 891.707,234.398 892.773,235.203 
  893.837,240.888 894.901,242.785 895.965,251.923 897.028,257.809 898.092,260.687 899.156,260.299 900.216,268.483 901.28,264.594 902.344,260.056 903.407,261.894 
  904.468,253.418 905.532,249.7 906.595,248.328 907.656,247.958 908.717,248.6 909.781,255.191 910.841,257.502 911.905,263.159 912.966,268.157 914.026,274.446 
  915.087,279.008 916.148,276.378 917.211,280.484 918.272,282.65 919.333,288.279 920.393,290.492 921.451,292.803 922.512,300.051 923.573,302.699 924.633,304.697 
  925.694,304.093 926.752,299.168 927.812,297.249 928.87,296.249 929.931,291.449 930.988,292.31 932.049,292.36 933.107,289.646 934.167,289.276 935.225,283.538 
  936.283,288.728 937.341,290.003 938.398,293.909 939.456,294.979 940.517,303.896 941.574,309.433 942.632,314.115 943.687,322.275 944.744,331.521 945.802,334.956 
  946.86,340.959 947.918,344.14 948.972,356.157 950.03,367.303 951.085,384.594 952.142,405.431 953.197,423.466 954.255,445.928 955.309,454.882 956.367,464.999 
  957.422,464.654 958.477,462.429 959.531,457.289 960.589,450.682 961.644,449.056 962.698,443.522 963.753,439.477 964.808,437.452 965.862,436.72 966.914,436.375 
  967.969,438.754 969.024,439.466 970.078,445.531 971.13,444.343 972.185,447.379 973.239,450.806 974.291,447.139 975.346,446.269 976.397,445.134 977.452,442.812 
  978.504,441.062 979.556,444.185 980.607,442.167 981.662,444.424 982.714,444.161 983.765,440.713 984.817,445.35 985.869,442.528 986.921,442.44 987.972,444.533 
  989.024,445.373 990.076,446.601 991.124,447.581 992.176,448.921 993.228,449.886 994.276,447.777 995.328,446.5 996.38,444.61 997.429,440.54 998.477,438.971 
  999.529,432.438 1000.58,432.462 1001.63,435.21 1002.68,434.305 1003.73,435.284 1004.78,439.108 1005.82,438.705 1006.87,438.343 1007.92,441.355 1008.97,445.488 
  1010.02,444.873 1011.07,447.945 1012.12,449.494 1013.17,453.883 1014.21,452.391 1015.26,459.258 1016.31,460.948 1017.35,459.965 1018.4,461.745 1019.45,464.191 
  1020.5,465.185 1021.54,464.991 1022.59,467.72 1023.64,471.716 1024.68,472.283 1025.73,476.276 1026.77,477.027 1027.82,480.574 1028.87,482.075 1029.91,485.839 
  1030.96,490.736 1032.01,493.094 1033.05,497.431 1034.09,500.354 1035.14,504.991 1036.19,509.678 1037.23,513.975 1038.27,509.683 1039.32,508.809 1040.36,503.976 
  1041.41,505.024 1042.45,499.529 1043.49,502.066 1044.54,501.958 1045.58,498.519 1046.63,496.978 1047.67,502.982 1048.71,500.545 1049.76,500.811 1050.8,505.526 
  1051.84,512.14 1052.88,516.82 1053.93,521.745 1054.97,523.718 1056.01,524.901 1057.05,532.883 1058.09,531.62 1059.14,536.5 1060.18,540.011 1061.22,544.889 
  1062.26,550.455 1063.3,548.854 1064.34,553.873 1065.38,558.605 1066.42,559.676 1067.46,564.943 1068.51,572.714 1069.55,576.563 1070.59,580.706 1071.63,584.427 
  1072.67,587.891 1073.71,593.239 1074.75,593.261 1075.79,595.98 1076.82,596.006 1077.86,595.643 1078.9,596.364 1079.94,598.013 1080.98,596.438 1082.02,595.514 
  1083.06,600.394 1084.09,599.733 1085.13,597.873 1086.17,596.975 1087.21,600.373 1088.25,598.34 1089.28,599.639 1090.32,598.998 1091.36,598.18 1092.4,603.523 
  1093.43,603.335 1094.47,604.636 1095.51,606.148 1096.54,607.863 1097.58,605.921 1098.62,606.161 1099.65,607.149 1100.69,605.542 1101.72,608.815 1102.76,607.211 
  1103.79,610.216 1104.83,613.798 1105.87,615.498 1106.9,622.159 1107.94,625.8 1108.97,631.113 1110.01,634.02 1111.04,635.843 1112.07,639.153 1113.11,640.195 
  1114.14,639.953 1115.18,641.568 1116.21,641.308 1117.25,643.828 1118.28,645.298 1119.31,647.829 1120.34,650.788 1121.38,653.687 1122.41,657.115 1123.44,662.493 
  1124.48,666.307 1125.51,671.643 1126.54,678.252 1127.57,682.238 1128.6,691.076 1129.64,693.221 1130.67,697.992 1131.7,701.551 1132.73,707.487 1133.76,708.717 
  1134.79,710.539 1135.83,710.159 1136.86,709.514 1137.89,709.029 1138.92,707.748 1139.95,706.23 1140.98,706.544 1142.01,708.177 1143.04,710.897 1144.07,710.413 
  1145.1,709.315 1146.13,710.542 1147.16,710.642 1148.19,714.988 1149.22,716.922 1150.24,722.146 1151.27,728.841 1152.3,741.306 1153.33,755.244 1154.36,765.76 
  1155.39,778.286 1156.42,783.824 1157.44,786.712 1158.47,782.827 1159.5,774.89 1160.53,767.051 1161.55,761.39 1162.58,756.145 1163.61,750.163 1164.63,745.667 
  1165.66,744.186 1166.69,739.848 1167.71,740.397 1168.74,740.645 1169.77,738.063 1170.8,738.151 1171.82,738.612 1172.85,737.367 1173.87,740.924 1174.9,740.408 
  1175.92,741.957 1176.95,746.161 1177.97,747.63 1179,750.79 1180.02,751.439 1181.05,751.802 1182.07,755.278 1183.1,756.433 1184.12,756.764 1185.14,760.378 
  1186.17,760.258 1187.19,764.807 1188.22,766.32 1189.24,767.477 1190.26,768.416 1191.29,769.402 1192.31,771.1 1193.33,772.199 1194.36,772.099 1195.38,774.925 
  1196.4,775.437 1197.42,778.887 1198.45,781.829 1199.47,781.991 1200.49,786.838 1201.51,787.103 1202.53,787.727 1203.55,792.537 1204.58,791.511 1205.6,794.724 
  1206.62,797.711 1207.64,798.226 1208.66,798.369 1209.68,801.674 1210.7,803.019 1211.72,804.037 1212.74,804.835 1213.76,807.771 1214.78,810.728 1215.8,810.513 
  1216.82,812.267 1217.84,810.53 1218.86,814.531 1219.88,814.767 1220.9,819.395 1221.92,818.107 1222.93,821.572 1223.95,825.266 1224.97,824.42 1225.99,828.962 
  1227.01,829.166 1228.02,830.928 1229.04,834.455 1230.06,835.863 1231.08,835.527 1232.09,835.896 1233.11,837.077 1234.13,838.483 1235.15,840.579 1236.16,846.84 
  1237.18,850.945 1238.19,851.593 1239.21,854.426 1240.23,858.42 1241.24,861.421 1242.26,863.592 1243.28,867.567 1244.29,877.95 1245.31,891.549 1246.32,906.869 
  1247.34,921.877 1248.35,936.052 1249.37,946.562 1250.38,955.448 1251.4,959.673 1252.41,958.941 1253.42,956.724 1254.44,956.477 1255.45,953.615 1256.47,952.801 
  1257.48,947.535 1258.49,944.638 1259.51,941.286 1260.52,935.636 1261.53,936.608 1262.55,936.05 1263.56,935.051 1264.57,935.496 1265.58,939.048 1266.6,942.383 
  1267.61,948.508 1268.62,948.538 1269.63,951.721 1270.64,954.16 1271.66,954.167 1272.67,953.558 1273.68,950.919 1274.69,948.562 1275.7,945.706 1276.71,942.262 
  1277.72,939.535 1278.73,939.196 1279.74,937.274 1280.75,937.989 1281.76,940.824 1282.77,944.704 1283.78,946.77 1284.79,952.1 1285.8,955.89 1286.81,958.576 
  1287.82,960.593 1288.83,962.899 1289.84,964.896 1290.85,969.175 1291.86,969.149 1292.86,969.493 1293.87,968.934 1294.88,968.937 1295.89,969.093 1296.9,965.586 
  1297.9,965.806 1298.91,963.58 1299.92,963.094 1300.93,963.693 1301.93,962.478 1302.94,964.262 1303.95,962.527 1304.95,965.419 1305.96,964.381 1306.97,965.175 
  1307.98,964.593 1308.98,964.869 1309.99,966.398 1310.99,965.636 1312,966.115 1313,966.814 1314.01,966.975 1315.01,967.792 1316.02,968.212 1317.02,968.092 
  1318.03,969.734 1319.03,969.949 1320.04,971.167 1321.04,970.742 1322.05,973.645 1323.05,974.121 1324.05,975.354 1325.06,976.497 1326.06,977.696 1327.06,979.734 
  1328.07,980.96 1329.07,983.889 1330.08,985.499 1331.08,988.602 1332.08,991.092 1333.08,995.411 1334.09,1002.12 1335.09,1010.77 1336.09,1021.12 1337.09,1032.29 
  1338.09,1044.69 1339.09,1055.83 1340.1,1067.31 1341.1,1076.04 1342.1,1083.89 1343.1,1091.69 1344.1,1096.63 1345.1,1100.42 1346.1,1100.84 1347.1,1098.41 
  1348.1,1094.25 1349.1,1088.02 1350.1,1080.07 1351.1,1071.26 1352.1,1064.42 1353.1,1060.14 1354.1,1059.02 1355.1,1060.27 1356.1,1062.64 1357.1,1068.29 
  1358.1,1073.44 1359.1,1078.98 1360.1,1082.45 1361.09,1086.38 1362.09,1088.61 1363.09,1089.65 1364.09,1090.68 1365.09,1091 1366.08,1091.54 1367.08,1092.49 
  1368.08,1092.02 1369.08,1091.65 1370.07,1092.27 1371.07,1094.31 1372.07,1094.32 1373.06,1093.7 1374.06,1094.31 1375.06,1095.1 1376.05,1095.45 1377.05,1094.41 
  1378.04,1094.73 1379.04,1093.58 1380.04,1092.51 1381.03,1089.8 1382.03,1087.74 1383.02,1084.28 1384.02,1080 1385.01,1076.04 1386.01,1073.57 1387,1068.41 
  1387.99,1066.43 1388.99,1064.52 1389.98,1061.98 1390.98,1062.05 1391.97,1062.48 1392.96,1064.04 1393.96,1065.04 1394.95,1065.48 1395.94,1065.63 1396.94,1066.39 
  1397.93,1066.66 1398.92,1067.46 1399.91,1066.61 1400.91,1067.02 1401.9,1067.98 1402.89,1068.64 1403.88,1068.94 1404.88,1069.12 1405.87,1069.05 1406.86,1069.17 
  1407.85,1069.13 1408.84,1069.41 1409.83,1069.84 1410.82,1070.21 1411.81,1070.13 1412.8,1070.32 1413.8,1070.69 1414.78,1070.04 1415.78,1069.75 1416.77,1070.4 
  1417.75,1069.84 1418.75,1069.75 1419.73,1070.86 1420.72,1071.08 1421.71,1072.42 1422.7,1071.8 1423.69,1072.39 1424.68,1073.2 1425.67,1074.88 1426.66,1075.18 
  1427.64,1075.75 1428.63,1076.6 1429.62,1076.8 1430.61,1077.45 1431.6,1079.33 1432.59,1080.23 1433.57,1081.65 1434.56,1082.47 1435.55,1084 1436.53,1085.94 
  1437.52,1085.51 1438.51,1086.66 1439.49,1088.43 1440.48,1089.09 1441.47,1090.52 1442.45,1091.34 1443.44,1092.16 1444.42,1092.37 1445.41,1093.63 1446.4,1094.09 
  1447.38,1094.97 1448.36,1095.51 1449.35,1095.62 1450.34,1096.53 1451.32,1098.03 1452.3,1097.93 1453.29,1098.53 1454.27,1100.87 1455.26,1102.08 1456.24,1101.79 
  1457.22,1103.64 1458.21,1104.14 1459.19,1106.6 1460.18,1108.33 1461.16,1111.23 1462.14,1118.19 1463.12,1129.63 1464.11,1144.98 1465.09,1162.18 1466.07,1182.41 
  1467.06,1202.03 1468.04,1218.35 1469.02,1228.62 1470,1235.56 1470.98,1239.09 1471.96,1239.15 1472.95,1238.48 1473.93,1236.76 1474.91,1235.79 1475.89,1235.33 
  1476.87,1233.4 1477.85,1231.11 1478.83,1227.5 1479.81,1223.28 1480.79,1217.9 1481.77,1212.52 1482.75,1205.74 1483.73,1199.74 1484.71,1191.92 1485.69,1185.22 
  1486.67,1178.28 1487.65,1170.82 1488.63,1165.45 1489.61,1159.95 1490.59,1154.79 1491.56,1151.83 1492.54,1148.53 1493.52,1146.62 1494.5,1143.8 1495.48,1142.79 
  1496.46,1141.8 1497.43,1141.12 1498.41,1139.89 1499.39,1140.19 1500.36,1140.17 1501.34,1140.18 1502.32,1140.68 1503.29,1141.12 1504.27,1140.86 1505.25,1140.68 
  1506.22,1141.37 1507.2,1142.42 1508.17,1142.66 1509.15,1143.89 1510.13,1144.47 1511.1,1145.15 1512.08,1146.4 1513.05,1146.31 1514.03,1146.2 1515,1146.94 
  1515.98,1147.13 1516.95,1147.88 1517.93,1148.8 1518.9,1149.49 1519.87,1150.37 1520.85,1150.68 1521.82,1151.32 1522.8,1152.37 1523.77,1152.53 1524.74,1153.86 
  1525.72,1154.29 1526.69,1154.89 1527.66,1155.87 1528.64,1156.13 1529.61,1156.43 1530.58,1157.07 1531.55,1157.63 1532.52,1158.19 1533.5,1158.71 1534.47,1159.02 
  1535.44,1160.6 1536.41,1160.84 1537.38,1161.57 1538.35,1163.09 1539.32,1163.77 1540.29,1164.23 1541.26,1165.11 1542.24,1166.14 1543.21,1166.36 1544.18,1168.03 
  1545.15,1168.17 1546.12,1168.93 1547.09,1170.74 1548.06,1172.28 1549.03,1173.33 1550,1174.71 1550.96,1175.41 1551.93,1177.29 1552.9,1178.41 1553.87,1180.15 
  1554.84,1181.28 1555.81,1183.09 1556.78,1183.4 1557.74,1184.01 1558.71,1185.69 1559.68,1185.31 1560.65,1185.78 1561.62,1186.67 1562.58,1186.9 1563.55,1188.2 
  1564.52,1188.09 1565.48,1187.67 1566.45,1188.23 1567.42,1188.5 1568.38,1188 1569.35,1188.36 1570.32,1187.8 1571.28,1189.1 1572.25,1188.93 1573.21,1189.19 
  1574.18,1189.2 1575.15,1190.05 1576.11,1189.81 1577.08,1189.84 1578.04,1189.92 1579.01,1188.99 1579.97,1188.72 1580.94,1188.03 1581.9,1187.95 1582.86,1188.2 
  1583.83,1188.77 1584.79,1188.47 1585.75,1188.98 1586.72,1189.17 1587.68,1189.35 1588.65,1189.7 1589.61,1189.65 1590.57,1190.11 1591.53,1190.5 1592.5,1189.97 
  1593.46,1190.4 1594.42,1189.94 1595.38,1189.72 1596.35,1190.21 1597.31,1189.91 1598.27,1189.08 1599.23,1188.97 1600.19,1188.95 1601.15,1188.55 1602.11,1187.77 
  1603.08,1186.62 1604.03,1186.52 1605,1185.63 1605.96,1185.29 1606.92,1185.07 1607.88,1184.29 1608.84,1185.15 1609.8,1184.93 1610.76,1185.5 1611.72,1185.89 
  1612.68,1186.94 1613.63,1187.16 1614.59,1187.78 1615.55,1188.27 1616.51,1188.7 1617.47,1189.57 1618.43,1190.51 1619.39,1191.72 1620.35,1192.46 1621.3,1193.28 
  1622.26,1194.77 1623.22,1196.75 1624.18,1198.47 1625.13,1200.93 1626.09,1203.27 1627.05,1205.75 1628.01,1208.89 1628.96,1210.89 1629.92,1213.15 1630.88,1215.09 
  1631.83,1218.69 1632.79,1220.34 1633.74,1222.03 1634.7,1223.49 1635.65,1224.18 1636.61,1226.15 1637.57,1226.73 1638.52,1226.21 1639.48,1226.4 1640.43,1226.36 
  1641.39,1227.02 1642.34,1226.64 1643.3,1225.88 1644.25,1224.9 1645.2,1223.52 1646.16,1221.91 1647.11,1220.32 1648.07,1218.19 1649.02,1216.8 1649.97,1215.87 
  1650.92,1217.08 1651.88,1219.86 1652.83,1222.67 1653.79,1225.32 1654.74,1227.57 1655.69,1229.51 1656.64,1230.23 1657.59,1229.45 1658.55,1226.46 1659.5,1224.45 
  1660.45,1223.25 1661.4,1221.96 1662.35,1220.54 1663.3,1219.12 1664.25,1218.36 1665.2,1218.79 1666.15,1218.8 1667.11,1219.78 1668.06,1220.45 1669.01,1221.32 
  1669.96,1223.49 1670.91,1224.64 1671.86,1225.17 1672.81,1225.3 1673.76,1226.06 1674.71,1226.16 1675.66,1226.05 1676.6,1225.87 1677.55,1225.83 1678.5,1226.17 
  1679.45,1226.7 1680.4,1226.36 1681.35,1226.87 1682.3,1226.43 1683.24,1227.14 1684.19,1227.56 1685.14,1227.03 1686.09,1227.21 1687.03,1227.1 1687.98,1226.43 
  1688.93,1226.55 1689.87,1226 1690.82,1225.48 1691.77,1224.89 1692.71,1225.16 1693.66,1224.28 1694.6,1224.19 1695.55,1223.88 1696.5,1224.6 1697.44,1223.82 
  1698.39,1224.24 1699.33,1223.85 1700.28,1223.82 1701.22,1224.14 1702.17,1223.45 1703.11,1224.17 1704.06,1223.79 1705,1224.33 1705.95,1224.35 1706.89,1224.23 
  1707.83,1224.61 1708.78,1225.03 1709.72,1224.85 1710.66,1225.61 1711.61,1225.82 1712.55,1225.77 1713.49,1225.8 1714.44,1226.34 1715.38,1226.53 1716.32,1227.12 
  1717.27,1227.65 1718.21,1227.73 1719.15,1227.98 1720.09,1228.43 1721.03,1228.15 1721.97,1228.25 1722.91,1228.28 1723.86,1228.55 1724.8,1228.81 1725.74,1229.31 
  1726.68,1229.57 1727.62,1230.15 1728.56,1229.63 1729.5,1230.72 1730.44,1231.07 1731.38,1231.18 1732.32,1232.81 1733.26,1233.84 1734.2,1234.32 1735.14,1235.15 
  1736.08,1235.9 1737.02,1237.08 1737.95,1237.75 1738.89,1236.95 1739.83,1237.76 1740.77,1237.52 1741.71,1237.64 1742.65,1237.69 1743.58,1238.32 1744.52,1239.28 
  1745.46,1240.52 1746.4,1241.89 1747.34,1243.65 1748.27,1244.42 1749.21,1245.82 1750.15,1246.47 1751.08,1246.53 1752.02,1245.69 1752.96,1244.79 1753.89,1244.34 
  1754.83,1243.78 1755.76,1243.37 1756.7,1243.01 1757.63,1242.6 1758.57,1242.46 1759.51,1242.36 1760.44,1242.46 1761.38,1242.56 1762.31,1242.76 1763.25,1242.83 
  1764.18,1243.23 1765.11,1243.82 1766.05,1244.33 1766.98,1244.41 1767.92,1244.51 1768.85,1245.07 1769.78,1245.29 1770.72,1245.33 1771.65,1245.68 1772.58,1246.08 
  1773.51,1246.08 1774.45,1246.52 1775.38,1246.2 1776.31,1246.6 1777.25,1247.38 1778.18,1247.56 1779.11,1248 1780.04,1248.79 1780.97,1249.31 1781.9,1250.55 
  1782.84,1252.22 1783.77,1253.39 1784.7,1254.09 1785.63,1255.14 1786.56,1255.27 1787.49,1255.49 1788.42,1255.32 1789.35,1254.83 1790.28,1254.55 1791.21,1254.65 
  1792.14,1254.71 1793.07,1254.66 1794,1254.51 1794.93,1254.37 1795.86,1254.77 1796.79,1254.87 1797.72,1254.73 1798.64,1255.29 1799.57,1255.25 1800.5,1255.81 
  1801.43,1256 1802.36,1256.46 1803.29,1256.74 1804.22,1257.05 1805.14,1257.66 1806.07,1257.92 1807,1258.11 1807.92,1259.03 1808.85,1259.25 1809.78,1259.33 
  1810.7,1259.93 1811.63,1260.03 1812.56,1260.39 1813.48,1260.59 1814.41,1260.78 1815.33,1260.68 1816.26,1261.24 1817.19,1261.43 1818.11,1261.41 1819.03,1261.72 
  1819.96,1261.62 1820.89,1261.77 1821.81,1262.22 1822.74,1262.49 1823.66,1262.64 1824.58,1262.83 1825.51,1263.32 1826.43,1263.5 1827.36,1263.96 1828.28,1263.73 
  1829.2,1264.27 1830.12,1264.45 1831.05,1264.49 1831.97,1264.46 1832.89,1263.98 1833.82,1264 1834.74,1264.32 1835.66,1264.71 1836.58,1264.67 1837.5,1264.37 
  1838.43,1264.55 1839.35,1264.49 1840.27,1264.44 1841.19,1264.76 1842.11,1264.89 1843.04,1264.71 1843.96,1265.2 1844.88,1265.3 1845.8,1265.57 1846.72,1265.31 
  1847.64,1265.6 1848.56,1265.33 1849.48,1265.38 1850.4,1265.14 1851.32,1265.35 1852.24,1265.16 1853.15,1265.19 1854.07,1264.75 1854.99,1265.17 1855.91,1264.87 
  1856.83,1264.91 1857.75,1265.29 1858.67,1265.66 1859.59,1265.13 1860.5,1265.53 1861.42,1266.04 1862.34,1266.29 1863.26,1266.81 1864.17,1266.93 1865.09,1267.21 
  1866.01,1267.8 1866.92,1268.61 1867.84,1269.5 1868.76,1269.88 1869.68,1270.7 1870.59,1271.61 1871.51,1272.65 1872.42,1273.82 1873.34,1275.08 1874.25,1275.61 
  1875.17,1276.47 1876.08,1277.16 1877,1277.64 1877.92,1277.84 1878.83,1278.67 1879.75,1279.79 1880.66,1280.48 1881.57,1280.96 1882.49,1281.51 1883.4,1282.31 
  1884.32,1282.86 1885.23,1282.83 1886.14,1282.8 1887.06,1282.89 1887.97,1283.13 1888.88,1283.21 1889.8,1283.59 1890.71,1283.21 1891.62,1283.07 1892.53,1282.79 
  1893.45,1281.82 1894.36,1281.17 1895.27,1280.23 1896.18,1279.01 1897.09,1278.17 1898.01,1277.33 1898.92,1276.76 1899.83,1276.9 1900.74,1276.6 1901.65,1277.11 
  1902.56,1277.36 1903.47,1278.13 1904.38,1278.78 1905.29,1279.61 1906.2,1280.69 1907.11,1281.41 1908.02,1282.15 1908.93,1283 1909.84,1283.73 1910.75,1283.88 
  1911.66,1284.81 1912.57,1285.23 1913.48,1285.5 1914.39,1286.05 1915.29,1286.3 1916.2,1285.93 1917.11,1285.94 1918.02,1286.09 1918.93,1286.23 1919.83,1286.06 
  1920.74,1285.63 1921.65,1286.35 1922.55,1286.9 1923.46,1287.54 1924.37,1287.82 1925.28,1288.11 1926.18,1288.39 1927.09,1288.36 1928,1288.89 1928.9,1288.85 
  1929.81,1289.09 1930.71,1289.18 1931.62,1289.46 1932.52,1289.82 1933.43,1289.81 1934.33,1290.02 1935.24,1290.25 1936.14,1290.29 1937.05,1290.48 1937.95,1290.79 
  1938.86,1290.63 1939.76,1290.42 1940.66,1290.28 1941.57,1289.72 1942.47,1289.28 1943.38,1288.52 1944.28,1288.27 1945.18,1288 1946.08,1287.82 1946.99,1287.67 
  1947.89,1287.92 1948.79,1287.89 1949.69,1288.28 1950.6,1288.04 1951.5,1288.35 1952.4,1288.44 1953.3,1288.62 1954.2,1288.65 1955.11,1288.91 1956.01,1289.54 
  1956.91,1290 1957.81,1290.31 1958.71,1290.44 1959.61,1290.67 1960.51,1290.93 1961.41,1290.7 1962.31,1291.02 1963.21,1291.02 1964.11,1291.36 1965.01,1291.84 
  1965.91,1292.17 1966.81,1292.59 1967.71,1293.24 1968.61,1294.05 1969.51,1294.94 1970.41,1295.67 1971.3,1296.48 1972.2,1296.92 1973.1,1297.71 1974,1298.41 
  1974.89,1299.16 1975.79,1299.92 1976.69,1300.61 1977.59,1301.28 1978.48,1302.15 1979.38,1303.03 1980.28,1303.78 1981.17,1304.48 1982.07,1305.12 1982.97,1305.65 
  1983.86,1306.44 1984.76,1306.94 1985.66,1307.4 1986.55,1307.59 1987.45,1307.73 1988.34,1308 1989.24,1308.44 1990.13,1308.36 1991.03,1308.47 1991.92,1308.53 
  1992.82,1308.76 1993.71,1308.89 1994.61,1309.09 1995.5,1308.96 1996.4,1309.19 1997.29,1309.21 1998.18,1309.09 1999.07,1308.66 1999.97,1308.5 2000.86,1308.19 
  2001.76,1307.66 2002.65,1307.12 2003.54,1306.82 2004.43,1306.61 2005.32,1306.39 2006.22,1306.57 2007.11,1306.59 2008,1306.77 2008.89,1306.64 2009.78,1306.51 
  2010.68,1306.89 2011.57,1306.91 2012.46,1306.86 2013.35,1306.82 2014.24,1307.04 2015.13,1307.25 2016.02,1307.42 2016.91,1307.38 2017.8,1307.61 2018.69,1307.84 
  2019.58,1307.96 2020.47,1307.78 2021.36,1307.98 2022.25,1307.88 2023.14,1308 2024.03,1308.08 2024.91,1308.34 2025.8,1308.14 2026.69,1308.25 2027.58,1308.03 
  2028.47,1308.09 2029.35,1308.12 2030.24,1307.95 2031.13,1308.26 2032.02,1308.21 2032.91,1308.14 2033.79,1307.89 2034.68,1308.03 2035.57,1307.92 2036.45,1308.04 
  2037.34,1308.01 2038.23,1307.88 2039.11,1307.88 2040,1307.88 2040.88,1307.93 2041.77,1308.29 2042.66,1308.11 2043.54,1308.22 2044.43,1308.12 2045.31,1308.03 
  2046.19,1308.04 2047.08,1308.04 2047.96,1308.12 2048.85,1308.24 2049.73,1308.05 2050.62,1308.13 2051.5,1308.14 2052.38,1308.06 2053.27,1308.28 2054.15,1308.24 
  2055.04,1308.08 2055.92,1308.07 2056.8,1307.98 2057.68,1308.03 2058.57,1307.7 2059.45,1307.82 2060.33,1307.82 2061.21,1307.94 2062.1,1308.13 2062.98,1308.08 
  2063.86,1308.19 2064.74,1308.08 2065.62,1307.84 2066.5,1307.78 2067.38,1307.85 2068.26,1307.82 2069.14,1307.84 2070.02,1307.59 2070.9,1307.65 2071.79,1307.74 
  2072.66,1307.66 2073.54,1307.61 2074.43,1307.54 2075.3,1307.59 2076.18,1307.54 2077.06,1307.38 2077.94,1307.58 2078.82,1307.42 2079.7,1307.4 2080.58,1307.35 
  2081.45,1307.34 2082.33,1307.48 2083.21,1307.31 2084.09,1307.32 2084.97,1307.36 2085.84,1307.3 2086.72,1307.04 2087.6,1307.17 2088.48,1306.81 2089.35,1306.48 
  2090.23,1306.43 2091.11,1306.33 2091.98,1306.29 2092.86,1306.28 2093.73,1306.03 2094.61,1306.01 2095.49,1305.79 2096.36,1306.02 2097.24,1305.95 2098.11,1305.86 
  2098.99,1305.83 2099.86,1305.92 2100.74,1305.8 2101.61,1305.77 2102.49,1305.88 2103.36,1305.93 2104.23,1305.93 2105.11,1306.25 2105.98,1306.41 2106.85,1306.39 
  2107.73,1306.51 2108.6,1306.71 2109.47,1306.85 2110.35,1306.81 2111.22,1306.92 2112.09,1307.08 2112.96,1307.04 2113.84,1307.05 2114.71,1307.18 2115.58,1307.1 
  2116.45,1306.93 2117.32,1307.05 2118.2,1307.27 2119.07,1307.24 2119.94,1307.38 2120.81,1307.44 2121.68,1307.54 2122.55,1307.29 2123.42,1307.31 2124.29,1307.27 
  2125.16,1307.53 2126.03,1307.45 2126.9,1307.48 2127.77,1307.59 2128.64,1307.29 2129.51,1307.29 2130.38,1307.25 2131.24,1307.49 2132.11,1307.42 2132.98,1307.33 
  2133.85,1307.45 2134.72,1307.33 2135.59,1307.37 2136.45,1307.37 2137.32,1307.33 2138.19,1307.48 2139.06,1307.45 2139.92,1307.45 2140.79,1307.43 2141.66,1307.52 
  2142.53,1307.42 2143.39,1307.27 2144.26,1307.37 2145.13,1307.51 2145.99,1307.37 2146.86,1307.51 2147.72,1307.46 2148.59,1307.55 2149.46,1307.58 2150.32,1307.41 
  2151.18,1307.62 2152.05,1307.74 2152.91,1307.62 2153.78,1307.68 2154.65,1307.58 2155.51,1307.77 2156.37,1307.78 2157.24,1307.83 2158.1,1307.67 2158.96,1307.9 
  2159.83,1307.73 2160.69,1307.87 2161.56,1307.97 2162.42,1308 2163.28,1308.15 2164.14,1308.16 2165,1308.2 2165.87,1308.15 2166.73,1308.17 2167.59,1308.25 
  2168.45,1308.17 2169.32,1308.35 2170.18,1308.34 2171.04,1308.28 2171.9,1308.38 2172.76,1308.31 2173.62,1308.41 2174.48,1308.37 2175.34,1308.51 2176.2,1308.65 
  2177.06,1308.79 2177.92,1308.6 2178.78,1308.65 2179.64,1308.75 2180.5,1308.69 2181.36,1308.99 2182.22,1308.76 2183.08,1308.62 2183.94,1308.83 2184.79,1308.9 
  2185.65,1308.98 2186.51,1309.09 2187.37,1308.94 2188.23,1309 2189.09,1309.26 2189.95,1309.17 2190.8,1309.19 2191.66,1309.16 2192.52,1309.46 2193.37,1309.18 
  2194.23,1309.37 2195.09,1309.35 2195.94,1309.48 2196.8,1309.61 2197.65,1309.44 2198.51,1309.54 2199.37,1309.6 2200.22,1309.49 2201.08,1309.42 2201.93,1309.6 
  2202.79,1309.72 2203.64,1309.62 2204.5,1309.67 2205.36,1309.69 2206.21,1309.83 2207.06,1309.75 2207.92,1309.87 2208.77,1309.92 2209.62,1310.02 2210.48,1309.95 
  2211.33,1309.97 2212.18,1310.08 2213.04,1309.92 2213.89,1309.93 2214.74,1310.07 2215.6,1310.17 2216.45,1310.24 2217.3,1310.12 2218.15,1310.13 2219.01,1310.23 
  2219.86,1310.31 2220.71,1310.39 2221.56,1310.26 2222.41,1310.36 2223.26,1310.3 2224.12,1310.35 2224.97,1310.17 2225.82,1310.29 2226.66,1310.5 2227.52,1310.61 
  2228.37,1310.35 2229.22,1310.49 2230.07,1310.42 2230.92,1310.47 2231.76,1310.65 2232.62,1310.52 2233.46,1310.7 2234.31,1310.69 2235.16,1310.51 2236.01,1310.69 
  2236.86,1310.75 2237.71,1310.68 2238.55,1310.59 2239.4,1310.86 2240.25,1310.68 2241.1,1310.72 2241.95,1310.89 2242.79,1310.86 2243.64,1311.04 2244.49,1311 
  2245.33,1310.99 2246.18,1310.83 2247.03,1310.92 2247.87,1310.92 2248.72,1310.94 2249.57,1310.91 2250.41,1311.05 2251.26,1311.07 2252.1,1311.13 2252.95,1311.08 
  2253.79,1311.07 2254.64,1311.07 2255.48,1311.15 2256.33,1311.17 2257.17,1311.22 2258.02,1311.33 2258.86,1311.33 2259.71,1311.33 
  "/>
</svg>
