<?xml version="1.0" encoding="UTF-8" standalone="no"?>
<!-- Generator: Adobe Illustrator 12.0.0, SVG Export Plug-In . SVG Version: 6.00 Build 51448)  -->

<svg
   version="1.1"
   width="600"
   height="400"
   viewBox="0 0 600 400"
   overflow="visible"
   enable-background="new 0 0 600 400"
   xml:space="preserve"
   id="svg22"
   sodipodi:docname="us-states.svg"
   inkscape:version="1.3.2 (091e20e, 2023-11-25)"
   xmlns:inkscape="http://www.inkscape.org/namespaces/inkscape"
   xmlns:sodipodi="http://sodipodi.sourceforge.net/DTD/sodipodi-0.dtd"
   xmlns="http://www.w3.org/2000/svg"
   xmlns:svg="http://www.w3.org/2000/svg"><defs
   id="defs22">
	
	
	
	
	
	
	
	
	
	
	
	
	
	
	
	
	
	
	
	
	
	
	
	
	
	
	
	
	
	
	
	
	
	
	
	
	
	
	
	
	
	
	
	
	
	
	
	
	
	
	
</defs><sodipodi:namedview
   id="namedview22"
   pagecolor="#ffffff"
   bordercolor="#000000"
   borderopacity="0.25"
   inkscape:showpageshadow="2"
   inkscape:pageopacity="0.0"
   inkscape:pagecheckerboard="0"
   inkscape:deskcolor="#d1d1d1"
   inkscape:zoom="0.99833333"
   inkscape:cx="299.49917"
   inkscape:cy="199.83306"
   inkscape:window-width="1920"
   inkscape:window-height="942"
   inkscape:window-x="3440"
   inkscape:window-y="210"
   inkscape:window-maximized="1"
   inkscape:current-layer="svg22" />
<polygon
   id="wy_1_"
   fill="#ffffff"
   stroke="#000000"
   stroke-width="1.4"
   stroke-linejoin="round"
   stroke-miterlimit="1"
   points="222.046,147.555 205.548,146.253 196.43,145.386 179.324,143.563 169.251,142.346 148.238,139.482 150.322,125.415 155.446,90.421 156.5,83.458 175.416,86.081 193.044,88.164 212.582,90.075 225.922,91.081 225.916,91.08 223.955,119.249 "
   style="fill:none;fill-opacity:1;stroke:#1e81b0;stroke-opacity:1;stroke-width:3;stroke-dasharray:none" /><path
   id="wv_2_"
   fill="#ffffff"
   stroke="#000000"
   stroke-width="1.4"
   stroke-linejoin="round"
   stroke-miterlimit="1"
   d="m 483.32,151.29 1.215,7.294 c 1.966,-2.765 3.91,-4.66 3.91,-4.66 1.353,-0.139 2.329,-1.744 2.329,-1.744 -0.103,-0.728 0.144,-0.777 0.284,-0.832 0.14,-0.055 0.521,0.135 0.521,0.135 1.202,0.861 2.649,0.544 2.649,0.544 1.959,-3.994 5.026,-2.488 5.026,-2.488 2.762,1.183 3.517,3.661 3.517,3.661 0.11,5.835 -4.521,-1.488 -6.773,0.349 -0.762,0.622 -0.752,5.675 -1.995,7.207 -2.002,2.464 -3.911,2.729 -4.517,6.076 -0.847,4.68 -4.913,-0.84 -5.348,1.766 -0.669,4.034 -2.838,7.117 -3.855,10.826 -0.305,1.113 0.235,3.704 -0.261,4.515 -0.785,1.29 -2.845,1.173 -3.981,2.135 -1.172,0.998 -4.848,2.376 -7.524,2.603 -4.343,0.185 -6.138,-1.29 -6.922,-1.713 -1.387,-0.9 -3.263,-1.466 -6.494,-5.587 0,0 -1.675,-1.759 -1.823,-3.368 0,0 0.635,-1.181 -0.085,-2.751 l -0.09,-0.087 c 4.01,0.106 3.317,-4.353 3.906,-6.687 0.638,-2.512 1.178,-1.682 2.388,-3.082 0.499,-0.575 2.824,-4.339 2.824,-4.558 0,-1.97 3.08,-0.898 4.374,-2.991 1.351,-2.182 1.823,-3.041 2.312,-5.519 0.771,-3.891 0.089,-11.461 0.089,-11.461 0,0 0.574,-0.222 1.044,-0.435 l 2.253,12.851 11.027,-1.999"
   style="fill:none;fill-opacity:1;stroke:#1e81b0;stroke-opacity:1;stroke-width:3;stroke-dasharray:none" /><path
   id="wi_2_"
   fill="#ffffff"
   stroke="#000000"
   stroke-width="1.4"
   stroke-linejoin="round"
   stroke-miterlimit="1"
   d="m 357.894,124.069 c -1.081,-0.493 -1.696,-3.112 -1.822,-4.24 -0.188,-1.716 0.407,-3.006 0.042,-4.486 -0.167,-0.679 -0.724,-0.927 -1.216,-2.258 -0.597,-2.14 -0.386,-4.558 -2.083,-6.252 -1.603,-1.601 -3.827,-1.672 -5.179,-3.794 -0.913,-1.436 -4.086,-4.06 -5.676,-4.324 -3.593,-0.597 -3.148,-2.475 -3.56,-4.992 -0.487,-2.988 0.691,-6.39 0.693,-6.947 0.002,-0.557 -2.52,-2.397 -2.52,-3.344 0,-0.948 1.104,-1.634 1.305,-2.648 0.583,-2.944 4.468,-0.915 4.273,-5.857 -0.123,-3.086 -0.951,-5.494 1.37,-7.341 1.655,2.614 6.994,-0.733 8.945,-1.736 0.807,-0.416 3.263,-2.76 3.907,-1.042 0.26,0.699 -0.621,1.288 -0.782,1.824 -0.253,0.843 -0.049,1.539 -0.606,2.344 1.026,0.192 1.536,-0.572 2.527,-0.392 0.953,0.172 1.632,0.629 2.68,0.653 0.866,0.433 2.005,1.054 2.53,1.926 1.141,1.898 2.721,1.658 4.898,2.073 2.868,0.548 8.416,3.292 11.154,2.469 0.879,-0.263 3.404,0.279 4.168,0.739 0.89,0.534 0.03,1.852 1.043,1.953 0.864,0.087 1.66,0.329 2.301,0.913 1.589,1.447 -1.433,5.992 2.3,4.687 -0.881,1.535 -0.646,3.013 0.957,3.647 -0.03,1.893 -1.947,2.554 -2.691,4.255 -1.041,2.371 -1.013,5.607 1.387,2.344 0.895,-1.212 2.626,-5.693 4.125,-2.388 0.744,1.641 -1.254,4.762 -1.344,6.643 -0.057,1.154 1.305,1.7 0.173,2.604 -0.942,0.755 -1.303,2.389 -1.303,3.56 0,2.349 0.399,4.271 -0.334,6.574 -0.872,2.749 -0.185,4.643 0.508,6.973 0.62,2.084 0.591,3.989 0.956,6.338 l -12.854,1.128 -16.409,0.954 c 0,0 -0.41,-0.749 -0.584,-1.13 -0.174,-0.381 -0.379,-0.366 -0.732,-0.569 0,0 -0.2,-0.086 -0.973,-0.274 10e-4,0 -1.041,-0.228 -1.574,-0.587 z"
   style="fill:none;fill-opacity:1;stroke:#1e81b0;stroke-opacity:1;stroke-width:3;stroke-dasharray:none" /><path
   id="wa_5_"
   fill="#ffffff"
   stroke="#000000"
   stroke-width="1.4"
   stroke-linejoin="round"
   stroke-miterlimit="1"
   d="M 42.909,42.356 C 41.445,41.88 41.32,40.821 39.96,40.147 38.205,39.28 36.869,39.243 35.097,38.671 c 0.376,-1.533 0.752,-3.068 1.129,-4.602 -0.167,0.747 -0.039,1.854 -0.173,2.692 0.205,0.128 1.01,0.127 1.39,-0.57 0.835,-4.522 -1.43,-4.066 -0.522,-6.289 1.042,0.879 0.995,0.284 3.04,0.087 -0.588,-0.595 -1.827,-1.453 -2.606,-1.912 -0.086,0.29 -0.172,0.58 -0.26,0.869 -0.465,-3.702 0.916,-8.608 -0.174,-12.591 -1.357,-4.962 0.64,-4.887 0.174,-7.901 2.414,1.629 4.479,4.54 7.294,5.384 2.307,0.691 6.804,1.422 6.86,3.472 0.446,0.298 0.815,0.479 1.562,1.043 0.307,-0.936 0.591,-0.862 1.042,-1.65 0.083,2.296 0.328,2.528 1.043,3.734 0.64,1.999 0.299,1.743 -1.303,2.171 -0.075,0.421 0.062,1.36 0.088,1.824 -0.291,-0.087 -0.216,0.474 -0.216,0.792 0.317,1.492 0.869,1.394 0.869,3.053 -0.32,-0.202 0.464,0.687 1.084,-0.46 0.529,-0.98 -0.209,-3.116 0,-3.732 0.479,-1.422 2.691,-2.853 2.43,-4.95 -0.085,-0.694 -0.261,-4.388 -0.261,-5.557 0.072,-0.922 -0.052,-0.565 0.196,-1.453 2.353,-2.051 -2.697,-4.275 -0.63,-6.623 l 12.59,3.387 14.241,3.56 16.499,3.821 8.854,1.824 -0.085,0.521 -6.772,31.607 -0.349,2.865 c -0.81,1.266 0.323,2.974 -0.119,4.566 l 0.119,1.772 -11.373,-2.345 -8.859,-2.083 c -4.551,0.439 -9.908,0.792 -14.761,0.694 -4.823,-0.096 -7.854,-2.328 -12.677,-3.386 -2.305,-0.506 -4.228,1.64 -6.772,0.086 -4.157,-2.538 -0.679,-4.289 -2.606,-8.161 -0.365,-0.733 -1.177,-1.353 -2.174,-1.874"
   style="fill:none;fill-opacity:1;stroke:#1e81b0;stroke-opacity:1;stroke-width:3;stroke-dasharray:none" /><path
   id="vt"
   fill="#ffffff"
   stroke="#000000"
   stroke-width="1.4"
   stroke-linejoin="round"
   stroke-miterlimit="1"
   d="m 547.229,59.944 c 0,0 -0.237,0.669 0.137,1.286 0,0 0.212,0.814 -0.088,1.946 0,0 -0.451,0.752 0.492,1.958 0,0 1.544,1.96 -1.698,4.636 0,0 -1.808,1.013 -0.755,4.068 0,0 0.028,1.174 -0.52,4.261 0,0 -0.309,0.83 -0.722,3.316 0,0 -0.074,2.262 0.338,4.071 0,0 0.336,2.689 0.733,4.416 0,0 -1.581,1.881 0.954,3.821 l -7.904,1.65 -0.521,-1.476 -1.972,-9.005 c 0,0 -1.173,-2.438 -1.774,-0.47 0,0 -0.55,-0.412 -0.442,-2.444 0,0 -0.382,-1.58 -0.907,-3.049 0,0 -0.64,-1.885 -0.453,-3.73 0,0 0.037,-1.734 -0.489,-3.279 0,0 -0.592,-0.761 -1.217,-3.241 0,0 -0.375,-2.788 -0.993,-3.956 l 17.801,-4.779"
   style="fill:none;fill-opacity:1;stroke:#1e81b0;stroke-opacity:1;stroke-width:3;stroke-dasharray:none" /><g
   id="va"
   style="fill:none;fill-opacity:1;stroke:#1e81b0;stroke-opacity:1;stroke-width:3;stroke-dasharray:none">
		
			<path
   id="va_eastern_shore"
   fill="#ffffff"
   stroke="#000000"
   stroke-width="1.4"
   stroke-linejoin="round"
   stroke-miterlimit="1"
   d="m 529.647,176.681 c -0.291,1.743 -0.875,2.458 -1.576,3.458 -1.759,-6.431 1.824,-9.597 0.393,-11.865 l 0.511,-0.442 2.915,-0.958 c -0.086,2.434 -1.432,4.98 -2.243,9.807 z"
   style="fill:none;fill-opacity:1;stroke:#1e81b0;stroke-opacity:1;stroke-width:3;stroke-dasharray:none" />
		<path
   id="va_mainland"
   fill="#ffffff"
   stroke="#000000"
   stroke-width="1.4"
   stroke-linejoin="round"
   stroke-miterlimit="1"
   d="m 445.021,202.348 c 14.175,-1.882 22.237,-3.01 22.237,-3.01 l 16.142,-2.545 23.185,-4.152 22.943,-4.707 h -0.186 c 0,0 -0.563,-1.866 -2.866,-4.083 0,0 -1.529,-1.52 -1.805,-3.354 0,0 -1.43,-0.47 -1.69,-2.132 0,0 -0.513,-0.155 1.298,-0.909 0,0 0.197,-1.457 -0.302,-2.112 0,0 -1.758,0.054 -1.411,-2.292 0,0 0.707,-1.978 0.254,-3.134 0,0 -1.207,-0.253 -2.711,-0.956 0,0 -0.608,-0.414 -1.758,-1.66 0,0 -3.169,0.958 -5.178,-1.958 0,0 -0.471,-0.167 -1.156,0.201 0,0 -1.396,1.271 -2.141,0.522 0,0 -0.955,-1.598 0.711,-4.616 0,0 2.698,-2.256 -0.172,-4.256 0,0 -2.369,-1.288 -3.649,-1.041 0,0 -0.933,-0.336 -0.782,-1.477 0,0 -0.722,-1.963 -3.212,-1.477 0.11,5.835 -4.521,-1.488 -6.773,0.349 -0.762,0.622 -0.752,5.675 -1.995,7.207 -2.002,2.464 -3.911,2.729 -4.517,6.076 -0.847,4.68 -4.913,-0.84 -5.348,1.766 -0.669,4.034 -2.838,7.117 -3.855,10.826 -0.305,1.113 0.235,3.704 -0.261,4.515 -0.785,1.29 -2.845,1.173 -3.981,2.135 -1.172,0.998 -4.848,2.376 -7.524,2.603 -4.343,0.185 -6.138,-1.29 -6.922,-1.713 0,0 -3.532,4.375 -5.862,5.511 0,0 -1.229,1.089 -2.008,3.374 0,0 -1.314,3.477 -8.696,6.499"
   style="fill:none;fill-opacity:1;stroke:#1e81b0;stroke-opacity:1;stroke-width:3;stroke-dasharray:none" />
	</g><polyline
   id="ut"
   fill="#ffffff"
   stroke="#000000"
   stroke-width="1.4"
   stroke-linejoin="round"
   stroke-miterlimit="1"
   points="   169.251,142.346 162.132,198.699 146.936,196.703 132.261,194.533 117.238,192.099 107.08,190.277 119.584,120.379    123.579,121.161 138.166,123.591 150.322,125.415 148.238,139.482 169.251,142.346  "
   style="fill:none;fill-opacity:1;stroke:#1e81b0;stroke-opacity:1;stroke-width:3;stroke-dasharray:none" /><path
   id="tn_2_"
   fill="#ffffff"
   stroke="#000000"
   stroke-width="1.4"
   stroke-linejoin="round"
   stroke-miterlimit="1"
   d="m 374.813,228.103 c 0,0 -0.161,-1.351 0.628,-2.403 0,0 1.602,-3.522 2.644,-7.548 1.638,-3.611 1.724,-6.331 1.724,-6.331 0.425,-0.631 1.139,-0.965 1.139,-0.965 l 15.37,-1.303 -0.124,-2.226 c 19.962,-1.463 36.651,-3.36 48.828,-4.979 14.175,-1.882 22.237,-3.01 22.237,-3.01 l -0.141,0.021 c -0.142,3.812 -3.792,6.99 -3.792,6.99 -1.409,0.452 -3.264,1.757 -3.264,1.757 -1.586,1.583 -3.018,1.056 -3.018,1.056 -0.839,0.037 -1.81,1.507 -1.81,1.507 -1.758,2.413 -4.494,4.203 -4.494,4.203 -1.731,1.732 -3.946,2.133 -3.946,2.133 -3.114,0.806 -3.346,3.021 -3.346,3.021 -1.004,1.803 -1.891,2.218 -1.891,2.218 -1.215,1.774 -0.869,3.676 -0.869,3.676 l -14.763,1.866 -27.826,2.884 -9.859,0.939 -15.716,1.215 c 0,0 0.545,-1.746 1.477,-2.678 0,0 0.761,-0.775 0.812,-2.043 z"
   style="fill:none;fill-opacity:1;stroke:#1e81b0;stroke-opacity:1;stroke-width:3;stroke-dasharray:none" /><path
   id="sd"
   fill="#ffffff"
   stroke="#000000"
   stroke-width="1.4"
   stroke-linejoin="round"
   stroke-miterlimit="1"
   d="m 227.168,77.918 -0.908,13.188 -0.345,-0.026 -1.961,28.169 10.593,0.782 17.714,0.955 17.107,0.607 11.373,0.174 1.13,1.128 c 1.024,0.559 2.679,1.974 3.82,2.083 1.062,0.103 1.179,-1.282 2.123,-1.146 2.342,0.333 4.602,-0.896 6.437,0.723 1.007,0.887 2.747,0.617 3.598,1.465 1.01,1.012 2.604,2.337 3.962,2.916 -1.042,-2.792 -2.018,-5.402 -0.49,-7.951 0.64,-1.068 -0.877,-4.618 -1.215,-6.165 h 1.562 l -0.175,-25.354 c -0.904,-1.458 -2.299,-1.519 -2.299,-1.519 -0.616,-1.316 -1.781,-2.649 -1.781,-2.649 0,-1.329 1.942,-2.424 1.942,-2.424 1.248,-0.686 1.098,-2.438 1.098,-2.438 l -18.323,-0.087 -18.059,-0.435 -19.45,-0.868 z"
   style="fill:none;fill-opacity:1;stroke:#1e81b0;stroke-opacity:1;stroke-width:3;stroke-dasharray:none" /><path
   id="sc"
   fill="#ffffff"
   stroke="#000000"
   stroke-width="1.4"
   stroke-linejoin="round"
   stroke-miterlimit="1"
   d="m 486.534,261.567 c 0,0 -2.723,-0.731 -3.737,-3.137 0,0 -0.092,-1.563 -1.619,-3.091 0,0 -1.739,-0.508 -2.284,-2.892 0,0 -0.156,-2.075 -3.968,-4.49 0,0 -0.939,-0.069 -3.81,-4.146 0,0 -0.749,-1.135 -4.785,-4.262 0,0 -6.173,-3.303 -7.329,-7.173 0,0 -0.533,-1.315 -2.427,-1.315 0,0 -3.277,-0.804 -4.165,-2.928 0,0 0.733,-2.729 2.17,-4.167 0,0 1.558,-1.29 3.619,-1.689 0,0 0.705,-0.203 1.812,-1.056 0,0 1.905,-1.508 4.972,-1.961 0,0 10.904,-1.157 13.166,-0.501 0,0 2.861,0.983 3.089,3.557 l 12.592,-1.996 14.845,10.591 c 0,0 -4.814,4.026 -5.401,9.557 0,0 -0.854,3.086 -4.421,7.186 0,0 -5.477,6.69 -9.897,6.782 0,0 3.025,0.859 1.661,2.44 0,0 -1.285,2.119 -4.212,-1.393 0,0 0.25,2.175 2.129,3.303 -0.002,10e-4 -1.537,0.873 -2,2.781"
   style="fill:none;fill-opacity:1;stroke:#1e81b0;stroke-opacity:1;stroke-width:3;stroke-dasharray:none" /><path
   id="ri"
   fill="#ffffff"
   stroke="#000000"
   stroke-width="1.4"
   stroke-linejoin="round"
   stroke-miterlimit="1"
   d="m 557.474,111.349 c 0,0 2.583,-1.45 3.429,-2.171 0,0 0.32,-0.497 -0.075,-2.325 0,0 -0.148,-0.941 -0.507,-1.602 0,0 -0.152,-0.347 0.166,-0.87 0,0 0.416,-0.5 0.899,-0.5 -0.803,-0.711 -1.393,-1.997 -1.393,-1.997 -0.304,-0.692 -1.126,-1.129 -1.126,-1.129 l -3.477,1.042 2.262,7.986 c 0,0 -0.351,0.52 -0.178,1.566"
   style="fill:none;fill-opacity:1;stroke:#1e81b0;stroke-opacity:1;stroke-width:3;stroke-dasharray:none" /><path
   id="pa"
   fill="#ffffff"
   stroke="#000000"
   stroke-width="1.4"
   stroke-linejoin="round"
   stroke-miterlimit="1"
   d="m 529.08,137.659 c 0,0 1.813,-1.82 2.562,-3.072 0,0 -3.215,-2.382 -4.224,-3.286 0,0 -1.985,-1.584 -1.909,-3.543 0,0 1.081,-1.879 -0.507,-3.47 0,0 1.392,-1.273 1.909,-3.214 0,0 -0.138,-1.561 1.303,-2.865 -0.587,-0.759 -1.367,-0.641 -2.338,-1.049 -1.534,-0.646 -1.393,-1.146 -2.178,-2.338 -1.456,-2.209 -2.377,-2.407 -4.083,-3.993 l -9.549,2.169 -14.416,3.039 -12.762,2.518 -8.337,1.477 -0.607,-3.299 -0.088,-0.347 -3.039,2.431 -2.778,2.17 -1.217,0.695 3.217,18.755 2.253,12.851 11.028,-1.997 18.234,-3.472 20.668,-4.427 c 0.656,-3.694 3.562,-2.085 3.562,-2.085 0,0 0.897,-1.117 2.012,-1.588 0,-0.002 0.349,-1.123 1.284,-2.06"
   style="fill:none;fill-opacity:1;stroke:#1e81b0;stroke-opacity:1;stroke-width:3;stroke-dasharray:none" /><path
   id="or"
   fill="#ffffff"
   stroke="#000000"
   stroke-width="1.4"
   stroke-linejoin="round"
   stroke-miterlimit="1"
   d="m 35.878,39.973 c -0.396,1.81 -1.002,3.565 -1.781,5.124 -0.426,0.852 -0.969,3.299 -1.259,4.427 -1.844,8.264 -6.327,15.694 -9.318,23.684 0.049,1.333 -1.708,3.688 -2.167,3.979 -0.542,0.333 -0.67,0.122 -0.932,0.383 -0.969,2.035 -1.833,3.773 -3.201,5.552 -1.003,1.303 0.412,3.09 0.032,4.477 -0.769,2.814 -3.106,6.518 -0.044,8.9 l -0.433,-0.088 0.433,0.088 22.577,6.251 19.103,4.862 17.713,4.168 12.591,2.691 5.209,-25.006 c 0.996,-1.178 1.51,-2.436 1.65,-3.995 0.102,-1.117 0.847,-0.577 0.174,-1.823 -0.292,-0.54 -1.541,-0.505 -1.736,-0.869 -1.561,-2.903 2.55,-5.543 4.124,-7.293 2.103,-2.336 3.104,-5.735 5.303,-8.206 2.995,-3.372 -1.66,-4.405 -1.787,-7.858 L 90.756,57.076 81.897,54.993 c -4.551,0.439 -9.908,0.792 -14.761,0.694 -4.823,-0.096 -7.854,-2.328 -12.677,-3.386 -2.305,-0.506 -4.228,1.64 -6.772,0.086 -4.157,-2.538 -0.679,-4.289 -2.606,-8.161 -1.086,-2.18 -6.147,-3.371 -8.248,-3.908 -0.175,0.295 -0.089,0.556 0.26,0.781 -0.373,-0.309 -0.746,-0.807 -1.215,-1.126"
   style="fill:none;fill-opacity:1;stroke:#1e81b0;stroke-opacity:1;stroke-width:3;stroke-dasharray:none" /><path
   id="ok_2_"
   fill="#ffffff"
   stroke="#000000"
   stroke-width="1.4"
   stroke-linejoin="round"
   stroke-miterlimit="1"
   d="m 325.201,229.611 0.165,25.073 v -0.022 c -0.938,-0.433 -1.974,-0.569 -2.985,-1.215 -1.193,-0.762 -2.396,-1.524 -3.623,-2.292 -2.244,-1.404 -1.736,0.063 -2.934,-0.097 -3.901,-0.517 -8.813,-0.114 -11.723,2.778 -0.944,-0.583 -2.641,-2.289 -3.298,-2.604 -0.658,-0.315 -2.351,-0.883 -3.39,-0.609 -1.039,0.274 -3.843,4.808 -3.387,0.869 -2.028,0.401 -2.355,-0.146 -3.558,-0.434 -1.582,-0.376 -1.532,-1.854 -3.198,-0.187 -1.673,1.674 -3.774,-1.668 -3.75,-3.2 -1.21,-0.106 -4.377,1.063 -4.949,0.564 -1.335,-1.168 -2.237,-0.614 -3.956,-1.188 -0.731,-0.245 -3.658,-0.577 -3.815,-1.155 -0.38,-1.382 -0.605,-2.357 -1.868,-3.17 -1.882,3.513 -5.176,-1.497 -7.38,-1.823 l 0.087,-1.563 0.798,-25.771 -6.704,-0.105 -11.547,-0.52 -15.371,-0.868 0.435,-7.121 10.942,0.695 17.799,0.782 25.269,0.606 h 25.441 l 13.893,-0.262 0.174,7.035 c 0,0 -0.019,1.649 0.647,4.046 0.002,0.001 1.57,6.806 1.786,11.758 z"
   style="fill:none;fill-opacity:1;stroke:#1e81b0;stroke-opacity:1;stroke-width:3;stroke-dasharray:none" /><path
   id="oh"
   fill="#ffffff"
   stroke="#000000"
   stroke-width="1.4"
   stroke-linejoin="round"
   stroke-miterlimit="1"
   d="m 437.039,129.843 c 0.861,0.604 3.359,0.866 3.359,0.866 1.819,0.344 3.693,1.281 3.693,1.281 4.032,1.47 4.938,0.639 4.938,0.639 2.206,-2.02 4.858,-2.034 4.858,-2.034 1.716,-0.339 3.324,-1.65 3.324,-1.65 0.951,-1.387 2.043,-2.479 2.043,-2.479 2.196,-1.868 7.566,-4.786 7.566,-4.786 l 3.217,18.755 c -0.47,0.213 -1.044,0.435 -1.044,0.435 0,0 0.682,7.57 -0.089,11.461 -0.488,2.478 -0.961,3.336 -2.312,5.519 -1.294,2.093 -4.374,1.021 -4.374,2.991 0,0.219 -2.325,3.983 -2.824,4.558 -1.21,1.4 -1.75,0.57 -2.388,3.082 -0.589,2.334 0.104,6.792 -3.906,6.687 l 0.09,0.087 c -0.908,-1.01 -4.581,-4.233 -5.603,-3.301 -2.431,2.213 -2.334,0.542 -5.166,0.826 -1.313,0.132 -6.262,0.56 -7.481,-1.037 -2.118,-2.785 -4.099,-3.907 -7.279,-2.742 l -4.341,-36.728 9.463,-1.563 4.256,-0.867"
   style="fill:none;fill-opacity:1;stroke:#1e81b0;stroke-opacity:1;stroke-width:3;stroke-dasharray:none" /><g
   id="ny"
   style="fill:none;fill-opacity:1;stroke:#1e81b0;stroke-opacity:1;stroke-width:3;stroke-dasharray:none">
		<path
   id="ny_1_"
   fill="#ffffff"
   stroke="#000000"
   stroke-width="1.4"
   stroke-linejoin="round"
   stroke-miterlimit="1"
   d="m 538.197,95.372 -0.255,9.636 0.344,0.522 1.824,10.159 c 0,0 0.686,0.559 0.499,1.911 0,0 -0.064,0.175 -1.074,1.182 0,0 -0.601,0.335 -0.1,0.833 l 0.761,0.764 -0.019,0.035 c 0,0 -0.645,1.194 -0.851,1.911 0,0 -0.123,0.69 -0.594,1.16 0,0 -0.655,0.511 -1.046,1.063 0,0 0.555,-3.193 -0.42,-5.921 0,0 -0.381,-0.477 -0.723,-0.721 0,0 -0.478,-0.406 -0.478,-0.952 0,0 -0.486,0.682 0.839,2.197 0,0 0.512,0.963 0.686,2.097 l -9.378,-3.039 c -0.587,-0.759 -1.367,-0.641 -2.338,-1.049 -1.534,-0.646 -1.393,-1.146 -2.178,-2.338 -1.456,-2.209 -2.377,-2.407 -4.083,-3.993 l -9.549,2.169 -14.416,3.039 -12.762,2.518 -8.337,1.477 -0.607,-3.299 -0.088,-0.347 c 0,0 5.696,-5.698 7.458,-8.771 0,0 -0.035,-3.084 -0.638,-3.688 0,0 -1.523,-0.841 -1.875,-2.348 0,0 -0.609,-1.643 6.529,-3.535 0,0 4.727,-0.586 8.447,-0.386 0,0 3.377,0.158 6.349,-1.148 0.02,-0.008 0.041,-0.018 0.061,-0.028 2.984,-1.336 6.575,-6.273 5.198,-8.822 0,0 -0.873,-2.296 -1.61,-3.367 0,0 -0.465,-0.82 0.125,-1.635 0,0 2.339,-2.203 3.394,-4.304 0,0 3.166,-9.679 10.103,-10.588 l 12.032,-3.044 c 0.618,1.168 0.993,3.956 0.993,3.956 0.625,2.48 1.217,3.241 1.217,3.241 0.526,1.545 0.489,3.279 0.489,3.279 -0.187,1.846 0.453,3.73 0.453,3.73 0.525,1.47 0.907,3.049 0.907,3.049 -0.107,2.032 0.442,2.444 0.442,2.444 0.602,-1.968 1.774,0.47 1.774,0.47 l 1.972,9.005 0.523,1.476"
   style="fill:none;fill-opacity:1;stroke:#1e81b0;stroke-opacity:1;stroke-width:3;stroke-dasharray:none" />
		<path
   id="long_island_5_"
   fill="#ffffff"
   stroke="#000000"
   stroke-width="1.4"
   stroke-linejoin="round"
   stroke-miterlimit="1"
   d="m 539.502,123.591 c 0,0 -1.514,0.705 -1.853,1.98 0,0 -0.301,0.842 0.19,1.125 0,0 0.892,0.182 1.713,-0.076 0,0 2.141,-0.922 4.595,-2.279 0,0 2.077,-1.282 3.169,-1.941 0,0 2.131,-1.15 3.486,-1.64 0,0 1.169,-0.491 1.677,-1.243 0,0 0.189,-0.377 0.726,-0.727 0,0 1.487,-0.511 4.235,-3.473 0,0 -1.035,0.61 -1.792,0.802 0,0 -1.057,-0.071 -2,0.777 0,0 -0.979,1.795 -2.546,2 0,0 1.152,-1.021 1.585,-2.603 0,0 0.372,-0.926 0.749,-1.51 0,0 -1.87,2.547 -3.561,3.554 0,0 -1.665,0.588 -2.937,0.914 0,0 -0.848,0.082 -1.732,0.833 0,0 -0.302,0.354 -2.074,1.053 0,0 -0.979,0.245 -1.621,0.301 10e-4,0 -1.29,0.801 -2.009,2.153 z"
   style="fill:none;fill-opacity:1;stroke:#1e81b0;stroke-opacity:1;stroke-width:3;stroke-dasharray:none" />
	</g><path
   id="nv_1_"
   fill="#ffffff"
   stroke="#000000"
   stroke-width="1.4"
   stroke-linejoin="round"
   stroke-miterlimit="1"
   d="m 96.835,212.333 c -0.332,1.914 -1.21,2.011 -1.303,4.862 l -13.893,-20.493 -32.823,-47.844 2.346,-9.376 7.728,-31.868 17.713,4.168 12.591,2.691 16.499,3.387 13.893,2.519 -12.504,69.898 c -0.62,3.42 -0.501,8.78 -2.431,11.679 -2.81,4.219 -3.006,-2.435 -6.425,-0.826 -2.25,1.06 -1.122,5.029 -1.303,7.209 -0.097,1.147 0.091,2.955 -0.088,3.994 z"
   style="fill:none;fill-opacity:1;stroke:#1e81b0;stroke-opacity:1;stroke-width:3;stroke-dasharray:none" /><path
   id="nm_1_"
   fill="#ffffff"
   stroke="#000000"
   stroke-width="1.4"
   stroke-linejoin="round"
   stroke-miterlimit="1"
   d="m 202.075,274.068 -11.637,-0.955 -9.028,-0.954 c -0.077,0.631 0.261,1.309 0.438,1.897 l 0.082,0.271 c 0.431,0.353 0.859,0.724 1.288,1.111 l 0.006,0.007 -20.426,-2.196 -0.719,6.281 -10.02,-1.207 v 0 l 10.073,-79.625 18.407,2.172 16.412,1.649 19.798,1.65 12.503,0.78 -0.435,7.121 -0.521,-0.034 -2.17,35.199 -1.127,12.852 -1.025,15.609 -11.566,-0.76 z"
   style="fill:none;fill-opacity:1;stroke:#1e81b0;stroke-opacity:1;stroke-width:3;stroke-dasharray:none" /><path
   id="nj"
   fill="#ffffff"
   stroke="#000000"
   stroke-width="1.4"
   stroke-linejoin="round"
   stroke-miterlimit="1"
   d="m 529.08,137.659 c -0.354,0.806 -0.342,1.117 -0.342,1.117 0,0.828 -1.308,1.663 -1.308,1.663 -1.303,0.533 -1.558,1.351 -1.558,1.351 -0.44,1.069 -0.782,2.381 -0.782,2.381 0.418,0.834 0.344,1.65 0.344,1.65 1.936,1.657 5.124,3.383 5.124,3.383 1.141,-0.575 2.692,-0.433 2.692,-0.433 0.515,0.801 0.007,2.512 0.007,2.512 0.005,1.166 0.947,0.788 0.947,0.788 1.357,-2.154 1.914,-5.649 1.914,-5.649 0.265,-0.946 1.558,-2.772 1.558,-2.772 0.273,-1.474 1.65,-4.081 1.65,-4.081 0.865,-2.672 -0.261,-9.986 -0.261,-9.986 -1.236,0 -3.387,-0.174 -3.387,-0.174 -0.178,-2.092 0.52,-3.559 0.52,-3.559 1.06,-0.225 1.045,-1.39 1.045,-1.39 0.36,-1.056 0.348,-3.212 0.348,-3.212 l -9.378,-3.039 c -1.44,1.304 -1.303,2.865 -1.303,2.865 -0.518,1.941 -1.909,3.214 -1.909,3.214 1.588,1.59 0.507,3.47 0.507,3.47 -0.076,1.959 1.909,3.543 1.909,3.543 1.009,0.904 4.224,3.286 4.224,3.286 -0.747,1.252 -2.561,3.072 -2.561,3.072"
   style="fill:none;fill-opacity:1;stroke:#1e81b0;stroke-opacity:1;stroke-width:3;stroke-dasharray:none" /><path
   id="nh"
   fill="#ffffff"
   stroke="#000000"
   stroke-width="1.4"
   stroke-linejoin="round"
   stroke-miterlimit="1"
   d="m 561.991,87.209 c 0,0 -1.447,0.085 -2.633,1.762 0,0 -0.871,1.423 -1.709,2.06 l -11.548,2.692 c -2.535,-1.94 -0.954,-3.821 -0.954,-3.821 -0.397,-1.726 -0.733,-4.416 -0.733,-4.416 -0.412,-1.809 -0.338,-4.071 -0.338,-4.071 0.413,-2.487 0.722,-3.316 0.722,-3.316 0.548,-3.087 0.52,-4.261 0.52,-4.261 -1.053,-3.055 0.755,-4.068 0.755,-4.068 3.242,-2.676 1.698,-4.636 1.698,-4.636 -0.943,-1.206 -0.492,-1.958 -0.492,-1.958 0.3,-1.131 0.088,-1.946 0.088,-1.946 -0.374,-0.617 -0.137,-1.283 -0.137,-1.286 0,0 -0.021,-1.178 0.162,-2.837 0,0 0.125,-0.838 0.508,-1.224 0,0 0.32,-0.429 1.147,-0.617 0,0 0.766,-0.125 1.133,-0.357 l 6.862,20.752 1.042,2.692 c 0,0 -0.229,2.586 2.423,4.005 0,0 0.182,1.236 1.484,1.899 l 0.434,0.259 c 0,10e-4 -0.588,1.709 -0.434,2.693 z"
   style="fill:none;fill-opacity:1;stroke:#1e81b0;stroke-opacity:1;stroke-width:3;stroke-dasharray:none" /><path
   id="ne_3_"
   fill="#ffffff"
   stroke="#000000"
   stroke-width="1.4"
   stroke-linejoin="round"
   stroke-miterlimit="1"
   d="m 309.224,155.804 c 0,-0.762 -0.802,-1.448 -0.964,-2.427 -0.65,-3.93 0.706,-9.995 -2.594,-10.943 -0.257,-3.158 -0.669,-4.457 -1.912,-7.293 -0.588,-1.344 -1.396,-5.223 -1.941,-6.203 -1.358,-0.578 -2.952,-1.903 -3.962,-2.916 -0.851,-0.849 -2.591,-0.578 -3.598,-1.465 -1.835,-1.62 -4.095,-0.39 -6.437,-0.723 -0.944,-0.135 -1.061,1.249 -2.123,1.146 -1.141,-0.109 -2.795,-1.524 -3.82,-2.083 l -1.13,-1.128 -11.373,-0.174 -17.107,-0.607 -17.714,-0.955 -10.593,-0.782 -1.909,28.306 9.638,0.696 11.329,0.557 -0.737,14.204 13.634,0.695 26.396,0.695 13.805,0.087 17.975,-0.174 c -1.393,-0.93 -0.949,-2.861 -2.257,-3.778 -1.25,-0.878 -2.538,-3.06 -2.606,-4.735 z"
   style="fill:none;fill-opacity:1;stroke:#1e81b0;stroke-opacity:1;stroke-width:3;stroke-dasharray:none" /><path
   id="nd"
   fill="#ffffff"
   stroke="#000000"
   stroke-width="1.4"
   stroke-linejoin="round"
   stroke-miterlimit="1"
   d="m 294.027,37.629 c -0.313,1.484 1.113,3.163 1.131,4.689 0.011,0.95 -0.549,1.558 -0.391,2.561 0.156,1 0.137,2.071 0.086,3.083 -0.196,3.9 3.333,7.427 2.561,11.288 -0.278,1.395 0.243,3.579 0.437,5.036 0.274,2.107 0.285,4.11 0.342,6.367 0.046,1.732 1.164,2.771 1.741,4.313 0.631,1.695 0.629,4.002 0.521,5.47 l -18.323,-0.087 -18.059,-0.435 -19.45,-0.868 -17.454,-1.129 2.952,-42.287 v -0.347 0.347 -0.347 l 14.674,0.956 22.056,0.955 18.842,0.434 h 8.334"
   style="fill:none;fill-opacity:1;stroke:#1e81b0;stroke-opacity:1;stroke-width:3;stroke-dasharray:none" /><path
   id="nc"
   fill="#ffffff"
   stroke="#000000"
   stroke-width="1.4"
   stroke-linejoin="round"
   stroke-miterlimit="1"
   d="m 529.342,187.933 c 0,0 0.297,0.816 1.578,2.098 0,0 1.792,1.35 1.886,3.482 0,0 -0.652,-1.159 -2.6,-0.281 0,0 -1.895,1.119 -3.508,2.294 0,0 -1.215,1.852 -3.94,0.042 0,0 0.213,2.352 5.186,1.482 0,0 1.434,-0.728 3.695,-0.728 0,0 1.311,0.211 1.912,-0.634 0,0 2.081,1.69 1.329,4.328 0,0 -0.339,2.901 -3.241,4.523 0,0 -0.834,0.943 -9.537,0.245 l 6.286,2.075 c 0,0 -0.281,1.829 -1.049,2.874 0,0 -0.448,1.891 -2.937,1.891 0,0 2.031,0.754 4.944,-1.465 0,0 1.932,-0.978 1.932,0.545 0,0 -0.017,1.521 -2.054,3.182 0,0 -3.051,1.583 -5.217,2.146 0,0 -3.559,2.177 -6.405,6.007 0,0 -1.631,2.324 -1.631,4.735 0,0 0.667,0.676 -1.441,2.412 0,0 -3.192,0.512 -5.856,1.725 l -14.845,-10.591 -12.592,1.996 c -0.228,-2.573 -3.089,-3.557 -3.089,-3.557 -2.262,-0.656 -13.166,0.501 -13.166,0.501 -3.066,0.453 -4.972,1.961 -4.972,1.961 -1.106,0.853 -1.812,1.056 -1.812,1.056 -2.062,0.399 -3.619,1.689 -3.619,1.689 l -13.892,1.951 c 0,0 -0.346,-1.901 0.869,-3.676 0,0 0.887,-0.415 1.891,-2.218 0,0 0.231,-2.216 3.346,-3.021 0,0 2.215,-0.4 3.946,-2.133 0,0 2.736,-1.79 4.494,-4.203 0,0 0.971,-1.47 1.81,-1.507 0,0 1.432,0.527 3.018,-1.056 0,0 1.854,-1.305 3.264,-1.757 0,0 3.65,-3.178 3.792,-6.99 l 16.282,-2.566 23.185,-4.152 22.943,-4.707"
   style="fill:none;fill-opacity:1;stroke:#1e81b0;stroke-opacity:1;stroke-width:3;stroke-dasharray:none" /><path
   id="mt"
   fill="#ffffff"
   stroke="#000000"
   stroke-width="1.4"
   stroke-linejoin="round"
   stroke-miterlimit="1"
   d="m 230.12,35.284 v 0.347 l -2.952,42.287 -0.908,13.188 -0.339,-0.026 -13.34,-1.006 -19.538,-1.911 -17.628,-2.083 -18.915,-2.622 -1.054,6.963 c -1.708,-1.573 -3,-6.225 -4.341,-1.301 -2.791,-0.584 -12.583,-2.64 -13.633,0.347 -0.896,-0.956 -1.987,-2.725 -1.607,-3.995 0.895,-2.975 -2.619,-2.185 -3.125,-4.037 -0.963,-3.533 -0.669,-8.846 -2.821,-12.113 -10.733,5.878 -3.079,-8.625 -1.477,-14.067 -3.563,-0.194 -3.516,-2.31 -4.95,-4.775 -1.95,-3.353 -4.332,-5.618 -6.253,-8.77 0.32,-0.057 0.637,-0.117 0.956,-0.174 -0.1,-1.899 -2.79,-6.377 -2.473,-7.953 0.912,-4.527 1.825,-9.053 2.733,-13.581 l 13.635,2.692 23.964,4.08 21.014,3.04 13.633,1.649 14.5,1.651 18.148,1.65 6.771,0.52"
   style="fill:none;fill-opacity:1;stroke:#1e81b0;stroke-opacity:1;stroke-width:3;stroke-dasharray:none" /><path
   id="ms_2_"
   fill="#ffffff"
   stroke="#000000"
   stroke-width="1.4"
   stroke-linejoin="round"
   stroke-miterlimit="1"
   d="m 371.021,235.917 c 0,0 1.403,-2.919 1.503,-3.094 l 15.716,-1.215 9.859,-0.939 -0.827,44.007 2.865,21.36 c 0,0 -1.937,0.919 -4.299,0.458 0,0 -1.33,-0.324 -3.743,0.352 0,0 -2.453,0.515 -3.399,1.603 0,0 -0.462,1.364 -1.843,1.581 0,0 -3.634,-4.239 -4.469,-6.732 0,0 0.133,-1.415 0.845,-2.98 0,0 0.322,-0.958 0.235,-1.574 l -23.097,1.563 c 1.409,-10.714 5.323,-13.861 5.323,-13.861 2.977,-4.271 0.702,-8.189 0.702,-8.189 -1.858,-2.063 -2.032,-6.688 -2.032,-6.688 0.531,-3.121 0.176,-5.56 0.176,-5.56 -1.508,-1.946 -0.525,-4.861 -0.525,-4.861 0,0 0.862,-1.495 1.353,-2.195 0,0 0.844,-1.931 1.011,-3.034 0,0 0.189,-1.461 1.262,-2.345 0,0 2.192,-2.81 2.924,-5.607 0,-0.002 0.148,-1.238 0.46,-2.05 z"
   style="fill:none;fill-opacity:1;stroke:#1e81b0;stroke-opacity:1;stroke-width:3;stroke-dasharray:none" /><path
   id="mn_2_"
   fill="#ffffff"
   stroke="#000000"
   stroke-width="1.4"
   stroke-linejoin="round"
   stroke-miterlimit="1"
   d="m 297.414,85.299 c 0,-1.329 1.942,-2.424 1.942,-2.424 1.248,-0.686 1.098,-2.438 1.098,-2.438 0.109,-1.468 0.11,-3.775 -0.521,-5.47 -0.577,-1.542 -1.695,-2.581 -1.741,-4.313 -0.057,-2.257 -0.067,-4.26 -0.342,-6.367 -0.193,-1.457 -0.715,-3.641 -0.437,-5.036 0.772,-3.861 -2.757,-7.387 -2.561,-11.288 0.051,-1.013 0.07,-2.084 -0.086,-3.083 -0.158,-1.003 0.401,-1.611 0.391,-2.561 -0.018,-1.526 -1.443,-3.206 -1.131,-4.689 h 12.071 l 7.313,-0.176 -0.106,-5.207 c 1.325,0.585 2.892,0.043 3.229,1.854 0.303,1.613 0.683,3.116 1.157,4.688 0.333,1.107 -0.063,2.662 1.795,2.662 1.586,0 2.558,0.614 4.131,0.79 0.593,0.066 1.746,-0.034 2.278,0.252 0.531,0.287 0.219,1.128 1.216,1.39 1.342,0.353 2.51,-1.048 3.387,-1.476 1.433,-0.698 4.871,-0.378 6.955,1.902 2.084,2.28 1.554,2.322 3.205,2.788 -0.029,-1.624 1.252,-1.904 2.604,-1.303 0.393,0.174 0.684,1.013 1.375,1.313 1.023,0.444 1.146,0.947 1.751,1.379 3.877,2.768 4.854,-2.28 8.249,-1.997 0.224,2.497 3.195,1.553 5.297,1.302 0.462,-0.054 1.395,-0.326 1.824,-0.174 0.423,0.151 0.66,0.993 0.956,1.129 1.153,0.534 2.604,0 3.991,0 -0.753,1.207 -5.555,3.56 -5.555,3.56 -5.044,1.151 -8.906,6.068 -8.906,6.068 -1.74,3.037 -6.521,7.095 -6.521,7.095 -1.587,1.502 -2.2,2.118 -2.2,2.118 -2.321,1.847 -1.493,4.255 -1.37,7.341 0.194,4.943 -3.69,2.913 -4.273,5.857 -0.201,1.014 -1.305,1.7 -1.305,2.648 0,0.946 2.52,2.787 2.52,3.344 0,0.557 -1.181,3.958 -0.693,6.947 0.411,2.517 -0.033,4.395 3.56,4.992 1.59,0.264 4.763,2.889 5.676,4.324 1.352,2.122 3.576,2.193 5.179,3.794 1.697,1.695 1.486,4.113 2.083,6.252 l -10.595,0.607 -14.587,0.607 -17.539,0.435 -10.508,0.086 -0.175,-25.354 c -0.904,-1.458 -2.299,-1.519 -2.299,-1.519 -0.617,-1.316 -1.782,-2.649 -1.782,-2.649 z"
   style="fill:none;fill-opacity:1;stroke:#1e81b0;stroke-opacity:1;stroke-width:3;stroke-dasharray:none" /><path
   id="mo_1_"
   fill="#ffffff"
   stroke="#000000"
   stroke-width="1.4"
   stroke-linejoin="round"
   stroke-miterlimit="1"
   d="m 380.946,210.855 c 0,0 -0.714,0.334 -1.139,0.965 0,0 -0.086,2.72 -1.724,6.331 l -6.513,0.692 c -0.377,-0.824 -0.523,-1.107 0.052,-1.895 0.554,-0.761 1.289,-1.024 1.84,-1.711 1.163,-1.449 -0.041,-2.977 -1.371,-3.775 l -20.318,1.303 -17.803,0.782 -11.201,0.261 -0.174,-7.035 -0.692,-30.13 c -2.664,-1.67 -2.218,-1.785 -3.306,-3.47 -1.156,-1.79 -1.532,-0.552 -1.948,-3.001 -0.254,-1.503 3.279,-1.523 1.821,-3.817 -0.805,-1.267 -2.787,-0.271 -4.384,-2.04 -1.393,-0.93 -0.949,-2.861 -2.257,-3.778 -1.25,-0.876 -2.593,-3.296 -2.606,-4.733 l 11.811,0.087 7.467,-0.174 16.322,-0.953 7.036,-0.782 c 0.65,1.396 2.292,2.419 3.385,3.387 -1.83,3.621 0.37,7.751 2.606,10.331 1.894,2.184 3.875,2.746 5.077,4.226 1.471,1.817 0.667,3.871 2.043,5.586 0.435,0.542 2.525,-0.501 3.647,-0.389 2.688,0.27 2.258,3.136 1.302,4.904 -3.173,5.88 0.549,5.874 3.819,9.726 5.763,-1.576 4.636,7.912 6.426,9.898 l 1.391,1.822 c 0.752,-0.525 1.486,-0.393 2.171,0.262 0.774,1.661 -0.176,3.736 -0.607,5.905 -1.157,-0.62 -2.098,-0.099 -2.173,1.215 z"
   style="fill:none;fill-opacity:1;stroke:#1e81b0;stroke-opacity:1;stroke-width:3;stroke-dasharray:none" /><g
   id="mi"
   style="fill:none;fill-opacity:1;stroke:#1e81b0;stroke-opacity:1;stroke-width:3;stroke-dasharray:none">
		<path
   id="mi_upper"
   fill="#ffffff"
   stroke="#000000"
   stroke-width="1.4"
   stroke-linejoin="round"
   stroke-miterlimit="1"
   d="m 360.193,69.236 c 0,0 3.479,-1.568 4.589,-2.873 0,0 1.182,-1.604 3.857,-1.511 0,0 2.301,0.225 7.446,-5.776 0,0 1.688,0.944 2.463,3.265 0.776,2.323 0.004,0.08 0.004,0.08 0,0 0.257,0.885 0.257,2.439 0,0 1.402,-2.484 4.758,-2.311 0,0 1.805,-0.584 4.708,3.035 0,0 2.688,3.947 9.956,0.805 0,0 3.683,-3.003 8.057,-3.003 0,0 1.633,-0.347 2.635,-0.9 0,0 2.249,-1.162 3.372,-1.067 0,0 -0.252,2.922 0.51,3.977 0,0 2.455,0.377 4.755,-0.226 0,0 2.035,-1.658 3.504,2.412 0,0 0.64,1.545 2.396,2.393 0,0 0.819,0.294 1.078,1.081 0,0 0.069,0.598 -1.926,0.598 0,0 -0.754,0.338 -3.619,0 0,0 -3.386,-0.751 -2.615,2.357 0,0 -1.473,-0.694 -2.268,-1.492 0,0 -1.634,-1.835 -5.667,-0.973 0,0 -1.467,2.633 -6.01,2.481 0,0 -1.133,0.022 -2.819,2.819 0,0 -1.02,-3.043 -4.351,1.611 0,0 -1.008,-0.911 -0.736,-2.765 0,0 -2.961,6.647 -4.981,11.95 -1.604,-0.635 -1.838,-2.112 -0.957,-3.647 -3.732,1.305 -0.711,-3.24 -2.3,-4.687 -0.641,-0.584 -1.437,-0.826 -2.301,-0.913 -1.013,-0.101 -0.153,-1.418 -1.043,-1.953 -0.764,-0.459 -3.289,-1.002 -4.168,-0.739 -2.738,0.822 -8.286,-1.921 -11.154,-2.469 -2.178,-0.416 -3.758,-0.175 -4.898,-2.073 -0.527,-0.871 -1.665,-1.492 -2.532,-1.925"
   style="fill:none;fill-opacity:1;stroke:#1e81b0;stroke-opacity:1;stroke-width:3;stroke-dasharray:none" />
		<path
   id="mi_lower_5_"
   fill="#ffffff"
   stroke="#000000"
   stroke-width="1.4"
   stroke-linejoin="round"
   stroke-miterlimit="1"
   d="m 423.322,132.274 9.463,-1.563 4.254,-0.869 c 0.85,-3.398 2.706,-6.591 3.906,-9.464 0.343,-0.82 2.877,-7.774 2.868,-3.213 3.936,-2.241 -1.484,-19.644 -5.298,-20.492 -4.659,-1.036 -4.81,7.324 -8.16,7.033 -2.013,-0.174 -3.298,-3.395 -1.522,-4.688 2.195,-1.597 1.704,-2.091 2.648,-4.602 0.302,-0.8 1.834,-0.608 1.685,-1.836 -0.154,-1.296 -0.291,-2.47 -0.229,-3.769 0.117,-2.466 -2.02,-2.844 -2.325,-4.641 -0.374,-2.22 1.958,-0.781 0,-3.387 -1.159,-1.546 -2.409,-1.738 -4.452,-2.296 -3.092,-0.843 -5.4,-2.23 -8.395,-3.13 -3.939,-1.18 -4.707,3.014 -3.041,5.599 -3.735,-0.314 -8.154,6.392 -9.812,8.423 -1.712,2.1 -0.76,3.884 -1.042,6.599 -0.263,2.499 -1.466,4.169 -1.478,6.338 -0.016,2.93 -0.271,5.034 1.174,7.771 1.42,2.694 2.723,4.998 3.161,8.051 0.647,4.51 -0.688,12.754 -4.683,15.699 l 5.558,-0.522 15.598,-1.888"
   style="fill:none;fill-opacity:1;stroke:#1e81b0;stroke-opacity:1;stroke-width:3;stroke-dasharray:none" />
	</g><path
   id="ma"
   fill="#ffffff"
   stroke="#000000"
   stroke-width="1.4"
   stroke-linejoin="round"
   stroke-miterlimit="1"
   d="m 561.386,103.881 c 0,0 0.58,0.547 1.434,0.868 0,0 1.126,0.133 1.217,2.011 0,0 0.64,-0.534 1.421,-1.137 0,0 0.792,-1.143 1.28,-1.633 0,0 0.339,-1.073 1.159,-1.323 0,0 0.135,1.302 0.694,2.341 0,0 1.918,-1.346 3.374,-2.074 0,0 2.661,-1.256 3.292,-1.885 0,0 1.108,-1.638 -1.331,-3.819 0,0 -1.485,-0.808 -3.042,-0.882 0,0 2.918,1.159 3.189,2.893 0,0 -0.097,1.506 -2.41,2.236 0,0 -1.478,0.335 -2.649,-0.836 0,0 -0.281,-0.998 -1.543,-1.4 0,0 -0.884,-0.176 -0.884,-0.905 0,0 -0.107,-0.578 0.727,-0.213 0,0 -0.978,-1.57 -2.408,-2.199 0,0 -0.755,-0.149 -1.71,0.101 0,0 -0.999,-0.14 -1.528,-1.226 0,0 0.819,0.003 0.819,-0.818 0,0 -0.016,-0.781 0.329,-1.475 0,0 0.663,-1.199 2.067,-1.955 0,0 0.234,-0.443 -0.079,-0.757 0,0 -0.252,-0.131 -0.751,0.075 0,0 -0.223,0.271 -0.98,-0.178 0,0 -0.821,-0.858 -1.081,-2.482 0,0 -1.447,0.085 -2.633,1.762 0,0 -0.871,1.423 -1.709,2.06 l -11.548,2.692 -7.904,1.65 -0.255,9.636 0.344,0.522 8.732,-1.767 8.372,-1.967 3.477,-1.042 c 0,0 0.822,0.437 1.126,1.129 -10e-4,0 0.589,1.285 1.392,1.997"
   style="fill:none;fill-opacity:1;stroke:#1e81b0;stroke-opacity:1;stroke-width:3;stroke-dasharray:none" /><path
   id="md"
   fill="#ffffff"
   stroke="#000000"
   stroke-width="1.4"
   stroke-linejoin="round"
   stroke-miterlimit="1"
   d="m 510.415,157.194 c 0,0 1.852,-0.48 1.852,2.779 0,0 -2.41,3.712 -1.056,4.517 0,0 2.967,-1.659 9.8,2.714 0,0 0.149,-1.699 -2.862,-5.975 0,0 -4.518,-7.562 1.496,-13.448 0.475,-0.464 1.015,-0.046 0.499,1.863 -0.79,2.927 -1.353,7.26 0.867,10.423 0,0 0.705,0.772 0.454,2.857 0,0 2.008,-0.478 4.294,0.97 0,0 1.936,0.797 1.23,3.71 l 1.475,0.669 0.511,-0.442 2.915,-0.958 c 0,0 1.625,-4.796 1.709,-7.594 l -6.609,1.476 -4.767,-17.365 -20.668,4.427 -18.234,3.472 1.215,7.294 c 1.966,-2.765 3.91,-4.66 3.91,-4.66 1.353,-0.139 2.329,-1.744 2.329,-1.744 -0.103,-0.728 0.144,-0.777 0.284,-0.832 0.14,-0.055 0.521,0.135 0.521,0.135 1.202,0.861 2.649,0.544 2.649,0.544 1.959,-3.994 5.026,-2.488 5.026,-2.488 2.762,1.183 3.517,3.661 3.517,3.661 2.49,-0.486 3.212,1.477 3.212,1.477 -0.15,1.14 0.782,1.477 0.782,1.477 1.28,-0.247 3.649,1.041 3.649,1.041"
   style="fill:none;fill-opacity:1;stroke:#1e81b0;stroke-opacity:1;stroke-width:3;stroke-dasharray:none" /><path
   id="me"
   fill="#ffffff"
   stroke="#000000"
   stroke-width="1.4"
   stroke-linejoin="round"
   stroke-miterlimit="1"
   d="m 550.18,54.909 c 0,0 0.391,-0.63 1.563,-0.434 0,0 0.993,0.091 0.708,-1.164 0,0 0.167,-2.766 0.881,-3.944 0,0 2.499,-2.812 1.548,-8.089 0,0 -0.25,-2.11 0.553,-4.371 0,0 0.336,-2.317 -0.261,-4.174 l 4.04,-11.949 c 0,0 0.819,-0.464 1.65,0 0,0 0.398,2.856 2.508,2.592 0,0 0.223,-0.071 0.529,-0.377 0,0 0.697,-0.526 1.32,-0.772 0,0 0.844,-0.506 1.581,-1.414 0,0 1.53,-2.211 4.31,-0.352 0,0 1.955,1.539 2.952,1.624 l 5.033,14.935 c 0,0 -0.046,2.335 0.82,3.014 0,0 1.508,0.678 2.488,0.678 0,0 0.978,-0.301 1.47,0 0,0 0.226,0.452 0.111,1.244 0,0 -0.057,1.187 0.567,1.809 0,0 0.356,0.743 0.498,1.464 0.143,0.722 0,0.081 0,0.081 0,0 0.367,0.943 1.875,0.566 0,0 1.186,-0.433 2.222,0.602 0,0 0.603,0.529 0.416,1.471 0,0 -0.789,0.897 -0.243,1.598 0,0 1.04,0.535 1.149,-0.457 0,0 2.504,0.843 -2.951,4.862 0,0 -1.472,0.589 -2.966,2.085 0,0 -0.493,1.709 -4.072,2.349 0,0 -2.109,0.415 -1.845,3.468 0,0 -1.205,-0.527 -2.486,-0.377 0,0 0.941,-1.054 -0.87,-2.863 0,0 -1.009,1.136 -0.984,2.792 0,0 -0.601,2.974 -0.147,4.406 0,0 0.771,0.587 -0.336,1.697 -0.058,0.055 -0.581,0.474 -1.313,0.164 0,0 -1.006,-0.315 -1.439,0.721 0,0 -0.169,0.791 0,1.206 0,0 0.113,0.83 -0.603,1.225 0,0 -1.091,1.077 -3.502,1.858 0,0 -0.663,-0.104 -1.021,-0.689 0,0 -1.13,0.942 -1.205,2.45 0,0 0.225,0.627 -0.503,2.085 0,0 -0.284,0.943 -0.477,2.412 -0.173,1.311 -0.302,1.232 -0.757,2.085 0,0 -0.173,0.83 -0.123,1.81 0,0 0.092,0.752 -0.444,1.682 l -0.434,-0.259 c -1.303,-0.663 -1.484,-1.899 -1.484,-1.899 -2.652,-1.419 -2.423,-4.005 -2.423,-4.005 l -1.042,-2.692 -6.861,-20.754"
   style="fill:none;fill-opacity:1;stroke:#1e81b0;stroke-opacity:1;stroke-width:3;stroke-dasharray:none" /><path
   id="la_1_"
   fill="#ffffff"
   stroke="#000000"
   stroke-width="1.4"
   stroke-linejoin="round"
   stroke-miterlimit="1"
   d="m 386.854,300.029 c -3.119,0.971 -5.767,-3.23 -8.944,-1.908 -3.195,1.327 -1.828,3.843 0.606,4.167 2.273,0.305 2.852,-0.957 4.523,-1.156 0.452,0 0.717,0.036 1.205,0.525 -0.421,1.022 -0.026,0.884 -1.125,1.241 3.349,2.613 2.954,-0.016 4.31,-0.431 1.02,0.151 1.68,0.952 1.333,3.035 -1.465,-0.196 -2.488,0.969 -1.043,2.343 -0.693,-0.284 -1.172,-0.575 -1.822,-0.263 -1.961,2.802 5.245,2.329 7.655,5.906 -0.158,1.52 -0.384,1.405 -0.979,2.338 -0.839,-0.364 -1.605,-0.691 -2.751,-1.43 -1.929,-1.149 -2.298,-1.019 -4.637,-2.487 -2.563,-1.964 -4.146,-2.039 -5.715,-2.675 0.723,1.377 3.179,2.649 1.304,3.993 0.649,0.95 0.14,2.938 -1.475,2.78 -1.285,-0.128 0.64,-3.438 -2.172,-2.173 -0.117,-0.317 -0.232,-0.636 -0.348,-0.953 -2.79,0.313 -2.797,4.807 -5.835,2.834 -2.286,-1.487 -1.884,-0.044 -2.894,-2.269 -0.725,-1.603 -3.272,-2.157 -4.647,-3.047 -1.648,-1.063 -1.723,-1.62 -4.07,-2.373 -1.471,-0.678 -4.938,-0.678 -3.133,2.424 -5.16,1.521 -10.36,-1.444 -15.752,-2.313 -3.331,0.283 -4.829,1.688 -5.499,1.201 -1.03,-0.75 0.655,-1.256 0.177,-3.569 1.378,-1.529 0.718,-7.32 0.71,-7.392 -0.325,-2.185 1.63,-4.796 1.52,-7.207 -0.111,-2.447 -0.765,-3.737 -1.997,-6.25 -1.18,-2.409 -1.554,-5.72 -4.168,-7.469 l -0.432,-14.327 14.5,-0.521 19.102,-1.039 c 0,0 0.174,4.625 2.032,6.688 0,0 2.274,3.918 -0.702,8.189 0,0 -3.914,3.147 -5.323,13.861 l 23.097,-1.563 c 0.087,0.616 -0.235,1.574 -0.235,1.574 -0.712,1.565 -0.845,2.98 -0.845,2.98 0.835,2.497 4.469,6.736 4.469,6.736"
   style="fill:none;fill-opacity:1;stroke:#1e81b0;stroke-opacity:1;stroke-width:3;stroke-dasharray:none" /><path
   id="ky_1_"
   fill="#ffffff"
   stroke="#000000"
   stroke-width="1.4"
   stroke-linejoin="round"
   stroke-miterlimit="1"
   d="m 380.946,210.855 15.37,-1.303 -0.124,-2.226 c 19.962,-1.463 36.651,-3.36 48.828,-4.979 l 0.008,-0.002 c 7.382,-3.021 8.696,-6.499 8.696,-6.499 0.778,-2.285 2.008,-3.374 2.008,-3.374 2.33,-1.137 5.862,-5.511 5.862,-5.511 -1.387,-0.9 -3.263,-1.466 -6.494,-5.587 0,0 -1.675,-1.759 -1.823,-3.368 0,0 0.635,-1.181 -0.085,-2.751 -0.908,-1.01 -4.581,-4.233 -5.603,-3.301 -2.431,2.213 -2.334,0.542 -5.166,0.826 -1.313,0.132 -6.262,0.56 -7.481,-1.037 -2.118,-2.785 -4.099,-3.907 -7.279,-2.742 0,0 -0.775,0.507 -0.078,1.674 0,0 1.28,2.111 -1.111,3.657 l -0.604,0.259 c 0,0 -1.795,0.281 -1.998,0.188 -2.513,-1.159 -2.012,3.095 -3.289,4.602 -1.491,1.759 -2.027,2.213 -2.991,4.209 -0.52,1.076 0.539,1.707 -0.958,2.431 -0.707,0.343 -2.417,-0.306 -3.007,-0.771 -1.801,-1.42 -2.574,0.957 -3.069,2.667 -0.095,0.327 -0.832,0.515 -1.112,0.381 -1.683,-0.806 -3.226,-0.494 -4.098,1.095 -0.131,0.238 -1.104,0.187 -1.467,-0.022 -3.498,-2.02 -5.979,1.558 -9.213,1.686 -0.063,1.691 -0.466,1.047 -0.285,3.229 0.181,2.182 -2.21,2.312 -2.21,2.312 -2.763,1.158 -1.508,2.614 -1.508,2.614 0.905,0.904 0.604,1.958 0.604,1.958 -0.961,1.25 -1.907,0.298 -1.907,0.298 -3.665,-1.713 -4.283,-1.174 -4.283,-1.174 -2.758,1.45 -1.351,3.44 -1.351,3.44 0.774,1.661 -0.176,3.736 -0.607,5.905 -1.159,-0.619 -2.1,-0.098 -2.175,1.216"
   style="fill:none;fill-opacity:1;stroke:#1e81b0;stroke-opacity:1;stroke-width:3;stroke-dasharray:none" /><path
   id="ks"
   fill="#ffffff"
   stroke="#000000"
   stroke-width="1.4"
   stroke-linejoin="round"
   stroke-miterlimit="1"
   d="m 314.087,164.315 c 1.597,1.768 3.579,0.773 4.384,2.04 1.458,2.294 -2.075,2.314 -1.821,3.817 0.416,2.449 0.792,1.211 1.948,3.001 1.088,1.685 0.642,1.8 3.306,3.47 l 0.692,30.13 -13.893,0.262 h -25.441 l -25.269,-0.606 -17.799,-0.782 2.082,-42.635 13.634,0.695 26.396,0.695 13.805,0.087 17.976,-0.174"
   style="fill:none;fill-opacity:1;stroke:#1e81b0;stroke-opacity:1;stroke-width:3;stroke-dasharray:none" /><path
   id="in"
   fill="#ffffff"
   stroke="#000000"
   stroke-width="1.4"
   stroke-linejoin="round"
   stroke-miterlimit="1"
   d="m 402.046,133.839 5.558,-0.522 15.598,-1.888 4.462,37.573 c 0,0 -0.775,0.507 -0.078,1.674 0,0 1.28,2.111 -1.111,3.657 l -0.604,0.259 c 0,0 -1.795,0.281 -1.998,0.188 -2.513,-1.159 -2.012,3.095 -3.289,4.602 -1.491,1.759 -2.027,2.213 -2.991,4.209 -0.52,1.076 0.539,1.707 -0.958,2.431 -0.707,0.343 -2.417,-0.306 -3.007,-0.771 -1.801,-1.42 -2.574,0.957 -3.069,2.667 -0.095,0.327 -0.832,0.515 -1.112,0.381 -1.683,-0.806 -3.226,-0.494 -4.098,1.095 -0.131,0.238 -1.104,0.187 -1.467,-0.022 -3.498,-2.02 -5.979,1.558 -9.213,1.686 0,0 -0.139,-3.059 0.347,-5.47 0.301,-1.497 2.567,-3.343 2.736,-5.166 0.213,-2.318 2.103,-3.514 0.996,-6.124 -0.874,-2.068 -2.519,-3.779 -0.606,-5.731 l -3.126,-33.342 c 2.337,2.225 4.963,0.196 7.03,-1.386"
   style="fill:none;fill-opacity:1;stroke:#1e81b0;stroke-opacity:1;stroke-width:3;stroke-dasharray:none" /><path
   id="il_1_"
   fill="#ffffff"
   stroke="#000000"
   stroke-width="1.4"
   stroke-linejoin="round"
   stroke-miterlimit="1"
   d="m 355.244,157.369 c 1.452,-2.975 2.426,-3.514 3.301,-6.556 0.382,-1.335 1.441,-1.476 1.302,-2.997 -0.095,-1.042 -1.76,-2.045 -1.736,-2.69 0.106,-2.841 0.889,-2.837 3.468,-3.365 3.337,-0.683 6.925,-5.62 5.649,-9.095 -0.688,-1.876 -3.306,-3.884 -4.196,-4.447 -0.89,-0.563 -1.273,-1.589 -1.273,-1.589 l 16.409,-0.954 12.854,-1.128 c 1.062,5.287 1.374,6.245 3.992,10.68 l 3.126,33.342 c -1.912,1.952 -0.268,3.663 0.606,5.731 1.106,2.61 -0.783,3.805 -0.996,6.124 -0.169,1.823 -2.436,3.669 -2.736,5.166 -0.485,2.411 -0.347,5.47 -0.347,5.47 -0.063,1.691 -0.466,1.047 -0.285,3.229 0.181,2.182 -2.21,2.312 -2.21,2.312 -2.763,1.158 -1.508,2.614 -1.508,2.614 0.905,0.904 0.604,1.958 0.604,1.958 -0.961,1.25 -1.907,0.298 -1.907,0.298 -3.665,-1.713 -4.283,-1.174 -4.283,-1.174 -2.758,1.45 -1.351,3.44 -1.351,3.44 -0.685,-0.654 -1.419,-0.787 -2.171,-0.262 l -1.391,-1.822 c -1.79,-1.987 -0.663,-11.475 -6.426,-9.898 -3.271,-3.852 -6.992,-3.846 -3.819,-9.726 0.956,-1.768 1.387,-4.634 -1.302,-4.904 -1.122,-0.112 -3.213,0.931 -3.647,0.389 -1.376,-1.715 -0.572,-3.769 -2.043,-5.586 -1.202,-1.48 -3.184,-2.042 -5.077,-4.226 -2.237,-2.582 -4.437,-6.713 -2.607,-10.334"
   style="fill:none;fill-opacity:1;stroke:#1e81b0;stroke-opacity:1;stroke-width:3;stroke-dasharray:none" /><path
   id="id_1_"
   fill="#ffffff"
   stroke="#000000"
   stroke-width="1.4"
   stroke-linejoin="round"
   stroke-miterlimit="1"
   d="m 89.193,114.474 16.499,3.387 13.893,2.519 3.994,0.782 14.587,2.431 12.157,1.824 5.124,-34.994 c -1.708,-1.573 -3,-6.225 -4.341,-1.301 -2.791,-0.584 -12.583,-2.64 -13.633,0.347 -0.896,-0.956 -1.987,-2.725 -1.607,-3.995 0.895,-2.975 -2.619,-2.185 -3.125,-4.037 -0.963,-3.533 -0.669,-8.846 -2.821,-12.113 -10.733,5.878 -3.079,-8.625 -1.477,-14.067 -3.563,-0.194 -3.516,-2.31 -4.95,-4.775 -1.95,-3.353 -4.332,-5.618 -6.253,-8.77 0.32,-0.057 0.637,-0.117 0.956,-0.174 -0.1,-1.899 -2.79,-6.377 -2.473,-7.953 0.912,-4.527 1.825,-9.053 2.733,-13.581 l -2.082,-0.434 -7.035,-1.476 -0.085,0.521 -6.772,31.607 -0.349,2.865 c -0.81,1.266 0.323,2.974 -0.119,4.566 l 0.119,1.772 -0.26,-0.868 0.26,0.868 c 0.126,3.453 4.782,4.486 1.787,7.858 -2.199,2.471 -3.2,5.87 -5.303,8.206 -1.574,1.75 -5.685,4.391 -4.124,7.293 0.195,0.363 1.444,0.329 1.736,0.869 0.673,1.246 -0.072,0.706 -0.174,1.823 -0.14,1.559 -0.654,2.817 -1.65,3.995 l -5.212,25.005"
   style="fill:none;fill-opacity:1;stroke:#1e81b0;stroke-opacity:1;stroke-width:3;stroke-dasharray:none" /><path
   id="ia_1_"
   fill="#ffffff"
   stroke="#000000"
   stroke-width="1.4"
   stroke-linejoin="round"
   stroke-miterlimit="1"
   d="m 301.669,114.821 10.508,-0.086 17.539,-0.435 14.587,-0.607 10.595,-0.607 c 0.492,1.331 1.049,1.579 1.216,2.258 0.365,1.48 -0.23,2.77 -0.042,4.486 0.126,1.128 0.741,3.748 1.822,4.24 0.533,0.359 1.575,0.587 1.575,0.587 0.772,0.188 0.973,0.274 0.973,0.274 0.354,0.203 0.559,0.187 0.732,0.569 0.173,0.382 0.584,1.13 0.584,1.13 0,0 0.383,1.027 1.273,1.589 0.89,0.562 3.508,2.571 4.196,4.447 1.275,3.475 -2.313,8.412 -5.649,9.095 -2.579,0.528 -3.361,0.524 -3.468,3.365 -0.023,0.645 1.642,1.648 1.736,2.69 0.14,1.521 -0.92,1.662 -1.302,2.997 -0.875,3.042 -1.849,3.582 -3.301,6.556 -1.093,-0.968 -2.734,-1.992 -3.385,-3.387 l -7.036,0.782 -16.322,0.953 -7.467,0.174 -11.811,-0.087 c -2.579,-3.017 0.564,-12.186 -3.558,-13.371 -0.257,-3.158 -0.669,-4.457 -1.912,-7.293 -0.588,-1.344 -1.396,-5.223 -1.941,-6.203 -1.042,-2.792 -2.018,-5.402 -0.49,-7.951 0.64,-1.068 -0.877,-4.618 -1.215,-6.165 h 1.563"
   style="fill:none;fill-opacity:1;stroke:#1e81b0;stroke-opacity:1;stroke-width:3;stroke-dasharray:none" /><path
   id="ga_1_"
   fill="#ffffff"
   stroke="#000000"
   stroke-width="1.4"
   stroke-linejoin="round"
   stroke-miterlimit="1"
   d="m 440.688,225.919 13.892,-1.951 c -1.437,1.438 -2.17,4.167 -2.17,4.167 0.888,2.124 4.165,2.928 4.165,2.928 1.894,0 2.427,1.315 2.427,1.315 1.156,3.87 7.329,7.173 7.329,7.173 4.036,3.127 4.785,4.262 4.785,4.262 1.821,2.906 3.81,4.146 3.81,4.146 3.812,2.415 3.968,4.49 3.968,4.49 0.545,2.384 2.284,2.892 2.284,2.892 1.527,1.527 1.619,3.091 1.619,3.091 1.015,2.405 3.737,3.137 3.737,3.137 l 0.631,0.217 c -2.042,2.671 -2.889,6.221 -2.889,6.221 -0.178,3.399 -1.751,6.826 -1.751,6.826 -0.749,2.245 -0.244,6.272 -0.244,6.272 -3.382,-0.772 -5.598,-0.221 -5.598,-0.221 -0.841,0.563 -0.451,1.662 -0.451,1.662 1.276,3.538 -0.302,4.369 -0.302,4.369 -1.508,0.295 -2.028,-2.479 -2.028,-2.479 l -31.839,2.293 c -0.939,-1.625 -2.069,-3.629 -2.069,-3.629 0,0 -1.203,-2.433 -1.566,-6.402 0,0 -0.326,-1.86 -1.333,-4.973 0,0 -0.341,-1.42 1.688,-6.391 0,0 0.415,-1.106 -2.643,-5.025 0,0 -1.271,-2.222 -1.704,-3.779 l -8.511,-28.744 14.763,-1.867"
   style="fill:none;fill-opacity:1;stroke:#1e81b0;stroke-opacity:1;stroke-width:3;stroke-dasharray:none" /><g
   id="fl"
   style="fill:none;fill-opacity:1;stroke:#1e81b0;stroke-opacity:1;stroke-width:3;stroke-dasharray:none">
		<path
   id="fl_1_"
   fill="#ffffff"
   stroke="#000000"
   stroke-width="1.4"
   stroke-linejoin="round"
   stroke-miterlimit="1"
   d="m 482.281,281.104 c 0,0 3.193,11.803 13.084,24.226 0,0 3.394,3.242 3.854,5.042 0,0 -0.221,2.783 2.271,6.853 0,0 -2.381,-2.256 -2.885,-7.122 0,0 0.322,-0.791 -3.221,-2.831 0,0 0.563,3.898 6.8,12.578 0,0 2.979,4.712 5.678,9.147 0,0 2.204,4.633 2.204,7.949 0,0 -0.222,1.152 0.349,4.936 0,0 0.35,2.102 0,4.413 0,0 -2.296,2.432 -1.147,5.888 0,0 -0.518,2.854 -3.834,4.564 0,0 -2.988,0.736 -5.263,0.796 0,0 -1.858,-0.779 -0.696,-2.636 0,0 -1.491,-2.223 -2.602,-4.074 0,0 -1.729,-2.576 -4,-3.132 0,0 -1.863,0.642 -3.562,-1.877 0,0 -1.249,-2.096 -1.249,-3.225 0,0 0.111,-0.69 -2.364,-2.365 0,0 -2,-2.092 -1.803,-4.543 0.013,-0.143 -0.041,-0.354 -0.409,-0.546 -0.242,-0.124 -0.6,-0.364 -1.119,-0.816 0,0 -0.581,0.74 0.64,2.086 0,0 -2.68,0.518 -6.86,-6.863 0,0 -1.226,-1.579 -0.651,-2.238 0.484,-0.55 1.134,-1.54 1.907,-3.324 0,0 0.897,-1.114 0.444,-1.565 0,0 -0.504,-1.156 -1.908,0 0,0 -0.62,0.708 -0.698,1.587 0,0 -0.223,1.071 -1.068,1.071 0,0 -2.012,-0.409 -2.012,-2.013 0,0 2.206,-10.179 0.504,-14.278 0,0 -0.941,-2.547 -6.096,-4.381 0,0 -1.994,-1.001 -4.496,-4.062 0,0 -1.989,-2.69 -5.494,-5.003 0,0 -1.909,-0.976 -5.119,-0.879 0,0 -2.91,0.274 -1.803,2.984 0,0 -2.194,0.02 -3.703,1.526 0,0 -3.931,2.354 -6.845,2.354 0,0 -7.025,-12.308 -25.427,-5.885 0,0 -1.961,1.024 -0.956,-0.434 0,0 0.733,-0.88 -0.864,-1.406 0.021,-1.293 0.145,-2.575 -1.217,-3.257 -1.738,-0.868 -2.356,-2.709 -0.694,-3.864 l 11.198,-1.129 18.846,-2.257 c 0,0 1.13,2.004 2.069,3.629 l 31.839,-2.293 c 0,0 0.521,2.773 2.028,2.479 0,0 1.578,-0.831 0.302,-4.369 0,0 -0.39,-1.1 0.451,-1.662 0,0 2.215,-0.552 5.597,0.221"
   style="fill:none;fill-opacity:1;stroke:#1e81b0;stroke-opacity:1;stroke-width:3;stroke-dasharray:none" />
		<path
   id="fl_key_5_"
   fill="#ffffff"
   stroke="#000000"
   stroke-width="1.4"
   stroke-linejoin="round"
   stroke-miterlimit="1"
   d="m 510.14,352.951 c 0,0 -0.656,0.151 -0.942,1.339 0,0 0.044,1.197 -2.248,4.462 -10e-4,0 2.495,-2.394 3.19,-5.801 z"
   style="fill:none;fill-opacity:1;stroke:#1e81b0;stroke-opacity:1;stroke-width:3;stroke-dasharray:none" />
	</g><path
   id="de"
   fill="#ffffff"
   stroke="#000000"
   stroke-width="1.4"
   stroke-linejoin="round"
   stroke-miterlimit="1"
   d="m 522.223,143.39 c 0.656,-3.694 3.562,-2.085 3.562,-2.085 -1.509,2.165 -1.057,3.386 -1.057,3.386 1.333,2.487 3.043,4.624 3.043,4.624 0.602,1.76 1.781,4.597 3.45,5.04 0.003,0.001 0.004,0.002 0.006,0.003 1.663,0.683 1.541,1.689 1.541,1.689 0.153,2.086 1.357,3.136 1.357,3.136 l -0.526,0.096 -6.609,1.476 -4.767,-17.365"
   style="fill:none;fill-opacity:1;stroke:#1e81b0;stroke-opacity:1;stroke-width:3;stroke-dasharray:none" /><polyline
   id="co"
   fill="#ffffff"
   stroke="#000000"
   stroke-width="1.4"
   stroke-linejoin="round"
   stroke-miterlimit="1"
   points="   162.132,198.699 180.539,200.871 196.951,202.521 216.749,204.171 229.252,204.951 240.194,205.646 242.276,163.012    243.013,148.808 231.684,148.251 222.046,147.555 205.548,146.253 196.43,145.386 179.324,143.563 169.251,142.346    162.132,198.699  "
   style="fill:none;fill-opacity:1;stroke:#1e81b0;stroke-opacity:1;stroke-width:3;stroke-dasharray:none" /><path
   id="ct"
   fill="#ffffff"
   stroke="#000000"
   stroke-width="1.4"
   stroke-linejoin="round"
   stroke-miterlimit="1"
   d="m 555.391,101.797 -8.372,1.967 -8.732,1.767 1.824,10.159 c 0,0 0.686,0.559 0.499,1.911 0,0 -0.064,0.175 -1.074,1.182 0,0 -0.601,0.335 -0.1,0.833 l 0.761,0.764 0.87,-0.348 c 0,0 3.161,-3.341 5.231,-4.661 0,0 2.658,-1.262 5.843,-2.034 0,0 0.624,-0.16 1.169,-0.425 0.545,-0.265 3.691,-1.203 4.164,-1.563 -0.173,-1.046 0.179,-1.565 0.179,-1.565 l -2.262,-7.987"
   style="fill:none;fill-opacity:1;stroke:#1e81b0;stroke-opacity:1;stroke-width:3;stroke-dasharray:none" /><path
   id="ca_2_"
   fill="#ffffff"
   stroke="#000000"
   stroke-width="1.4"
   stroke-linejoin="round"
   stroke-miterlimit="1"
   d="m 96.748,222.144 c 0.185,0.693 0.448,1.646 0.39,2.345 -0.097,1.176 1.344,1.356 1.693,2.346 0.818,2.3 -1.586,1.942 -3.212,3.387 -1.641,1.455 -1.243,2.818 -1.822,4.772 -0.592,1.996 -2.716,3.05 -3.388,4.604 -0.305,0.703 -0.785,3.845 -0.433,4.603 0.318,0.689 3.934,1.926 1.432,3.517 -1.271,0.808 -1.118,1.043 -2.823,0.912 l -27.872,-2.867 c 0,0 -0.673,-1.363 -1.478,-2.168 1.409,-5.276 -0.117,-10.893 -4.472,-14.459 -0.903,-0.739 -3.982,-2.321 -4.296,-2.737 -1.172,-1.727 0.021,-3.883 -1.737,-5.207 -6.78,-5.102 -18.361,-8.845 -21.1,-15.543 -0.58,-1.415 2.115,-3.864 1.041,-5.341 -1.726,-2.375 -1.615,-3.082 -2.952,-5.947 -1.502,-3.219 -5.67,-9.258 -5.904,-12.592 -0.088,-1.246 1.648,-4.891 1.648,-5.557 0.057,-0.73 -1.318,-3.917 -1.476,-4.599 -0.678,-4.443 -5.298,-8.979 -0.609,-12.854 -0.171,3.296 0.446,3.681 2.779,5.818 -0.459,-1.695 -2.857,-7.266 -1.649,-8.42 1.649,-1.576 8.896,1.932 9.812,2.777 -1.028,-1.968 -1.028,-1.968 -2.17,-2.777 -1.143,-0.81 -8.885,-5.013 -9.726,2.169 -1.668,-1.569 -3.582,-3.166 -3.675,-3.733 0,-0.526 0.29,-0.997 0.29,-2.864 0,-2.068 -3.285,-5.425 -4.604,-10.595 -1.238,-4.856 2.664,-10.349 1.042,-15.542 -2.604,-8.336 -1.955,-7.449 1.476,-14.153 2.489,-4.861 2.129,-11.252 4.254,-14.935 l 22.577,6.251 19.103,4.862 -7.728,31.868 -2.346,9.376 32.823,47.844 13.893,20.493 c 0.003,3.599 0.759,3.231 1.219,4.946 z"
   style="fill:none;fill-opacity:1;stroke:#1e81b0;stroke-opacity:1;stroke-width:3;stroke-dasharray:none" /><path
   id="az"
   fill="#ffffff"
   stroke="#000000"
   stroke-width="1.4"
   stroke-linejoin="round"
   stroke-miterlimit="1"
   d="m 162.132,198.699 -15.196,-1.997 -14.674,-2.169 -15.023,-2.435 -10.158,-1.822 c -0.62,3.42 -0.501,8.78 -2.431,11.679 -2.81,4.219 -3.006,-2.435 -6.425,-0.826 -2.25,1.06 -1.122,5.029 -1.303,7.209 -0.095,1.147 0.092,2.955 -0.086,3.994 -0.332,1.914 -1.21,2.011 -1.303,4.862 0,3.602 0.756,3.233 1.216,4.948 0.185,0.693 0.448,1.646 0.39,2.345 -0.097,1.176 1.344,1.356 1.693,2.346 0.818,2.3 -1.586,1.942 -3.212,3.387 -1.641,1.455 -1.243,2.818 -1.822,4.772 -0.592,1.996 -2.716,3.05 -3.388,4.604 -0.305,0.703 -0.785,3.845 -0.433,4.603 0.318,0.689 3.934,1.926 1.432,3.517 -1.271,0.808 -1.118,1.043 -2.823,0.912 0,0 -1.763,1.269 -1.65,2.777 l 2.779,1.651 23.357,13.461 15.284,8.594 17.798,2.517 5.905,0.696 v 0 l 10.073,-79.625"
   style="fill:none;fill-opacity:1;stroke:#1e81b0;stroke-opacity:1;stroke-width:3;stroke-dasharray:none" /><path
   id="ar_1_"
   fill="#ffffff"
   stroke="#000000"
   stroke-width="1.4"
   stroke-linejoin="round"
   stroke-miterlimit="1"
   d="m 372.524,232.823 c 0,0 0.545,-1.746 1.477,-2.678 0,0 0.761,-0.774 0.812,-2.043 0,0 -0.161,-1.351 0.628,-2.403 0,0 1.602,-3.522 2.644,-7.548 l -6.513,0.692 c -0.377,-0.824 -0.523,-1.107 0.052,-1.895 0.554,-0.761 1.289,-1.024 1.84,-1.711 1.163,-1.449 -0.041,-2.977 -1.371,-3.775 l -20.318,1.303 -17.803,0.782 -11.201,0.261 c 0,0 -0.019,1.649 0.647,4.046 0,0 1.568,6.805 1.784,11.757 l 0.165,25.073 v -0.022 c 0.313,0.145 0.575,0.324 0.878,0.564 0.536,0.43 3.075,-0.189 4.254,0.26 l 0.262,7.641 14.5,-0.521 19.102,-1.039 c 0.531,-3.121 0.176,-5.56 0.176,-5.56 -1.508,-1.946 -0.525,-4.861 -0.525,-4.861 0,0 0.862,-1.495 1.353,-2.195 0,0 0.844,-1.931 1.011,-3.034 0,0 0.189,-1.461 1.262,-2.345 0,0 2.192,-2.81 2.924,-5.607 0,0 0.148,-1.235 0.461,-2.048 -0.004,0 1.4,-2.919 1.499,-3.094 z"
   style="fill:none;fill-opacity:1;stroke:#1e81b0;stroke-opacity:1;stroke-width:3;stroke-dasharray:none" /><path
   id="al"
   fill="#ffffff"
   stroke="#000000"
   stroke-width="1.4"
   stroke-linejoin="round"
   stroke-miterlimit="1"
   d="m 425.926,227.785 -27.826,2.884 -0.827,44.007 2.865,21.36 c 0,0 1.292,-0.224 3.403,0.174 0,0 0.174,-3.361 0.764,-4.948 0,0 2.104,0.405 1.216,2.951 0,0 0.44,0.892 1.718,1.325 0,0 0.924,0.874 1.494,1.8 0,0 2.214,-0.594 3.129,-3.731 0.021,-1.293 0.145,-2.575 -1.217,-3.257 -1.738,-0.868 -2.356,-2.709 -0.694,-3.864 l 11.198,-1.129 18.846,-2.257 c 0,0 -1.203,-2.433 -1.566,-6.402 0,0 -0.326,-1.86 -1.333,-4.973 0,0 -0.341,-1.42 1.688,-6.391 0,0 0.415,-1.106 -2.643,-5.025 0,0 -1.271,-2.222 -1.704,-3.779 l -8.511,-28.745"
   style="fill:none;fill-opacity:1;stroke:#1e81b0;stroke-opacity:1;stroke-width:3;stroke-dasharray:none" />

<path
   id="tx"
   fill="#ffffff"
   stroke="#000000"
   stroke-width="1.4"
   stroke-linejoin="round"
   stroke-miterlimit="1"
   d="m 335.837,298.38 c 0.008,0.071 0.668,5.862 -0.71,7.392 -1.391,1.516 -1.469,2.25 -1.469,2.25 -0.141,0.828 0.139,1.791 0.139,1.791 -4.799,0.033 -6.761,3.503 -10.505,2.721 -2.971,-4.845 -1.703,2.432 -2.736,3.91 -2.897,4.145 -12.535,9.638 -12.806,9.638 -0.271,0 -0.255,-0.329 -1.044,-0.694 -0.789,-0.365 -5.581,0.199 -3.213,2.518 -5.352,2.712 -6.124,3.863 -9.983,8.944 -2.583,-1.003 -1.593,3.099 -2.779,6.859 -0.819,2.588 -1.532,3.758 -1.652,6.077 -0.12,2.319 3.541,9.756 2.519,14.5 -2.225,-0.721 -3.896,-3.018 -6.513,-2.908 -3.567,0.148 -6.809,-3.221 -9.505,-2.734 -5.836,1.051 -7.167,-7.728 -9.946,-11.201 -0.866,-1.089 -0.829,-4.255 -0.738,-5.256 0.347,-3.811 -3.953,-3.18 -4.643,-6.64 -0.796,-3.981 -5.71,-8.202 -7.296,-12.156 -3.923,-9.801 -12.297,-19.227 -22.748,-16.107 -3.692,1.1 -8.097,6.455 -9.336,10.159 -0.864,2.595 -12.525,-6.889 -13.848,-7.814 -5.803,-4.061 -5.012,-13.7 -10.161,-19.061 -4.911,-5.111 -9.809,-12.049 -14.935,-16.238 l -0.082,-0.271 c -0.177,-0.589 -0.515,-1.267 -0.438,-1.897 l 9.028,0.954 11.637,0.955 10.333,0.87 11.566,0.76 1.025,-15.609 1.127,-12.852 2.17,-35.199 0.521,0.034 15.371,0.868 11.547,0.52 6.704,0.105 -0.798,25.771 -0.087,1.563 c 2.205,0.326 5.498,5.336 7.38,1.823 1.263,0.813 1.488,1.788 1.868,3.17 0.157,0.578 3.084,0.91 3.815,1.155 1.718,0.574 2.62,0.021 3.956,1.188 0.572,0.499 3.738,-0.671 4.949,-0.564 -0.025,1.532 2.077,4.874 3.75,3.2 1.666,-1.668 1.616,-0.189 3.198,0.187 1.203,0.287 1.53,0.835 3.558,0.434 -0.456,3.938 2.348,-0.596 3.387,-0.869 1.039,-0.273 2.732,0.294 3.39,0.609 0.657,0.315 2.354,2.021 3.298,2.604 2.91,-2.893 7.821,-3.295 11.723,-2.778 1.197,0.159 0.689,-1.308 2.934,0.097 1.228,0.768 2.43,1.53 3.623,2.292 1.012,0.646 2.047,0.782 2.985,1.215 0.313,0.145 0.575,0.324 0.878,0.564 0.536,0.43 3.075,-0.189 4.254,0.26 l 0.262,7.641 0.432,14.327 c 2.614,1.749 2.988,5.06 4.168,7.469 1.232,2.513 1.886,3.803 1.997,6.25 0.109,2.408 -1.846,5.019 -1.521,7.204 z"
   style="fill:#f97171;fill-opacity:1;stroke:#3cd184;stroke-opacity:1;stroke-width:3;stroke-dasharray:none" /></svg>
